<svg xmlns="http://www.w3.org/2000/svg" xmlns:xlink="http://www.w3.org/1999/xlink" contentStyleType="text/css" data-diagram-type="STATE" height="799px" preserveAspectRatio="none" style="width:599px;height:799px;background:#FFFFFF;" version="1.1" viewBox="0 0 599 799" width="599px" zoomAndPan="magnify"><?plantuml 1.2026.3beta6?><defs/><g><g class="start_entity" data-qualified-name=".start." data-source-line="3" id="ent0002"><ellipse cx="203.79" cy="16" fill="#222222" rx="10" ry="10" style="stroke:#222222;stroke-width:1;"/></g><rect fill="#F1F1F1" height="40" rx="12.5" ry="12.5" style="stroke:#181818;stroke-width:0.5;" width="94.5332" x="156.52" y="103"/><text fill="#000000" font-family="sans-serif" font-size="14" lengthAdjust="spacing" textLength="84.5332" x="161.52" y="127.8467">Autenticado</text><rect fill="#F1F1F1" height="40" rx="12.5" ry="12.5" style="stroke:#181818;stroke-width:0.5;" width="172.0391" x="117.77" y="250"/><text fill="#000000" font-family="sans-serif" font-size="14" lengthAdjust="spacing" textLength="162.0391" x="122.77" y="274.8467">PlataformaConfigurada</text><rect fill="#F1F1F1" height="40" rx="12.5" ry="12.5" style="stroke:#181818;stroke-width:0.5;" width="125.0762" x="141.25" y="367"/><text fill="#000000" font-family="sans-serif" font-size="14" lengthAdjust="spacing" textLength="115.0762" x="146.25" y="391.8467">VisibilidadActiva</text><rect fill="#F1F1F1" height="40" rx="12.5" ry="12.5" style="stroke:#181818;stroke-width:0.5;" width="155.5781" x="7" y="499"/><text fill="#000000" font-family="sans-serif" font-size="14" lengthAdjust="spacing" textLength="145.5781" x="12" y="523.8467">MonitorizacionActiva</text><rect fill="#F1F1F1" height="40" rx="12.5" ry="12.5" style="stroke:#181818;stroke-width:0.5;" width="175.334" x="105.12" y="646"/><text fill="#000000" font-family="sans-serif" font-size="14" lengthAdjust="spacing" textLength="165.334" x="110.12" y="670.8467">OptimizacionDisponible</text><g class="end_entity" data-qualified-name=".end." data-source-line="15" id="ent0014"><ellipse cx="192.79" cy="774" fill="none" rx="11" ry="11" style="stroke:#222222;stroke-width:1;"/><ellipse cx="192.79" cy="774" fill="#222222" rx="6" ry="6" style="stroke:#222222;stroke-width:1;"/></g><!--link *start* to Autenticado--><g class="link" data-entity-1="ent0002" data-entity-2="ent0003" data-link-type="dependency" data-source-line="3" id="lnk4"><path d="M203.79,26.32 C203.79,43.38 203.79,73.98 203.79,96.64" fill="none" id="*start*-to-Autenticado" style="stroke:#181818;stroke-width:1;"/><polygon fill="#181818" points="203.79,102.64,207.79,93.64,203.79,97.64,199.79,93.64,203.79,102.64" style="stroke:#181818;stroke-width:1;"/><text fill="#000000" font-family="sans-serif" font-size="13" lengthAdjust="spacing" textLength="126.3628" x="204.79" y="69.0669">CU-04 Autenticarse</text></g><!--link Autenticado to PlataformaConfigurada--><g class="link" data-entity-1="ent0003" data-entity-2="ent0005" data-link-type="dependency" data-source-line="5" id="lnk6"><path d="M203.79,143.25 C203.79,170.99 203.79,215.89 203.79,243.67" fill="none" id="Autenticado-to-PlataformaConfigurada" style="stroke:#181818;stroke-width:1;"/><polygon fill="#181818" points="203.79,249.67,207.79,240.67,203.79,244.67,199.79,240.67,203.79,249.67" style="stroke:#181818;stroke-width:1;"/><text fill="#000000" font-family="sans-serif" font-size="13" lengthAdjust="spacing" textLength="223.7295" x="204.79" y="186.0669">CU-01 Registrar credenciales AWS</text><text fill="#000000" font-family="sans-serif" font-size="13" lengthAdjust="spacing" textLength="163.1348" x="235.0874" y="201.1997">CU-02 Descubrir agentes</text><text fill="#000000" font-family="sans-serif" font-size="13" lengthAdjust="spacing" textLength="142.397" x="245.4563" y="216.3325">CU-05 Configurar LLM</text></g><!--link PlataformaConfigurada to VisibilidadActiva--><g class="link" data-entity-1="ent0005" data-entity-2="ent0007" data-link-type="dependency" data-source-line="7" id="lnk8"><path d="M203.79,290.25 C203.79,311.48 203.79,339.44 203.79,360.69" fill="none" id="PlataformaConfigurada-to-VisibilidadActiva" style="stroke:#181818;stroke-width:1;"/><polygon fill="#181818" points="203.79,366.69,207.79,357.69,203.79,361.69,199.79,357.69,203.79,366.69" style="stroke:#181818;stroke-width:1;"/><text fill="#000000" font-family="sans-serif" font-size="13" lengthAdjust="spacing" textLength="196.5615" x="204.79" y="333.0669">CU-07 Dashboard consolidado</text></g><!--link VisibilidadActiva to MonitorizacionActiva--><g class="link" data-entity-1="ent0007" data-entity-2="ent0009" data-link-type="dependency" data-source-line="9" id="lnk10"><path d="M152.29,407.33 C137.93,414.78 123.37,424.56 112.79,437 C97.75,454.68 91.7221,474.9884 88.4621,492.7684" fill="none" id="VisibilidadActiva-to-MonitorizacionActiva" style="stroke:#181818;stroke-width:1;"/><polygon fill="#181818" points="87.38,498.67,92.9375,490.539,88.2817,493.752,85.0687,489.0962,87.38,498.67" style="stroke:#181818;stroke-width:1;"/><text fill="#000000" font-family="sans-serif" font-size="13" lengthAdjust="spacing" textLength="171.501" x="113.79" y="450.0669">CU-08 Detectar anomalias</text><text fill="#000000" font-family="sans-serif" font-size="13" lengthAdjust="spacing" textLength="161.4526" x="118.8142" y="465.1997">CU-13 Configurar alertas</text></g><!--link MonitorizacionActiva to OptimizacionDisponible--><g class="link" data-entity-1="ent0009" data-entity-2="ent0011" data-link-type="dependency" data-source-line="11" id="lnk12"><path d="M74.67,539.42 C65.42,560.15 55.32,593.12 70.79,616 C79.61,629.05 87.1644,635.9549 101.3444,642.9849" fill="none" id="MonitorizacionActiva-to-OptimizacionDisponible" style="stroke:#181818;stroke-width:1;"/><polygon fill="#181818" points="106.72,645.65,100.4333,638.0686,102.2403,643.4291,96.8798,645.2361,106.72,645.65" style="stroke:#181818;stroke-width:1;"/><text fill="#000000" font-family="sans-serif" font-size="13" lengthAdjust="spacing" textLength="162.4556" x="97.3711" y="582.0669">CU-09 Analizar eficiencia</text><text fill="#000000" font-family="sans-serif" font-size="13" lengthAdjust="spacing" textLength="179.3403" x="88.9287" y="597.1997">CU-10 Visibilidad coste LLM</text><text fill="#000000" font-family="sans-serif" font-size="13" lengthAdjust="spacing" textLength="213.6177" x="71.79" y="612.3325">CU-11 Recomendar optimizacion</text></g><!--link OptimizacionDisponible to VisibilidadActiva--><g class="link" data-entity-1="ent0011" data-entity-2="ent0007" data-link-type="dependency" data-source-line="13" id="lnk13"><path d="M256.08,645.59 C269.44,638.46 281.88,628.86 289.79,616 C331.47,548.24 329.76,505.78 289.79,437 C282.45,424.37 275.7087,417.7082 263.0287,410.4582" fill="none" id="OptimizacionDisponible-to-VisibilidadActiva" style="stroke:#181818;stroke-width:1;"/><polygon fill="#181818" points="257.82,407.48,263.6476,415.4197,262.1606,409.9618,267.6185,408.4748,257.82,407.48" style="stroke:#181818;stroke-width:1;"/><text fill="#000000" font-family="sans-serif" font-size="13" lengthAdjust="spacing" textLength="263.0977" x="320.79" y="523.5669">Actor Tiempo sincroniza periodicamente</text></g><!--link OptimizacionDisponible to *end*--><g class="link" data-entity-1="ent0011" data-entity-2="ent0014" data-link-type="dependency" data-source-line="15" id="lnk15"><path d="M192.79,686.44 C192.79,708.91 192.79,739.06 192.79,756.68" fill="none" id="OptimizacionDisponible-to-*end*" style="stroke:#181818;stroke-width:1;"/><polygon fill="#181818" points="192.79,762.68,196.79,753.68,192.79,757.68,188.79,753.68,192.79,762.68" style="stroke:#181818;stroke-width:1;"/><text fill="#000000" font-family="sans-serif" font-size="13" lengthAdjust="spacing" textLength="109.5859" x="193.79" y="729.0669">Sesion finalizada</text></g><?plantuml-src VL9BJm913BxFh-ZPX0HyHELWie4ZH2C-3kgXp1HeiZibdS54VhqT5dMDu6tIzdlqwwmu452ppXyGA7dbTMQ9phsSl46lTmFL9bFCx348367qsEkV_zGqaNFTYOAugp7ZGhJ1aSG5BpUA0VVO0TpJabDMLF1AWQ9dh2b1zJnxZMNY5CPcOpDNLi2b4LDg6nVmJQSmcKoTEonKB3nnuZdN731KFlFxb_mbZ36jve8Qm4jCiXiHv_u22irK8cTHtgAtJ7unNPdDJ3wR5upIOCtO-XoSTNtQRfenENUGgcZSMjxDlZpcjBQvUKrxbMkeeb5lZOaMx7aNLolJxovfowHC9PMsMMBsqb0CXfIEWdD7z8wbPWzHU63x8GA9erS3R17Mf2p1ZjwK4_rBMtxI46QKh0KBRXSA-0a0?></g></svg>