<svg xmlns="http://www.w3.org/2000/svg" xmlns:xlink="http://www.w3.org/1999/xlink" contentStyleType="text/css" data-diagram-type="STATE" height="814px" preserveAspectRatio="none" style="width:623px;height:814px;background:#FFFFFF;" version="1.1" viewBox="0 0 623 814" width="623px" zoomAndPan="magnify"><?plantuml 1.2026.4beta2?><defs/><g><g class="start_entity" data-qualified-name=".start." data-source-line="3" id="ent0002"><ellipse cx="206.79" cy="16" fill="#222222" rx="10" ry="10" style="stroke:#222222;stroke-width:1;"/></g><rect fill="#F1F1F1" height="40" rx="12.5" ry="12.5" style="stroke:#181818;stroke-width:0.5;" width="94.5332" x="159.52" y="103"/><text fill="#000000" font-family="sans-serif" font-size="14" lengthAdjust="spacing" textLength="84.5332" x="164.52" y="127.8467">Autenticado</text><rect fill="#F1F1F1" height="40" rx="12.5" ry="12.5" style="stroke:#181818;stroke-width:0.5;" width="172.0391" x="120.77" y="250"/><text fill="#000000" font-family="sans-serif" font-size="14" lengthAdjust="spacing" textLength="162.0391" x="125.77" y="274.8467">PlataformaConfigurada</text><rect fill="#F1F1F1" height="40" rx="12.5" ry="12.5" style="stroke:#181818;stroke-width:0.5;" width="125.0762" x="144.25" y="382"/><text fill="#000000" font-family="sans-serif" font-size="14" lengthAdjust="spacing" textLength="115.0762" x="149.25" y="406.8467">VisibilidadActiva</text><rect fill="#F1F1F1" height="40" rx="12.5" ry="12.5" style="stroke:#181818;stroke-width:0.5;" width="155.5781" x="7" y="514"/><text fill="#000000" font-family="sans-serif" font-size="14" lengthAdjust="spacing" textLength="145.5781" x="12" y="538.8467">MonitorizacionActiva</text><rect fill="#F1F1F1" height="40" rx="12.5" ry="12.5" style="stroke:#181818;stroke-width:0.5;" width="175.334" x="117.12" y="661"/><text fill="#000000" font-family="sans-serif" font-size="14" lengthAdjust="spacing" textLength="165.334" x="122.12" y="685.8467">OptimizacionDisponible</text><g class="end_entity" data-qualified-name=".end." data-source-line="15" id="ent0014"><ellipse cx="204.79" cy="789" fill="none" rx="11" ry="11" style="stroke:#222222;stroke-width:1;"/><ellipse cx="204.79" cy="789" fill="#222222" rx="6" ry="6" style="stroke:#222222;stroke-width:1;"/></g><!--link *start* to Autenticado--><g class="link" data-entity-1="ent0002" data-entity-2="ent0003" data-link-type="dependency" data-source-line="3" id="lnk4"><path d="M206.79,26.32 C206.79,43.38 206.79,73.98 206.79,96.64" fill="none" id="*start*-to-Autenticado" style="stroke:#181818;stroke-width:1;"/><polygon fill="#181818" points="206.79,102.64,210.79,93.64,206.79,97.64,202.79,93.64,206.79,102.64" style="stroke:#181818;stroke-width:1;"/><text fill="#000000" font-family="sans-serif" font-size="13" lengthAdjust="spacing" textLength="126.3628" x="207.79" y="69.0669">CU-04 Autenticarse</text></g><!--link Autenticado to PlataformaConfigurada--><g class="link" data-entity-1="ent0003" data-entity-2="ent0005" data-link-type="dependency" data-source-line="5" id="lnk6"><path d="M206.79,143.25 C206.79,170.99 206.79,215.89 206.79,243.67" fill="none" id="Autenticado-to-PlataformaConfigurada" style="stroke:#181818;stroke-width:1;"/><polygon fill="#181818" points="206.79,249.67,210.79,240.67,206.79,244.67,202.79,240.67,206.79,249.67" style="stroke:#181818;stroke-width:1;"/><text fill="#000000" font-family="sans-serif" font-size="13" lengthAdjust="spacing" textLength="223.7295" x="207.79" y="186.0669">CU-01 Registrar credenciales AWS</text><text fill="#000000" font-family="sans-serif" font-size="13" lengthAdjust="spacing" textLength="163.1348" x="238.0874" y="201.1997">CU-02 Descubrir agentes</text><text fill="#000000" font-family="sans-serif" font-size="13" lengthAdjust="spacing" textLength="142.397" x="248.4563" y="216.3325">CU-05 Configurar LLM</text></g><!--link PlataformaConfigurada to VisibilidadActiva--><g class="link" data-entity-1="ent0005" data-entity-2="ent0007" data-link-type="dependency" data-source-line="7" id="lnk8"><path d="M206.79,290.46 C206.79,315.11 206.79,351.32 206.79,375.83" fill="none" id="PlataformaConfigurada-to-VisibilidadActiva" style="stroke:#181818;stroke-width:1;"/><polygon fill="#181818" points="206.79,381.83,210.79,372.83,206.79,376.83,202.79,372.83,206.79,381.83" style="stroke:#181818;stroke-width:1;"/><text fill="#000000" font-family="sans-serif" font-size="13" lengthAdjust="spacing" textLength="174.8906" x="207.79" y="333.0669">CU-07 Coste total en Costs</text><text fill="#000000" font-family="sans-serif" font-size="13" lengthAdjust="spacing" textLength="156.2222" x="217.1242" y="348.1997">CU-08 Coste por agente</text></g><!--link VisibilidadActiva to MonitorizacionActiva--><g class="link" data-entity-1="ent0007" data-entity-2="ent0009" data-link-type="dependency" data-source-line="9" id="lnk10"><path d="M143.85,413.62 C121.76,420.69 99.15,432.44 85.79,452 C73.5,470 74.4972,490.0259 78.1672,507.6559" fill="none" id="VisibilidadActiva-to-MonitorizacionActiva" style="stroke:#181818;stroke-width:1;"/><polygon fill="#181818" points="79.39,513.53,81.4719,503.9037,78.371,508.6349,73.6398,505.5341,79.39,513.53" style="stroke:#181818;stroke-width:1;"/><text fill="#000000" font-family="sans-serif" font-size="13" lengthAdjust="spacing" textLength="171.501" x="108.0197" y="465.0669">CU-09 Detectar anomalias</text><text fill="#000000" font-family="sans-serif" font-size="13" lengthAdjust="spacing" textLength="213.9604" x="86.79" y="480.1997">CU-14 Alertas de umbral (futuro)</text></g><!--link MonitorizacionActiva to OptimizacionDisponible--><g class="link" data-entity-1="ent0009" data-entity-2="ent0011" data-link-type="dependency" data-source-line="11" id="lnk12"><path d="M77.46,554.14 C70.83,574.95 64.27,608.25 79.79,631 C88.85,644.29 96.7133,651.3478 111.2433,658.4078" fill="none" id="MonitorizacionActiva-to-OptimizacionDisponible" style="stroke:#181818;stroke-width:1;"/><polygon fill="#181818" points="116.64,661.03,110.2931,653.4989,112.1428,658.8448,106.7969,660.6945,116.64,661.03" style="stroke:#181818;stroke-width:1;"/><text fill="#000000" font-family="sans-serif" font-size="13" lengthAdjust="spacing" textLength="211.3071" x="84.8842" y="597.0669">CU-10 Coste LLM estimado CAIO</text><text fill="#000000" font-family="sans-serif" font-size="13" lengthAdjust="spacing" textLength="139.6929" x="120.6914" y="612.1997">CU-11 Optimizar RAG</text><text fill="#000000" font-family="sans-serif" font-size="13" lengthAdjust="spacing" textLength="219.4956" x="80.79" y="627.3325">CU-12 Prompt caching controlado</text></g><!--link OptimizacionDisponible to VisibilidadActiva--><g class="link" data-entity-1="ent0011" data-entity-2="ent0007" data-link-type="dependency" data-source-line="13" id="lnk13"><path d="M270.77,660.57 C284.25,653.47 296.76,643.88 304.79,631 C346.89,563.49 346.61,519.67 304.79,452 C296.59,438.73 288.9184,431.6982 275.0284,424.5082" fill="none" id="OptimizacionDisponible-to-VisibilidadActiva" style="stroke:#181818;stroke-width:1;"/><polygon fill="#181818" points="269.7,421.75,275.8539,429.4396,274.1404,424.0485,279.5315,422.335,269.7,421.75" style="stroke:#181818;stroke-width:1;"/><text fill="#000000" font-family="sans-serif" font-size="13" lengthAdjust="spacing" textLength="271.2036" x="336.79" y="538.5669">Actor Tiempo comprueba periodicamente</text></g><!--link OptimizacionDisponible to *end*--><g class="link" data-entity-1="ent0011" data-entity-2="ent0014" data-link-type="dependency" data-source-line="15" id="lnk15"><path d="M204.79,701.44 C204.79,723.91 204.79,754.06 204.79,771.68" fill="none" id="OptimizacionDisponible-to-*end*" style="stroke:#181818;stroke-width:1;"/><polygon fill="#181818" points="204.79,777.68,208.79,768.68,204.79,772.68,200.79,768.68,204.79,777.68" style="stroke:#181818;stroke-width:1;"/><text fill="#000000" font-family="sans-serif" font-size="13" lengthAdjust="spacing" textLength="109.5859" x="205.79" y="744.0669">Sesion finalizada</text></g><?plantuml-src VP9DIyD048Rl-olcg4AXBOeV1o6q849BI-l7GJrCDfDq8DaDinl1_ded9gsAhRTaP-PvNzwP3MS4LDNn0p8ALhYEx9qnBsTlC1ZSGj94Sf4jPXvkOF8u69v_lqaWOtvsj1FB4YFcNYgSU9TpqGXcsC-EO4K5XoWeO8KoSfQnf039y_hLjHrZcAgD9XKMm4B15Bh21Unn0hFPt9Z3Ggs59mwSSiaPPecD_BwJlrH6Y0JHHoo1tDTlpx_gQxNV2HlpbzFIvzvnzC9Rj1hLBu5hTH_9HhM8pbTOCdRuaQPMaaGC6ZCqLIfgu2HlOYF-r9Y3o5PheUke-kSfXrhxqf8wjT6mjwnf00LjR5SmIUuNdUHeFosmIkwwnp4inUkwmQBTi2l0UXV5bpfgp16rOv7gXuRrm7e-NZbLBGsb23K9-qmFekfI_8VQNjaDh2be2N9s6jXMb_W9?></g></svg>