<svg xmlns="http://www.w3.org/2000/svg" xmlns:xlink="http://www.w3.org/1999/xlink" contentStyleType="text/css" data-diagram-type="ACTIVITY" height="1102px" preserveAspectRatio="none" style="width:698px;height:1102px;background:#FFFFFF;" version="1.1" viewBox="0 0 698 1102" width="698px" zoomAndPan="magnify"><?plantuml 1.2026.4beta2?><defs/><g><g class="title" data-source-line="1"><text fill="#000000" font-family="sans-serif" font-size="14" font-weight="700" lengthAdjust="spacing" textLength="388.0967" x="154.3789" y="32.9951">CU-08 - Consultar coste por agente de IA en AWS</text></g><ellipse cx="257.6597" cy="62.2969" fill="#16A34A" rx="10" ry="10" style="stroke:#222222;stroke-width:1;"/><rect fill="none" height="136.2344" style="stroke:#000000;stroke-width:1.5;" width="187.8672" x="163.7261" y="82.2969"/><path d="M226.9302,82.2969 L226.9302,91.5938 L216.9302,101.5938 L163.7261,101.5938" fill="none" style="stroke:#000000;stroke-width:1.5;"/><text fill="#000000" font-family="sans-serif" font-size="14" lengthAdjust="spacing" textLength="53.2041" x="166.7261" y="96.292">Usuario</text><rect fill="#F8FAFC" height="33.9688" rx="12.5" ry="12.5" style="stroke:#334155;stroke-width:0.5;" width="167.8672" x="173.7261" y="118.5938"/><text fill="#000000" font-family="sans-serif" font-size="12" lengthAdjust="spacing" textLength="147.8672" x="183.7261" y="139.7324">Abrir Misiones -&gt; FinOps</text><rect fill="#F8FAFC" height="33.9688" rx="12.5" ry="12.5" style="stroke:#334155;stroke-width:0.5;" width="130.0566" x="192.6313" y="172.5625"/><text fill="#000000" font-family="sans-serif" font-size="12" lengthAdjust="spacing" textLength="110.0566" x="202.6313" y="193.7012">Seleccionar CU-08</text><rect fill="none" height="190.2031" style="stroke:#000000;stroke-width:1.5;" width="282.6836" x="116.3179" y="228.5313"/><path d="M158.6245,228.5313 L158.6245,237.8281 L148.6245,247.8281 L116.3179,247.8281" fill="none" style="stroke:#000000;stroke-width:1.5;"/><text fill="#000000" font-family="sans-serif" font-size="14" lengthAdjust="spacing" textLength="32.3066" x="119.3179" y="242.5264">AWS</text><rect fill="#F8FAFC" height="33.9688" rx="12.5" ry="12.5" style="stroke:#334155;stroke-width:0.5;" width="244.8184" x="135.2505" y="264.8281"/><text fill="#000000" font-family="sans-serif" font-size="12" lengthAdjust="spacing" textLength="224.8184" x="145.2505" y="285.9668">Uso Bedrock con senal theia-agent-id</text><rect fill="#F8FAFC" height="33.9688" rx="12.5" ry="12.5" style="stroke:#334155;stroke-width:0.5;" width="187.5137" x="163.9028" y="318.7969"/><text fill="#000000" font-family="sans-serif" font-size="12" lengthAdjust="spacing" textLength="167.5137" x="173.9028" y="339.9355">Cost allocation tag activada</text><rect fill="#F8FAFC" height="33.9688" rx="12.5" ry="12.5" style="stroke:#334155;stroke-width:0.5;" width="262.6836" x="126.3179" y="372.7656"/><text fill="#000000" font-family="sans-serif" font-size="12" lengthAdjust="spacing" textLength="242.6836" x="136.3179" y="393.9043">Cost Explorer publica datos por etiqueta</text><rect fill="none" height="265.6328" style="stroke:#000000;stroke-width:1.5;" width="662.8545" x="16" y="428.7344"/><path d="M86.3613,428.7344 L86.3613,438.0313 L76.3613,448.0313 L16,448.0313" fill="none" style="stroke:#000000;stroke-width:1.5;"/><text fill="#000000" font-family="sans-serif" font-size="14" lengthAdjust="spacing" textLength="60.3613" x="19" y="442.7295">Backend</text><rect fill="#F8FAFC" height="33.9688" rx="12.5" ry="12.5" style="stroke:#334155;stroke-width:0.5;" width="196.3906" x="159.4644" y="465.0313"/><text fill="#000000" font-family="sans-serif" font-size="12" lengthAdjust="spacing" textLength="176.3906" x="169.4644" y="486.1699">Sincronizar registros Bedrock</text><polygon fill="#FEF3C7" points="189.7798,519,325.5396,519,337.5396,531,325.5396,543,189.7798,543,177.7798,531,189.7798,519" style="stroke:#92400E;stroke-width:0.5;"/><text fill="#000000" font-family="sans-serif" font-size="11" lengthAdjust="spacing" textLength="135.7598" x="189.7798" y="534.8081">"Registro con agent_id?"</text><text fill="#000000" font-family="sans-serif" font-size="11" lengthAdjust="spacing" textLength="18.9063" x="158.8735" y="528.4058">"si"</text><text fill="#000000" font-family="sans-serif" font-size="11" lengthAdjust="spacing" textLength="23.8208" x="337.5396" y="528.4058">"no"</text><rect fill="#F8FAFC" height="33.9688" rx="12.5" ry="12.5" style="stroke:#334155;stroke-width:0.5;" width="207.2012" x="28" y="553"/><text fill="#000000" font-family="sans-serif" font-size="12" lengthAdjust="spacing" textLength="187.2012" x="38" y="574.1387">Asociar coste al agente interno</text><rect fill="#F8FAFC" height="33.9688" rx="12.5" ry="12.5" style="stroke:#334155;stroke-width:0.5;" width="257.0352" x="255.2012" y="553"/><text fill="#000000" font-family="sans-serif" font-size="12" lengthAdjust="spacing" textLength="237.0352" x="265.2012" y="574.1387">Conservar coste como unmatched_cost</text><polygon fill="#FEF3C7" points="257.6597,592.9688,269.6597,604.9688,257.6597,616.9688,245.6597,604.9688,257.6597,592.9688" style="stroke:#92400E;stroke-width:0.5;"/><path d="M364.5142,626.9688 L364.5142,650.668 L344.5142,654.668 L364.5142,658.668 L364.5142,682.3672 A0,0 0 0 0 364.5142,682.3672 L668.8545,682.3672 A0,0 0 0 0 668.8545,682.3672 L668.8545,636.9688 L658.8545,626.9688 L364.5142,626.9688 A0,0 0 0 0 364.5142,626.9688" fill="#FFF7ED" style="stroke:#EA580C;stroke-width:0.5;"/><path d="M658.8545,626.9688 L658.8545,636.9688 L668.8545,636.9688 L658.8545,626.9688" fill="#FFF7ED" style="stroke:#EA580C;stroke-width:0.5;"/><text fill="#000000" font-family="sans-serif" font-size="13" lengthAdjust="spacing" textLength="283.3403" x="370.5142" y="644.0356">AWS no atribuye automaticamente el coste</text><text fill="#000000" font-family="sans-serif" font-size="13" lengthAdjust="spacing" textLength="273.0254" x="370.5142" y="659.1685">al recurso agente Bedrock. Theia solo usa</text><text fill="#000000" font-family="sans-serif" font-size="13" lengthAdjust="spacing" textLength="195.3491" x="370.5142" y="674.3013">la senal visible cuando existe.</text><rect fill="#F8FAFC" height="33.9688" rx="12.5" ry="12.5" style="stroke:#334155;stroke-width:0.5;" width="173.709" x="170.8052" y="637.6836"/><text fill="#000000" font-family="sans-serif" font-size="12" lengthAdjust="spacing" textLength="153.709" x="180.8052" y="658.8223">Agregar coste por agente</text><rect fill="none" height="190.2031" style="stroke:#000000;stroke-width:1.5;" width="257.4004" x="128.9595" y="704.3672"/><path d="M177.3774,704.3672 L177.3774,713.6641 L167.3774,723.6641 L128.9595,723.6641" fill="none" style="stroke:#000000;stroke-width:1.5;"/><text fill="#000000" font-family="sans-serif" font-size="14" lengthAdjust="spacing" textLength="38.418" x="131.9595" y="718.3623">Costs</text><rect fill="#F8FAFC" height="33.9688" rx="12.5" ry="12.5" style="stroke:#334155;stroke-width:0.5;" width="235.6543" x="139.8325" y="740.6641"/><text fill="#000000" font-family="sans-serif" font-size="12" lengthAdjust="spacing" textLength="215.6543" x="149.8325" y="761.8027">Consultar GET /api/v1/billing/agents</text><rect fill="#F8FAFC" height="33.9688" rx="12.5" ry="12.5" style="stroke:#334155;stroke-width:0.5;" width="184.6543" x="165.3325" y="794.6328"/><text fill="#000000" font-family="sans-serif" font-size="12" lengthAdjust="spacing" textLength="164.6543" x="175.3325" y="815.7715">Mostrar ranking por agente</text><rect fill="#F8FAFC" height="33.9688" rx="12.5" ry="12.5" style="stroke:#334155;stroke-width:0.5;" width="237.4004" x="138.9595" y="848.6016"/><text fill="#000000" font-family="sans-serif" font-size="12" lengthAdjust="spacing" textLength="217.4004" x="148.9595" y="869.7402">Mostrar coste no asociado separado</text><rect fill="none" height="136.2344" style="stroke:#000000;stroke-width:1.5;" width="271.7148" x="121.8022" y="904.5703"/><path d="M185.0063,904.5703 L185.0063,913.8672 L175.0063,923.8672 L121.8022,923.8672" fill="none" style="stroke:#000000;stroke-width:1.5;"/><text fill="#000000" font-family="sans-serif" font-size="14" lengthAdjust="spacing" textLength="53.2041" x="124.8022" y="918.5654">Usuario</text><rect fill="#F8FAFC" height="33.9688" rx="12.5" ry="12.5" style="stroke:#334155;stroke-width:0.5;" width="251.7148" x="131.8022" y="940.8672"/><text fill="#000000" font-family="sans-serif" font-size="12" lengthAdjust="spacing" textLength="231.7148" x="141.8022" y="962.0059">Revisar atribucion y coste no asociado</text><rect fill="#F8FAFC" height="33.9688" rx="12.5" ry="12.5" style="stroke:#334155;stroke-width:0.5;" width="140.6094" x="187.355" y="994.8359"/><text fill="#000000" font-family="sans-serif" font-size="12" lengthAdjust="spacing" textLength="120.6094" x="197.355" y="1015.9746">Completar la mision</text><ellipse cx="257.6597" cy="1071.8047" fill="none" rx="11" ry="11" style="stroke:#222222;stroke-width:1;"/><ellipse cx="257.6597" cy="1071.8047" fill="#222222" rx="6" ry="6" style="stroke:#222222;stroke-width:1;"/><line style="stroke:#181818;stroke-width:1;" x1="257.6597" x2="257.6597" y1="152.5625" y2="172.5625"/><polygon fill="#181818" points="253.6597,162.5625,257.6597,172.5625,261.6597,162.5625,257.6597,166.5625" style="stroke:#181818;stroke-width:1;"/><line style="stroke:#181818;stroke-width:1;" x1="257.6597" x2="257.6597" y1="72.2969" y2="118.5938"/><polygon fill="#181818" points="253.6597,108.5938,257.6597,118.5938,261.6597,108.5938,257.6597,112.5938" style="stroke:#181818;stroke-width:1;"/><line style="stroke:#181818;stroke-width:1;" x1="257.6597" x2="257.6597" y1="298.7969" y2="318.7969"/><polygon fill="#181818" points="253.6597,308.7969,257.6597,318.7969,261.6597,308.7969,257.6597,312.7969" style="stroke:#181818;stroke-width:1;"/><line style="stroke:#181818;stroke-width:1;" x1="257.6597" x2="257.6597" y1="352.7656" y2="372.7656"/><polygon fill="#181818" points="253.6597,362.7656,257.6597,372.7656,261.6597,362.7656,257.6597,366.7656" style="stroke:#181818;stroke-width:1;"/><line style="stroke:#181818;stroke-width:1;" x1="257.6597" x2="257.6597" y1="206.5313" y2="264.8281"/><polygon fill="#181818" points="253.6597,254.8281,257.6597,264.8281,261.6597,254.8281,257.6597,258.8281" style="stroke:#181818;stroke-width:1;"/><line style="stroke:#181818;stroke-width:1;" x1="177.7798" x2="131.6006" y1="531" y2="531"/><line style="stroke:#181818;stroke-width:1;" x1="131.6006" x2="131.6006" y1="531" y2="553"/><polygon fill="#181818" points="127.6006,543,131.6006,553,135.6006,543,131.6006,547" style="stroke:#181818;stroke-width:1;"/><line style="stroke:#181818;stroke-width:1;" x1="337.5396" x2="383.7188" y1="531" y2="531"/><line style="stroke:#181818;stroke-width:1;" x1="383.7188" x2="383.7188" y1="531" y2="553"/><polygon fill="#181818" points="379.7188,543,383.7188,553,387.7188,543,383.7188,547" style="stroke:#181818;stroke-width:1;"/><line style="stroke:#181818;stroke-width:1;" x1="131.6006" x2="131.6006" y1="586.9688" y2="604.9688"/><line style="stroke:#181818;stroke-width:1;" x1="131.6006" x2="245.6597" y1="604.9688" y2="604.9688"/><polygon fill="#181818" points="235.6597,600.9688,245.6597,604.9688,235.6597,608.9688,239.6597,604.9688" style="stroke:#181818;stroke-width:1;"/><line style="stroke:#181818;stroke-width:1;" x1="383.7188" x2="383.7188" y1="586.9688" y2="604.9688"/><line style="stroke:#181818;stroke-width:1;" x1="383.7188" x2="269.6597" y1="604.9688" y2="604.9688"/><polygon fill="#181818" points="279.6597,600.9688,269.6597,604.9688,279.6597,608.9688,275.6597,604.9688" style="stroke:#181818;stroke-width:1;"/><line style="stroke:#181818;stroke-width:1;" x1="257.6597" x2="257.6597" y1="499" y2="519"/><polygon fill="#181818" points="253.6597,509,257.6597,519,261.6597,509,257.6597,513" style="stroke:#181818;stroke-width:1;"/><line style="stroke:#181818;stroke-width:1;" x1="257.6597" x2="257.6597" y1="616.9688" y2="637.6836"/><polygon fill="#181818" points="253.6597,627.6836,257.6597,637.6836,261.6597,627.6836,257.6597,631.6836" style="stroke:#181818;stroke-width:1;"/><line style="stroke:#181818;stroke-width:1;" x1="257.6597" x2="257.6597" y1="406.7344" y2="465.0313"/><polygon fill="#181818" points="253.6597,455.0313,257.6597,465.0313,261.6597,455.0313,257.6597,459.0313" style="stroke:#181818;stroke-width:1;"/><line style="stroke:#181818;stroke-width:1;" x1="257.6597" x2="257.6597" y1="774.6328" y2="794.6328"/><polygon fill="#181818" points="253.6597,784.6328,257.6597,794.6328,261.6597,784.6328,257.6597,788.6328" style="stroke:#181818;stroke-width:1;"/><line style="stroke:#181818;stroke-width:1;" x1="257.6597" x2="257.6597" y1="828.6016" y2="848.6016"/><polygon fill="#181818" points="253.6597,838.6016,257.6597,848.6016,261.6597,838.6016,257.6597,842.6016" style="stroke:#181818;stroke-width:1;"/><line style="stroke:#181818;stroke-width:1;" x1="257.6597" x2="257.6597" y1="671.6523" y2="740.6641"/><polygon fill="#181818" points="253.6597,730.6641,257.6597,740.6641,261.6597,730.6641,257.6597,734.6641" style="stroke:#181818;stroke-width:1;"/><line style="stroke:#181818;stroke-width:1;" x1="257.6597" x2="257.6597" y1="974.8359" y2="994.8359"/><polygon fill="#181818" points="253.6597,984.8359,257.6597,994.8359,261.6597,984.8359,257.6597,988.8359" style="stroke:#181818;stroke-width:1;"/><line style="stroke:#181818;stroke-width:1;" x1="257.6597" x2="257.6597" y1="882.5703" y2="940.8672"/><polygon fill="#181818" points="253.6597,930.8672,257.6597,940.8672,261.6597,930.8672,257.6597,934.8672" style="stroke:#181818;stroke-width:1;"/><line style="stroke:#181818;stroke-width:1;" x1="257.6597" x2="257.6597" y1="1028.8047" y2="1060.8047"/><polygon fill="#181818" points="253.6597,1050.8047,257.6597,1060.8047,261.6597,1050.8047,257.6597,1054.8047" style="stroke:#181818;stroke-width:1;"/><?plantuml-src RLDDJnin4BtlhnYbbt882GqKMgHMox9RzO0g4L2FoB67pIXUUsjxKw3gV-_OSM7vo64LpSVpctbl0WMDK5rFvoSmXSeQF-WW74Zh0q9l7OWM3VzL2DzBG0FbpsLH-0sPNZZHmKh8JUliO5HbDPU_Qz9lLE7NGjdVP5gu5ThZA2Dae2s5U_XJ09oz0ZffogQA6UiKkXnTB0uFZeuuUawYiqQzRgkRHNKyAXXtV_fmE9_Nd5poa2473pwMYyEIW_KZI0xz7P4rbhVmDj6cEQxFNnAjowEJUSKGXOzl5GN310fa3Kok_I0SsKd2-rok73cu8Cyvz33z0WsP7xq_ZSabQfIIConAakaqGewmM8-CS-qjdA5oLcvOFmCUZT0GraXYcbISaagO5OiBGcihHS88ejrf8PHuAgZlUXu47VJ3IfCKe4ImFda20_qQC8YNNE9gqAZCPqb6EcleWQaxRCa7n_sPONo7Rk7zv39d4kL4yuRKrybU96uuxsconxLnJzvAUlGcZvQjIVnnnaP4P8DnZx7_UwAZqMqVkwJjB0oc4q6kKTt4OEepYcwJ5YqpVSF_QT9a0KVjEd0fxvqz0I8uMWttp6S8bc5vKLrYXNe7mgLCrQ4S7EkJAUSbxCDLL0SyMmO6BxXMYwpRblsmujkKWp3A0jxnbd2_OAR9Yi_s7lNoUUjFD_ojleAPw6csFPYjI6i-mLbwV-Ui2svoKHfXDl4wnyEEqhjDn4dJ-fcAntWHohvK_xchBv4duFxTWgA3uVurMBPRrskCb7dwBjt1wUvmRFyF?></g></svg>