<svg xmlns="http://www.w3.org/2000/svg" xmlns:xlink="http://www.w3.org/1999/xlink" contentStyleType="text/css" data-diagram-type="ACTIVITY" height="1212px" preserveAspectRatio="none" style="width:455px;height:1212px;background:#FFFFFF;" version="1.1" viewBox="0 0 455 1212" width="455px" zoomAndPan="magnify"><?plantuml 1.2026.4beta2?><defs/><g><g class="title" data-source-line="1"><text fill="#000000" font-family="sans-serif" font-size="14" font-weight="700" lengthAdjust="spacing" textLength="289.8369" x="81.8533" y="32.9951">CU-09 - Detectar anomalias de gasto</text></g><ellipse cx="224.5735" cy="62.2969" fill="#16A34A" rx="10" ry="10" style="stroke:#222222;stroke-width:1;"/><rect fill="none" height="82.2656" style="stroke:#000000;stroke-width:1.5;" width="223.8965" x="112.6252" y="82.2969"/><path d="M286.9749,82.2969 L286.9749,91.5938 L276.9749,101.5938 L112.6252,101.5938" fill="none" style="stroke:#000000;stroke-width:1.5;"/><text fill="#000000" font-family="sans-serif" font-size="14" lengthAdjust="spacing" textLength="164.3496" x="115.6252" y="96.292">Usuario o Actor Tiempo</text><rect fill="#F8FAFC" height="33.9688" rx="12.5" ry="12.5" style="stroke:#334155;stroke-width:0.5;" width="203.8965" x="122.6252" y="118.5938"/><text fill="#000000" font-family="sans-serif" font-size="12" lengthAdjust="spacing" textLength="183.8965" x="132.6252" y="139.7324">Solicitar revision de anomalias</text><rect fill="none" height="136.2344" style="stroke:#000000;stroke-width:1.5;" width="263.4004" x="92.8733" y="174.5625"/><path d="M163.2346,174.5625 L163.2346,183.8594 L153.2346,193.8594 L92.8733,193.8594" fill="none" style="stroke:#000000;stroke-width:1.5;"/><text fill="#000000" font-family="sans-serif" font-size="14" lengthAdjust="spacing" textLength="60.3613" x="95.8733" y="188.5576">Backend</text><rect fill="#F8FAFC" height="33.9688" rx="12.5" ry="12.5" style="stroke:#334155;stroke-width:0.5;" width="243.4004" x="102.8733" y="210.8594"/><text fill="#000000" font-family="sans-serif" font-size="12" lengthAdjust="spacing" textLength="223.4004" x="112.8733" y="231.998">Leer billing_data de Amazon Bedrock</text><rect fill="#F8FAFC" height="33.9688" rx="12.5" ry="12.5" style="stroke:#334155;stroke-width:0.5;" width="227.9961" x="110.5754" y="264.8281"/><text fill="#000000" font-family="sans-serif" font-size="12" lengthAdjust="spacing" textLength="207.9961" x="120.5754" y="285.9668">Construir series diarias por ambito</text><rect fill="#F8FAFC" height="33.9688" rx="12.5" ry="12.5" style="stroke:#334155;stroke-width:0.5;" width="200.0586" x="124.5442" y="379.1992"/><text fill="#000000" font-family="sans-serif" font-size="12" lengthAdjust="spacing" textLength="180.0586" x="134.5442" y="400.3379">Informar historico insuficiente</text><ellipse cx="224.5735" cy="452.6836" fill="none" rx="11" ry="11" style="stroke:#222222;stroke-width:1;"/><ellipse cx="224.5735" cy="452.6836" fill="#222222" rx="6" ry="6" style="stroke:#222222;stroke-width:1;"/><polygon fill="#FEF3C7" points="116.448,330.7969,332.699,330.7969,344.699,342.7969,332.699,354.7969,116.448,354.7969,104.448,342.7969,116.448,330.7969" style="stroke:#92400E;stroke-width:0.5;"/><text fill="#000000" font-family="sans-serif" font-size="11" lengthAdjust="spacing" textLength="23.8208" x="228.5735" y="365.0073">"no"</text><text fill="#000000" font-family="sans-serif" font-size="11" lengthAdjust="spacing" textLength="216.251" x="116.448" y="346.605">"Hay 14 dias previos y dia observado?"</text><text fill="#000000" font-family="sans-serif" font-size="11" lengthAdjust="spacing" textLength="18.9063" x="344.699" y="340.2026">"si"</text><rect fill="none" height="244.1719" style="stroke:#000000;stroke-width:1.5;" width="213.2324" x="117.9573" y="495.6836"/><path d="M226.0325,495.6836 L226.0325,504.9805 L216.0325,514.9805 L117.9573,514.9805" fill="none" style="stroke:#000000;stroke-width:1.5;"/><text fill="#000000" font-family="sans-serif" font-size="14" lengthAdjust="spacing" textLength="98.0752" x="120.9573" y="509.6787">Detector local</text><rect fill="#F8FAFC" height="33.9688" rx="12.5" ry="12.5" style="stroke:#334155;stroke-width:0.5;" width="176.3516" x="136.3977" y="531.9805"/><text fill="#000000" font-family="sans-serif" font-size="12" lengthAdjust="spacing" textLength="156.3516" x="146.3977" y="553.1191">Calcular media de 14 dias</text><rect fill="#F8FAFC" height="33.9688" rx="12.5" ry="12.5" style="stroke:#334155;stroke-width:0.5;" width="173.3809" x="137.8831" y="585.9492"/><text fill="#000000" font-family="sans-serif" font-size="12" lengthAdjust="spacing" textLength="153.3809" x="147.8831" y="607.0879">Calcular desviacion tipica</text><rect fill="#F8FAFC" height="33.9688" rx="12.5" ry="12.5" style="stroke:#334155;stroke-width:0.5;" width="193.2324" x="127.9573" y="639.918"/><text fill="#000000" font-family="sans-serif" font-size="12" lengthAdjust="spacing" textLength="173.2324" x="137.9573" y="661.0566">Calcular umbral de anomalia</text><rect fill="#F8FAFC" height="33.9688" rx="12.5" ry="12.5" style="stroke:#334155;stroke-width:0.5;" width="168.4766" x="140.3352" y="693.8867"/><text fill="#000000" font-family="sans-serif" font-size="12" lengthAdjust="spacing" textLength="148.4766" x="150.3352" y="715.0254">Comparar dia observado</text><polygon fill="#FEF3C7" points="128.0039,759.8555,321.1431,759.8555,333.1431,771.8555,321.1431,783.8555,128.0039,783.8555,116.0039,771.8555,128.0039,759.8555" style="stroke:#92400E;stroke-width:0.5;"/><text fill="#000000" font-family="sans-serif" font-size="11" lengthAdjust="spacing" textLength="193.1392" x="128.0039" y="775.6636">"Se detecta desviacion relevante?"</text><text fill="#000000" font-family="sans-serif" font-size="11" lengthAdjust="spacing" textLength="18.9063" x="97.0977" y="769.2612">"si"</text><text fill="#000000" font-family="sans-serif" font-size="11" lengthAdjust="spacing" textLength="23.8208" x="333.1431" y="769.2612">"no"</text><rect fill="#F8FAFC" height="33.9688" rx="12.5" ry="12.5" style="stroke:#334155;stroke-width:0.5;" width="180.0078" x="16" y="793.8555"/><text fill="#000000" font-family="sans-serif" font-size="12" lengthAdjust="spacing" textLength="160.0078" x="26" y="814.9941">Crear alerta con severidad</text><rect fill="#F8FAFC" height="33.9688" rx="12.5" ry="12.5" style="stroke:#334155;stroke-width:0.5;" width="184.8008" x="250.7427" y="793.8555"/><text fill="#000000" font-family="sans-serif" font-size="12" lengthAdjust="spacing" textLength="164.8008" x="260.7427" y="814.9941">Devolver revision sin alerta</text><polygon fill="#FEF3C7" points="224.5735,833.8242,236.5735,845.8242,224.5735,857.8242,212.5735,845.8242,224.5735,833.8242" style="stroke:#92400E;stroke-width:0.5;"/><rect fill="none" height="136.2344" style="stroke:#000000;stroke-width:1.5;" width="244.5742" x="102.2864" y="867.8242"/><path d="M175.7922,867.8242 L175.7922,877.1211 L165.7922,887.1211 L102.2864,887.1211" fill="none" style="stroke:#000000;stroke-width:1.5;"/><text fill="#000000" font-family="sans-serif" font-size="14" lengthAdjust="spacing" textLength="63.5059" x="105.2864" y="881.8193">Auditoria</text><rect fill="#F8FAFC" height="33.9688" rx="12.5" ry="12.5" style="stroke:#334155;stroke-width:0.5;" width="212.4746" x="118.3362" y="904.1211"/><text fill="#000000" font-family="sans-serif" font-size="12" lengthAdjust="spacing" textLength="192.4746" x="128.3362" y="925.2598">Registrar ejecucion del detector</text><rect fill="#F8FAFC" height="33.9688" rx="12.5" ry="12.5" style="stroke:#334155;stroke-width:0.5;" width="224.5742" x="112.2864" y="958.0898"/><text fill="#000000" font-family="sans-serif" font-size="12" lengthAdjust="spacing" textLength="204.5742" x="122.2864" y="979.2285">Evitar duplicados por dia y trigger</text><rect fill="none" height="136.2344" style="stroke:#000000;stroke-width:1.5;" width="276.3848" x="86.3811" y="1014.0586"/><path d="M134.7991,1014.0586 L134.7991,1023.3555 L124.7991,1033.3555 L86.3811,1033.3555" fill="none" style="stroke:#000000;stroke-width:1.5;"/><text fill="#000000" font-family="sans-serif" font-size="14" lengthAdjust="spacing" textLength="38.418" x="89.3811" y="1028.0537">Costs</text><rect fill="#F8FAFC" height="33.9688" rx="12.5" ry="12.5" style="stroke:#334155;stroke-width:0.5;" width="256.3848" x="96.3811" y="1050.3555"/><text fill="#000000" font-family="sans-serif" font-size="12" lengthAdjust="spacing" textLength="236.3848" x="106.3811" y="1071.4941">Consultar GET /api/v1/billing/anomalies</text><rect fill="#F8FAFC" height="33.9688" rx="12.5" ry="12.5" style="stroke:#334155;stroke-width:0.5;" width="233.7617" x="107.6926" y="1104.3242"/><text fill="#000000" font-family="sans-serif" font-size="12" lengthAdjust="spacing" textLength="213.7617" x="117.6926" y="1125.4629">Mostrar baseline, umbral e impacto</text><ellipse cx="224.5735" cy="1181.293" fill="none" rx="11" ry="11" style="stroke:#222222;stroke-width:1;"/><ellipse cx="224.5735" cy="1181.293" fill="#222222" rx="6" ry="6" style="stroke:#222222;stroke-width:1;"/><line style="stroke:#181818;stroke-width:1;" x1="224.5735" x2="224.5735" y1="72.2969" y2="118.5938"/><polygon fill="#181818" points="220.5735,108.5938,224.5735,118.5938,228.5735,108.5938,224.5735,112.5938" style="stroke:#181818;stroke-width:1;"/><line style="stroke:#181818;stroke-width:1;" x1="224.5735" x2="224.5735" y1="244.8281" y2="264.8281"/><polygon fill="#181818" points="220.5735,254.8281,224.5735,264.8281,228.5735,254.8281,224.5735,258.8281" style="stroke:#181818;stroke-width:1;"/><line style="stroke:#181818;stroke-width:1;" x1="224.5735" x2="224.5735" y1="152.5625" y2="210.8594"/><polygon fill="#181818" points="220.5735,200.8594,224.5735,210.8594,228.5735,200.8594,224.5735,204.8594" style="stroke:#181818;stroke-width:1;"/><line style="stroke:#181818;stroke-width:1;" x1="224.5735" x2="224.5735" y1="413.168" y2="441.6836"/><polygon fill="#181818" points="220.5735,431.6836,224.5735,441.6836,228.5735,431.6836,224.5735,435.6836" style="stroke:#181818;stroke-width:1;"/><line style="stroke:#181818;stroke-width:1;" x1="224.5735" x2="224.5735" y1="354.7969" y2="379.1992"/><polygon fill="#181818" points="220.5735,369.1992,224.5735,379.1992,228.5735,369.1992,224.5735,373.1992" style="stroke:#181818;stroke-width:1;"/><line style="stroke:#181818;stroke-width:1;" x1="344.699" x2="356.699" y1="342.7969" y2="342.7969"/><polygon fill="#181818" points="352.699,411.6836,356.699,421.6836,360.699,411.6836,356.699,415.6836" style="stroke:#181818;stroke-width:1;"/><line style="stroke:#181818;stroke-width:1;" x1="356.699" x2="356.699" y1="342.7969" y2="485.6836"/><line style="stroke:#181818;stroke-width:1;" x1="356.699" x2="224.5735" y1="485.6836" y2="485.6836"/><line style="stroke:#181818;stroke-width:1;" x1="224.5735" x2="224.5735" y1="485.6836" y2="531.9805"/><polygon fill="#181818" points="220.5735,521.9805,224.5735,531.9805,228.5735,521.9805,224.5735,525.9805" style="stroke:#181818;stroke-width:1;"/><line style="stroke:#181818;stroke-width:1;" x1="224.5735" x2="224.5735" y1="298.7969" y2="330.7969"/><polygon fill="#181818" points="220.5735,320.7969,224.5735,330.7969,228.5735,320.7969,224.5735,324.7969" style="stroke:#181818;stroke-width:1;"/><line style="stroke:#181818;stroke-width:1;" x1="224.5735" x2="224.5735" y1="565.9492" y2="585.9492"/><polygon fill="#181818" points="220.5735,575.9492,224.5735,585.9492,228.5735,575.9492,224.5735,579.9492" style="stroke:#181818;stroke-width:1;"/><line style="stroke:#181818;stroke-width:1;" x1="224.5735" x2="224.5735" y1="619.918" y2="639.918"/><polygon fill="#181818" points="220.5735,629.918,224.5735,639.918,228.5735,629.918,224.5735,633.918" style="stroke:#181818;stroke-width:1;"/><line style="stroke:#181818;stroke-width:1;" x1="224.5735" x2="224.5735" y1="673.8867" y2="693.8867"/><polygon fill="#181818" points="220.5735,683.8867,224.5735,693.8867,228.5735,683.8867,224.5735,687.8867" style="stroke:#181818;stroke-width:1;"/><line style="stroke:#181818;stroke-width:1;" x1="116.0039" x2="106.0039" y1="771.8555" y2="771.8555"/><line style="stroke:#181818;stroke-width:1;" x1="106.0039" x2="106.0039" y1="771.8555" y2="793.8555"/><polygon fill="#181818" points="102.0039,783.8555,106.0039,793.8555,110.0039,783.8555,106.0039,787.8555" style="stroke:#181818;stroke-width:1;"/><line style="stroke:#181818;stroke-width:1;" x1="333.1431" x2="343.1431" y1="771.8555" y2="771.8555"/><line style="stroke:#181818;stroke-width:1;" x1="343.1431" x2="343.1431" y1="771.8555" y2="793.8555"/><polygon fill="#181818" points="339.1431,783.8555,343.1431,793.8555,347.1431,783.8555,343.1431,787.8555" style="stroke:#181818;stroke-width:1;"/><line style="stroke:#181818;stroke-width:1;" x1="106.0039" x2="106.0039" y1="827.8242" y2="845.8242"/><line style="stroke:#181818;stroke-width:1;" x1="106.0039" x2="212.5735" y1="845.8242" y2="845.8242"/><polygon fill="#181818" points="202.5735,841.8242,212.5735,845.8242,202.5735,849.8242,206.5735,845.8242" style="stroke:#181818;stroke-width:1;"/><line style="stroke:#181818;stroke-width:1;" x1="343.1431" x2="343.1431" y1="827.8242" y2="845.8242"/><line style="stroke:#181818;stroke-width:1;" x1="343.1431" x2="236.5735" y1="845.8242" y2="845.8242"/><polygon fill="#181818" points="246.5735,841.8242,236.5735,845.8242,246.5735,849.8242,242.5735,845.8242" style="stroke:#181818;stroke-width:1;"/><line style="stroke:#181818;stroke-width:1;" x1="224.5735" x2="224.5735" y1="727.8555" y2="759.8555"/><polygon fill="#181818" points="220.5735,749.8555,224.5735,759.8555,228.5735,749.8555,224.5735,753.8555" style="stroke:#181818;stroke-width:1;"/><line style="stroke:#181818;stroke-width:1;" x1="224.5735" x2="224.5735" y1="938.0898" y2="958.0898"/><polygon fill="#181818" points="220.5735,948.0898,224.5735,958.0898,228.5735,948.0898,224.5735,952.0898" style="stroke:#181818;stroke-width:1;"/><line style="stroke:#181818;stroke-width:1;" x1="224.5735" x2="224.5735" y1="857.8242" y2="904.1211"/><polygon fill="#181818" points="220.5735,894.1211,224.5735,904.1211,228.5735,894.1211,224.5735,898.1211" style="stroke:#181818;stroke-width:1;"/><line style="stroke:#181818;stroke-width:1;" x1="224.5735" x2="224.5735" y1="1084.3242" y2="1104.3242"/><polygon fill="#181818" points="220.5735,1094.3242,224.5735,1104.3242,228.5735,1094.3242,224.5735,1098.3242" style="stroke:#181818;stroke-width:1;"/><line style="stroke:#181818;stroke-width:1;" x1="224.5735" x2="224.5735" y1="992.0586" y2="1050.3555"/><polygon fill="#181818" points="220.5735,1040.3555,224.5735,1050.3555,228.5735,1040.3555,224.5735,1044.3555" style="stroke:#181818;stroke-width:1;"/><line style="stroke:#181818;stroke-width:1;" x1="224.5735" x2="224.5735" y1="1138.293" y2="1170.293"/><polygon fill="#181818" points="220.5735,1160.293,224.5735,1170.293,228.5735,1160.293,224.5735,1164.293" style="stroke:#181818;stroke-width:1;"/><?plantuml-src TLF1RjD04BtxArRXGYMg92IbBJaWrt402IwaFQF9xYGTkjwnTjT60V7lp3fEwxIGMsRclNtlpJXIjAYAk_F9jJfNIuoe8tW5ZYkm144PL3i8aRCiF92hmKEbDg0VTfuRPmgsxDMhLVSRJ8HxCFoJt4vjmGOST417QYdkrUzCgPiNH5UhV5Ma3dk3lg_EPlFfnOLKbmGLE_CILgvcnULWO8Y-VZkVJ4ffhiLPx8lJT_bidaknV2JfIty6OXr7_8_GrUgoN3uNMkONLvD2ABAGtieoeOaKYPqQtOK6FB5YbUiemxU4LSsZZlxzcYrfIibxR2aaW0J_k8L5eXnm9JdeJ0_-WkZLXgoLlByRY92mUGM_PFG6ZMVzi4Xp1RiGVKDU1VI4ibiIHRBZMkH0jQ78tKEqLQz7ds2lflCq8lqaYeFQfx-ADm9lPRyVHcSgtgEJQSUZi_J4PxTbNucDUvARyQHPaGlDLioXYvXaIBtEK8v2O8449aPeUsBlS8OYoh86sxiimEh62dM5IOLOxEKjJhe6GqkW4q-acZISjfjguy4Em-sZgTB6_Qd1fpJMA93ksnW-uD5Y2-9ha4HdAJ5wJD-HHIyOBSC1MqdTW5aStHz3MsBBLffFkm_aUkZY7_7aZQ4KBlJ9VCETf9tKum_KZJvSZ-qLi-ySbcrtNgQfvTB4ss7hoUvUHK-x7VhdLrPmYE6OljnEOnF3n_9MZQ6cSJiTzqStxhF4mow-ya7D1W9A6zySKqT54hFkpomTmby0?></g></svg>