<svg xmlns="http://www.w3.org/2000/svg" xmlns:xlink="http://www.w3.org/1999/xlink" contentStyleType="text/css" data-diagram-type="DESCRIPTION" height="290px" preserveAspectRatio="none" style="width:3748px;height:290px;background:#FFFFFF;" version="1.1" viewBox="0 0 3748 290" width="3748px" zoomAndPan="magnify"><?plantuml 1.2026.3beta6?><defs/><g><!--cluster Sistema Theia Officer - Modulo FinOps AWS--><g class="cluster" data-qualified-name="Sistema Theia Officer - Modulo FinOps AWS" data-source-line="6" id="ent0003"><rect fill="none" height="178.74" rx="2.5" ry="2.5" style="stroke:#181818;stroke-width:1;" width="3727" x="7" y="97.79"/><text fill="#000000" font-family="sans-serif" font-size="14" font-weight="700" lengthAdjust="spacing" textLength="344.2305" x="1698.3848" y="112.7851">Sistema Theia Officer - Modulo FinOps AWS</text></g><!--cluster Plataforma base (Theia Craft)--><g class="cluster" data-qualified-name="Sistema Theia Officer - Modulo FinOps AWS.Plataforma base .Theia Craft." data-source-line="7" id="ent0004"><rect fill="none" height="101.36" rx="2.5" ry="2.5" style="stroke:#181818;stroke-width:1;" width="1166" x="31" y="145.98"/><text fill="#000000" font-family="sans-serif" font-size="14" font-weight="700" lengthAdjust="spacing" textLength="234.6777" x="496.6611" y="160.9751">Plataforma base (Theia Craft)</text></g><!--cluster Nuevas misiones FinOps (TFG)--><g class="cluster" data-qualified-name="Sistema Theia Officer - Modulo FinOps AWS.Nuevas misiones FinOps .TFG." data-source-line="14" id="ent0010"><rect fill="none" height="111.74" rx="2.5" ry="2.5" style="stroke:#181818;stroke-width:1;" width="2489" x="1221" y="140.79"/><text fill="#000000" font-family="sans-serif" font-size="14" font-weight="700" lengthAdjust="spacing" textLength="240.625" x="2345.1875" y="155.7851">Nuevas misiones FinOps (TFG)</text></g><!--entity CU01--><g class="entity" data-qualified-name="Sistema Theia Officer - Modulo FinOps AWS.Plataforma base .Theia Craft..CU01" data-source-line="8" id="ent0005"><ellipse cx="160.995" cy="206.163" fill="#F1F1F1" rx="113.915" ry="25.183" style="stroke:#181818;stroke-width:0.5;"/><text fill="#000000" font-family="sans-serif" font-size="14" lengthAdjust="spacing" textLength="42.8887" x="139.5507" y="197.1954">CU-01</text><text fill="#000000" font-family="sans-serif" font-size="14" lengthAdjust="spacing" textLength="193.6006" x="64.1947" y="213.4923">Registrar credenciales AWS</text></g><!--entity CU02--><g class="entity" data-qualified-name="Sistema Theia Officer - Modulo FinOps AWS.Plataforma base .Theia Craft..CU02" data-source-line="9" id="ent0006"><ellipse cx="421.9958" cy="206.1572" fill="#F1F1F1" rx="112.0358" ry="24.8072" style="stroke:#181818;stroke-width:0.5;"/><text fill="#000000" font-family="sans-serif" font-size="14" lengthAdjust="spacing" textLength="42.8887" x="400.5515" y="197.5728">CU-02</text><text fill="#000000" font-family="sans-serif" font-size="14" lengthAdjust="spacing" textLength="187.0381" x="328.4768" y="213.8697">Descubrir agentes en AWS</text></g><!--entity CU04--><g class="entity" data-qualified-name="Sistema Theia Officer - Modulo FinOps AWS.Plataforma base .Theia Craft..CU04" data-source-line="10" id="ent0007"><ellipse cx="628.9973" cy="206.1559" fill="#F1F1F1" rx="60.0573" ry="23.9559" style="stroke:#181818;stroke-width:0.5;"/><text fill="#000000" font-family="sans-serif" font-size="14" lengthAdjust="spacing" textLength="42.8887" x="607.553" y="199.5333">CU-04</text><text fill="#000000" font-family="sans-serif" font-size="14" lengthAdjust="spacing" textLength="88.7441" x="584.6252" y="215.8301">Autenticarse</text></g><!--entity CU05--><g class="entity" data-qualified-name="Sistema Theia Officer - Modulo FinOps AWS.Plataforma base .Theia Craft..CU05" data-source-line="11" id="ent0008"><ellipse cx="835.0047" cy="206.1589" fill="#F1F1F1" rx="110.7447" ry="24.5489" style="stroke:#181818;stroke-width:0.5;"/><text fill="#000000" font-family="sans-serif" font-size="14" lengthAdjust="spacing" textLength="42.8887" x="813.5604" y="197.838">CU-05</text><text fill="#000000" font-family="sans-serif" font-size="14" lengthAdjust="spacing" textLength="182.3896" x="743.8099" y="214.1349">Configurar proveedor LLM</text></g><!--entity CU06--><g class="entity" data-qualified-name="Sistema Theia Officer - Modulo FinOps AWS.Plataforma base .Theia Craft..CU06" data-source-line="12" id="ent0009"><ellipse cx="1080.9982" cy="206.162" fill="#F1F1F1" rx="100.2082" ry="23.562" style="stroke:#181818;stroke-width:0.5;"/><text fill="#000000" font-family="sans-serif" font-size="14" lengthAdjust="spacing" textLength="42.8887" x="1059.5538" y="198.9034">CU-06</text><text fill="#000000" font-family="sans-serif" font-size="14" lengthAdjust="spacing" textLength="154.0889" x="1003.9538" y="215.2003">Auditoria de actividad</text></g><!--entity CU07--><g class="entity" data-qualified-name="Sistema Theia Officer - Modulo FinOps AWS.Nuevas misiones FinOps .TFG..CU07" data-source-line="15" id="ent0011"><ellipse cx="1373.0049" cy="206.161" fill="#F1F1F1" rx="136.3049" ry="29.661" style="stroke:#181818;stroke-width:0.5;"/><text fill="#000000" font-family="sans-serif" font-size="14" lengthAdjust="spacing" textLength="42.8887" x="1351.5606" y="194.5125">CU-07</text><text fill="#000000" font-family="sans-serif" font-size="14" lengthAdjust="spacing" textLength="253.8525" x="1246.0787" y="210.8094">Dashboard consolidado de costes IA</text></g><!--entity CU08--><g class="entity" data-qualified-name="Sistema Theia Officer - Modulo FinOps AWS.Nuevas misiones FinOps .TFG..CU08" data-source-line="16" id="ent0012"><ellipse cx="1661.0001" cy="206.158" fill="#F1F1F1" rx="116.5901" ry="25.718" style="stroke:#181818;stroke-width:0.5;"/><text fill="#000000" font-family="sans-serif" font-size="14" lengthAdjust="spacing" textLength="42.8887" x="1639.5558" y="196.6454">CU-08</text><text fill="#000000" font-family="sans-serif" font-size="14" lengthAdjust="spacing" textLength="202.5693" x="1559.7155" y="212.9423">Detectar anomalias de gasto</text></g><!--entity CU09--><g class="entity" data-qualified-name="Sistema Theia Officer - Modulo FinOps AWS.Nuevas misiones FinOps .TFG..CU09" data-source-line="17" id="ent0013"><ellipse cx="1932.0049" cy="206.163" fill="#F1F1F1" rx="119.0149" ry="26.203" style="stroke:#181818;stroke-width:0.5;"/><text fill="#000000" font-family="sans-serif" font-size="14" lengthAdjust="spacing" textLength="42.8887" x="1910.5606" y="196.1567">CU-09</text><text fill="#000000" font-family="sans-serif" font-size="14" lengthAdjust="spacing" textLength="210.3623" x="1826.8238" y="212.4536">Analizar eficiencia de agentes</text></g><!--entity CU10--><g class="entity" data-qualified-name="Sistema Theia Officer - Modulo FinOps AWS.Nuevas misiones FinOps .TFG..CU10" data-source-line="18" id="ent0014"><ellipse cx="2211.0017" cy="206.1603" fill="#F1F1F1" rx="124.5517" ry="27.3103" style="stroke:#181818;stroke-width:0.5;"/><text fill="#000000" font-family="sans-serif" font-size="14" lengthAdjust="spacing" textLength="42.8887" x="2189.5574" y="195.0282">CU-10</text><text fill="#000000" font-family="sans-serif" font-size="14" lengthAdjust="spacing" textLength="227.1377" x="2097.4329" y="211.3251">Visibilidad coste LLM plataforma</text></g><!--entity CU11--><g class="entity" data-qualified-name="Sistema Theia Officer - Modulo FinOps AWS.Nuevas misiones FinOps .TFG..CU11" data-source-line="19" id="ent0015"><ellipse cx="2510.0007" cy="206.1581" fill="#F1F1F1" rx="139.8407" ry="30.3681" style="stroke:#181818;stroke-width:0.5;"/><text fill="#000000" font-family="sans-serif" font-size="14" lengthAdjust="spacing" textLength="42.8887" x="2488.5563" y="194.5097">CU-11</text><text fill="#000000" font-family="sans-serif" font-size="14" lengthAdjust="spacing" textLength="261.2695" x="2379.3659" y="210.8066">Recomendar optimizacion de modelo</text></g><!--entity CU12--><g class="entity" data-qualified-name="Sistema Theia Officer - Modulo FinOps AWS.Nuevas misiones FinOps .TFG..CU12" data-source-line="20" id="ent0016"><ellipse cx="2804.997" cy="206.1594" fill="#F1F1F1" rx="119.697" ry="26.3394" style="stroke:#181818;stroke-width:0.5;"/><text fill="#000000" font-family="sans-serif" font-size="14" lengthAdjust="spacing" textLength="42.8887" x="2783.5527" y="196.0143">CU-12</text><text fill="#000000" font-family="sans-serif" font-size="14" lengthAdjust="spacing" textLength="212.502" x="2698.7461" y="212.3112">Proyectar tendencia de costes</text></g><!--entity CU13--><g class="entity" data-qualified-name="Sistema Theia Officer - Modulo FinOps AWS.Nuevas misiones FinOps .TFG..CU13" data-source-line="21" id="ent0017"><ellipse cx="3075.996" cy="206.1572" fill="#F1F1F1" rx="116.586" ry="25.7172" style="stroke:#181818;stroke-width:0.5;"/><text fill="#000000" font-family="sans-serif" font-size="14" lengthAdjust="spacing" textLength="42.8887" x="3054.5516" y="196.6454">CU-13</text><text fill="#000000" font-family="sans-serif" font-size="14" lengthAdjust="spacing" textLength="202.5557" x="2974.7181" y="212.9423">Configurar alertas de umbral</text></g><!--entity CU14--><g class="entity" data-qualified-name="Sistema Theia Officer - Modulo FinOps AWS.Nuevas misiones FinOps .TFG..CU14" data-source-line="22" id="ent0018"><ellipse cx="3332.9983" cy="206.1625" fill="#F1F1F1" rx="105.4583" ry="23.5425" style="stroke:#181818;stroke-width:0.5;"/><text fill="#000000" font-family="sans-serif" font-size="14" lengthAdjust="spacing" textLength="42.8887" x="3311.5539" y="198.8719">CU-14</text><text fill="#000000" font-family="sans-serif" font-size="14" lengthAdjust="spacing" textLength="162.5654" x="3251.7156" y="215.1687">Informe de consumo IA</text></g><!--entity CU15--><g class="entity" data-qualified-name="Sistema Theia Officer - Modulo FinOps AWS.Nuevas misiones FinOps .TFG..CU15" data-source-line="23" id="ent0019"><ellipse cx="3583.9989" cy="206.1638" fill="#F1F1F1" rx="110.1189" ry="24.4238" style="stroke:#181818;stroke-width:0.5;"/><text fill="#000000" font-family="sans-serif" font-size="14" lengthAdjust="spacing" textLength="42.8887" x="3562.5546" y="197.9706">CU-15</text><text fill="#000000" font-family="sans-serif" font-size="14" lengthAdjust="spacing" textLength="180.0928" x="3493.9526" y="214.2674">Consolidacion de agentes</text></g><!--entity Admin--><g class="entity" data-qualified-name="Admin" data-source-line="4" id="ent0002"><ellipse cx="1796" cy="14" fill="#F1F1F1" rx="8" ry="8" style="stroke:#181818;stroke-width:0.5;"/><path d="M1796,22 L1796,49 M1783,30 L1809,30 M1796,49 L1783,64 M1796,49 L1809,64" fill="none" style="stroke:#181818;stroke-width:0.5;"/><text fill="#000000" font-family="sans-serif" font-size="14" lengthAdjust="spacing" textLength="99.0801" x="1746.46" y="78.4951">Administrador</text></g><!--link Admin to CU01--><g class="link" data-entity-1="ent0002" data-entity-2="ent0005" data-link-type="dependency" data-source-line="27" id="lnk20"><path d="M1745.97,45.19 C1492.66,48.1 361.02,62.54 292,89.79 C244.08,108.71 205.8433,148.7394 182.9933,176.6194" fill="none" id="Admin-to-CU01" style="stroke:#181818;stroke-width:1;"/><polygon fill="#181818" points="179.19,181.26,187.9887,176.8347,182.3594,177.3929,181.8013,171.7636,179.19,181.26" style="stroke:#181818;stroke-width:1;"/></g><!--link Admin to CU02--><g class="link" data-entity-1="ent0002" data-entity-2="ent0006" data-link-type="dependency" data-source-line="28" id="lnk21"><path d="M1746.32,44.46 C1528.41,43.92 663.1,44.64 551,89.79 C503.62,108.88 466.046,148.8191 443.616,176.6391" fill="none" id="Admin-to-CU02" style="stroke:#181818;stroke-width:1;"/><polygon fill="#181818" points="439.85,181.31,448.6129,176.8142,442.9883,177.4176,442.385,171.793,439.85,181.31" style="stroke:#181818;stroke-width:1;"/></g><!--link Admin to CU04--><g class="link" data-entity-1="ent0002" data-entity-2="ent0007" data-link-type="dependency" data-source-line="29" id="lnk22"><path d="M1746.25,45.46 C1539.01,49.03 752.88,64.2 707,89.79 C670.89,109.94 650.4627,149.0749 639.3927,176.5449" fill="none" id="Admin-to-CU04" style="stroke:#181818;stroke-width:1;"/><polygon fill="#181818" points="637.15,182.11,644.2241,175.2574,639.0189,177.4724,636.8039,172.2672,637.15,182.11" style="stroke:#181818;stroke-width:1;"/></g><!--link Admin to CU05--><g class="link" data-entity-1="ent0002" data-entity-2="ent0008" data-link-type="dependency" data-source-line="30" id="lnk23"><path d="M1746.05,45.42 C1577.34,48.3 1035.14,59.82 963,89.79 C916.04,109.31 878.7611,149.1052 856.4911,176.7852" fill="none" id="Admin-to-CU05" style="stroke:#181818;stroke-width:1;"/><polygon fill="#181818" points="852.73,181.46,861.4882,176.9552,855.8643,177.5643,855.2552,171.9404,852.73,181.46" style="stroke:#181818;stroke-width:1;"/></g><!--link Admin to CU06--><g class="link" data-entity-1="ent0002" data-entity-2="ent0009" data-link-type="dependency" data-source-line="31" id="lnk24"><path d="M1746.19,44.74 C1624.6,45.59 1315.71,51.55 1221,89.79 C1170.77,110.08 1128.8594,150.7252 1104.1194,178.1452" fill="none" id="Admin-to-CU06" style="stroke:#181818;stroke-width:1;"/><polygon fill="#181818" points="1100.1,182.6,1109.0989,178.5974,1103.4495,178.8877,1103.1592,173.2383,1100.1,182.6" style="stroke:#181818;stroke-width:1;"/></g><!--link Admin to CU07--><g class="link" data-entity-1="ent0002" data-entity-2="ent0011" data-link-type="dependency" data-source-line="32" id="lnk25"><path d="M1746.18,46 C1690.64,49.08 1599.15,58.89 1527,89.79 C1478.33,110.64 1435.2953,145.8265 1406.2253,172.7065" fill="none" id="Admin-to-CU07" style="stroke:#181818;stroke-width:1;"/><polygon fill="#181818" points="1401.82,176.78,1411.1436,173.6067,1405.4911,173.3855,1405.7124,167.7329,1401.82,176.78" style="stroke:#181818;stroke-width:1;"/></g><!--link Admin to CU08--><g class="link" data-entity-1="ent0002" data-entity-2="ent0012" data-link-type="dependency" data-source-line="33" id="lnk26"><path d="M1764.35,82.28 C1738.79,112.67 1707.423,149.969 1685.403,176.139" fill="none" id="Admin-to-CU08" style="stroke:#181818;stroke-width:1;"/><polygon fill="#181818" points="1681.54,180.73,1690.3951,176.4188,1684.7591,176.9042,1684.2738,171.2682,1681.54,180.73" style="stroke:#181818;stroke-width:1;"/></g><!--link Admin to CU09--><g class="link" data-entity-1="ent0002" data-entity-2="ent0013" data-link-type="dependency" data-source-line="34" id="lnk27"><path d="M1827.89,82.28 C1853.48,112.49 1884.8102,149.4732 1907.0202,175.6732" fill="none" id="Admin-to-CU09" style="stroke:#181818;stroke-width:1;"/><polygon fill="#181818" points="1910.9,180.25,1908.1315,170.7983,1907.6668,176.436,1902.0291,175.9713,1910.9,180.25" style="stroke:#181818;stroke-width:1;"/></g><!--link Admin to CU10--><g class="link" data-entity-1="ent0002" data-entity-2="ent0014" data-link-type="dependency" data-source-line="35" id="lnk28"><path d="M1846.03,45.3 C1902.52,47.73 1996.07,56.95 2069,89.79 C2116.21,111.05 2156.686,147.7095 2182.906,174.6595" fill="none" id="Admin-to-CU10" style="stroke:#181818;stroke-width:1;"/><polygon fill="#181818" points="2187.09,178.96,2183.681,169.7199,2183.6033,175.3763,2177.947,175.2986,2187.09,178.96" style="stroke:#181818;stroke-width:1;"/></g><!--link Admin to CU11--><g class="link" data-entity-1="ent0002" data-entity-2="ent0015" data-link-type="dependency" data-source-line="36" id="lnk29"><path d="M1845.87,45.22 C1964.56,47.14 2260.75,55.35 2353,89.79 C2403.38,108.6 2447.3734,144.4457 2476.7834,172.0257" fill="none" id="Admin-to-CU11" style="stroke:#181818;stroke-width:1;"/><polygon fill="#181818" points="2481.16,176.13,2477.3313,167.0558,2477.5128,172.7098,2471.8589,172.8913,2481.16,176.13" style="stroke:#181818;stroke-width:1;"/></g><!--link Admin to CU12--><g class="link" data-entity-1="ent0002" data-entity-2="ent0016" data-link-type="dependency" data-source-line="37" id="lnk30"><path d="M1845.76,45.39 C2019.19,48.24 2590.62,59.81 2667,89.79 C2715.54,108.85 2755.4958,147.6538 2780.1758,175.4438" fill="none" id="Admin-to-CU12" style="stroke:#181818;stroke-width:1;"/><polygon fill="#181818" points="2784.16,179.93,2781.1746,170.5445,2780.8399,176.1915,2775.1929,175.8568,2784.16,179.93" style="stroke:#181818;stroke-width:1;"/></g><!--link Admin to CU13--><g class="link" data-entity-1="ent0002" data-entity-2="ent0017" data-link-type="dependency" data-source-line="38" id="lnk31"><path d="M1845.83,44.68 C2052.88,45.09 2839.18,49.31 2942,89.79 C2989.99,108.69 3028.8133,147.8991 3052.5033,175.7591" fill="none" id="Admin-to-CU13" style="stroke:#181818;stroke-width:1;"/><polygon fill="#181818" points="3056.39,180.33,3053.6071,170.8825,3053.151,176.5209,3047.5126,176.0648,3056.39,180.33" style="stroke:#181818;stroke-width:1;"/></g><!--link Admin to CU14--><g class="link" data-entity-1="ent0002" data-entity-2="ent0018" data-link-type="dependency" data-source-line="39" id="lnk32"><path d="M1845.85,45.25 C2089.47,48.34 3145.79,63.2 3210,89.79 C3256.8,109.17 3292.9147,150.2539 3313.7447,177.9639" fill="none" id="Admin-to-CU14" style="stroke:#181818;stroke-width:1;"/><polygon fill="#181818" points="3317.35,182.76,3315.1395,173.1624,3314.3456,178.7633,3308.7447,177.9694,3317.35,182.76" style="stroke:#181818;stroke-width:1;"/></g><!--link Admin to CU15--><g class="link" data-entity-1="ent0002" data-entity-2="ent0019" data-link-type="dependency" data-source-line="40" id="lnk33"><path d="M1845.82,45.03 C2114.29,47.23 3379.46,59.19 3456,89.79 C3503.5,108.79 3540.9204,149.18 3563.0204,177.03" fill="none" id="Admin-to-CU15" style="stroke:#181818;stroke-width:1;"/><polygon fill="#181818" points="3566.75,181.73,3564.2889,172.1936,3563.642,177.8133,3558.0222,177.1664,3566.75,181.73" style="stroke:#181818;stroke-width:1;"/></g><?plantuml-src RPDFRzim3CNl_XH4JjqXG9JcxsL0aA53WNOjbhQxv29BJ2hK5Wr93j0D_UwZx3Yhe1rfyISzFZu7QY0Gb1G2rQ2DGnKCsSA_6Tj89sjef7gJHzo5zmeX7ajxhB0ef0haOBJHjR761oSrkH583zsNehYqmcZ7vrXBU7f58-7XS30A7OpXddHR4TmO-z0mzsitWZy5m2VoiP917iWnN4gFSDLViNNo4BxqtG2jHnKFHzldyKJixKyyTe8SA8SQhJAomlFzh6_xF14vDztRR-XLMphZWEUrWH6qdwbfJitsTjC6RZPAEez3vopldE_jbkp17Dieh75qGcJ7uExkVg3cERM8zsl3JlFK6e5DDoUZfHwO1JCVgMS_MZpnOMqyBvA7EDjxzNJp_V-MBNbqwLzBaaw38kkfYazGV52HZqRSReO7bpc_YjQ5A82TirJBod0lmqVf0mtWAWVNF9tbxjyC8eV2TBlgvkmNCB3hZ1MJlNtX2KlJQUrrHZEXkKJcJ8j9JdSfKLIZrVmsDS7Kh4AnOV7rcZHMWt2HXqLmM1uTlVSZy_hrHNZlru3cYH7NIGuuc2xqPhLrwMGraDSvoLcxjN4mx1-olgtftsP47ZhHXwxVvp1SQgsOTm7wA8hkjuNn-6l_WoJbD2rdQJbFoqLQBjDobPRhfEHL9MKgGwGosAEaJ5M9-Ly0?></g></svg>