<svg xmlns="http://www.w3.org/2000/svg" xmlns:xlink="http://www.w3.org/1999/xlink" contentStyleType="text/css" data-diagram-type="STATE" height="614px" preserveAspectRatio="none" style="width:798px;height:614px;background:#FFFFFF;" version="1.1" viewBox="0 0 798 614" width="798px" zoomAndPan="magnify"><?plantuml 1.2026.3beta6?><defs/><g><g class="start_entity" data-qualified-name=".start." data-source-line="3" id="ent0002"><ellipse cx="488.62" cy="16" fill="#222222" rx="10" ry="10" style="stroke:#222222;stroke-width:1;"/></g><rect fill="#F1F1F1" height="40" rx="12.5" ry="12.5" style="stroke:#181818;stroke-width:0.5;" width="67.7842" x="454.73" y="103"/><text fill="#000000" font-family="sans-serif" font-size="14" lengthAdjust="spacing" textLength="57.7842" x="459.73" y="127.8467">creating</text><rect fill="#F1F1F1" height="40" rx="12.5" ry="12.5" style="stroke:#181818;stroke-width:0.5;" width="52.5537" x="267.34" y="220"/><text fill="#000000" font-family="sans-serif" font-size="14" lengthAdjust="spacing" textLength="42.5537" x="272.34" y="244.8467">active</text><rect fill="#F1F1F1" height="40" rx="12.5" ry="12.5" style="stroke:#181818;stroke-width:0.5;" width="50" x="619.62" y="290"/><text fill="#000000" font-family="sans-serif" font-size="14" lengthAdjust="spacing" textLength="38.7871" x="625.2264" y="314.8467">failed</text><rect fill="#F1F1F1" height="40" rx="12.5" ry="12.5" style="stroke:#181818;stroke-width:0.5;" width="65.3164" x="209.96" y="360"/><text fill="#000000" font-family="sans-serif" font-size="14" lengthAdjust="spacing" textLength="55.3164" x="214.96" y="384.8467">inactive</text><rect fill="#F1F1F1" height="40" rx="12.5" ry="12.5" style="stroke:#181818;stroke-width:0.5;" width="72.3574" x="390.44" y="477"/><text fill="#000000" font-family="sans-serif" font-size="14" lengthAdjust="spacing" textLength="62.3574" x="395.44" y="501.8467">removed</text><g class="end_entity" data-qualified-name=".end." data-source-line="15" id="ent0016"><ellipse cx="426.62" cy="589" fill="none" rx="11" ry="11" style="stroke:#222222;stroke-width:1;"/><ellipse cx="426.62" cy="589" fill="#222222" rx="6" ry="6" style="stroke:#222222;stroke-width:1;"/></g><!--link *start* to creating--><g class="link" data-entity-1="ent0002" data-entity-2="ent0003" data-link-type="dependency" data-source-line="3" id="lnk4"><path d="M488.62,26.32 C488.62,43.38 488.62,73.98 488.62,96.64" fill="none" id="*start*-to-creating" style="stroke:#181818;stroke-width:1;"/><polygon fill="#181818" points="488.62,102.64,492.62,93.64,488.62,97.64,484.62,93.64,488.62,102.64" style="stroke:#181818;stroke-width:1;"/><text fill="#000000" font-family="sans-serif" font-size="13" lengthAdjust="spacing" textLength="134.2085" x="489.62" y="69.0669">CREATING (Bedrock)</text></g><!--link creating to active--><g class="link" data-entity-1="ent0003" data-entity-2="ent0005" data-link-type="dependency" data-source-line="5" id="lnk6"><path d="M455.98,143.25 C417.82,165.76 360.5577,199.5212 325.2677,220.3412" fill="none" id="creating-to-active" style="stroke:#181818;stroke-width:1;"/><polygon fill="#181818" points="320.1,223.39,329.884,222.262,324.4064,220.8494,325.819,215.3717,320.1,223.39" style="stroke:#181818;stroke-width:1;"/><text fill="#000000" font-family="sans-serif" font-size="13" lengthAdjust="spacing" textLength="136.4937" x="403.62" y="186.0669">PREPARED (Bedrock)</text></g><!--link creating to failed--><g class="link" data-entity-1="ent0003" data-entity-2="ent0007" data-link-type="dependency" data-source-line="6" id="lnk8"><path d="M515.36,143.31 C526.26,151.8 538.62,162.28 548.62,173 C583.9,210.84 613.6829,257.1112 630.2629,284.6212" fill="none" id="creating-to-failed" style="stroke:#181818;stroke-width:1;"/><polygon fill="#181818" points="633.36,289.76,632.1402,279.987,630.7791,285.4776,625.2884,284.1165,633.36,289.76" style="stroke:#181818;stroke-width:1;"/><text fill="#000000" font-family="sans-serif" font-size="13" lengthAdjust="spacing" textLength="112.1123" x="563.62" y="186.0669">Error en creacion</text></g><!--link active to inactive--><g class="link" data-entity-1="ent0005" data-entity-2="ent0009" data-link-type="dependency" data-source-line="8" id="lnk10"><path d="M266.99,242.3 C209.88,245.69 78.62,256.98 51.62,290 C6,345.79 137.7382,367.7441 203.6282,375.2141" fill="none" id="active-to-inactive" style="stroke:#181818;stroke-width:1;"/><polygon fill="#181818" points="209.59,375.89,201.0979,370.9016,204.6218,375.3268,200.1967,378.8507,209.59,375.89" style="stroke:#181818;stroke-width:1;"/><text fill="#000000" font-family="sans-serif" font-size="13" lengthAdjust="spacing" textLength="170.8916" x="52.62" y="314.5669">NOT_PREPARED (Bedrock)</text></g><!--link inactive to active--><g class="link" data-entity-1="ent0009" data-entity-2="ent0005" data-link-type="dependency" data-source-line="9" id="lnk11"><path d="M245.36,359.7 C248.38,341.3 254.13,313.05 263.62,290 C267.87,279.67 270.8684,274.023 276.5784,265.283" fill="none" id="inactive-to-active" style="stroke:#181818;stroke-width:1;"/><polygon fill="#181818" points="279.86,260.26,271.5889,265.6068,277.1253,264.4459,278.2862,269.9823,279.86,260.26" style="stroke:#181818;stroke-width:1;"/><text fill="#000000" font-family="sans-serif" font-size="13" lengthAdjust="spacing" textLength="135.9731" x="264.62" y="314.5669">Agente re-preparado</text></g><!--link active to removed--><g class="link" data-entity-1="ent0005" data-entity-2="ent0012" data-link-type="dependency" data-source-line="11" id="lnk13"><path d="M320.36,245.02 C346.35,250.44 384.74,262.78 404.62,290 C426.1,319.41 427.4141,425.1902 427.0041,470.6202" fill="none" id="active-to-removed" style="stroke:#181818;stroke-width:1;"/><polygon fill="#181818" points="426.95,476.62,431.0311,467.6565,426.9951,471.6202,423.0314,467.5843,426.95,476.62" style="stroke:#181818;stroke-width:1;"/><text fill="#000000" font-family="sans-serif" font-size="13" lengthAdjust="spacing" textLength="159.0405" x="425.62" y="384.5669">Eliminado del proveedor</text></g><!--link inactive to removed--><g class="link" data-entity-1="ent0009" data-entity-2="ent0012" data-link-type="dependency" data-source-line="12" id="lnk14"><path d="M235.61,400.34 C231.74,414.68 229.53,433.92 239.62,447 C257.87,470.65 335.2038,484.2987 384.2538,490.9087" fill="none" id="inactive-to-removed" style="stroke:#181818;stroke-width:1;"/><polygon fill="#181818" points="390.2,491.71,381.8148,486.5439,385.2448,491.0422,380.7464,494.4722,390.2,491.71" style="stroke:#181818;stroke-width:1;"/><text fill="#000000" font-family="sans-serif" font-size="13" lengthAdjust="spacing" textLength="159.0405" x="240.62" y="443.0669">Eliminado del proveedor</text></g><!--link failed to removed--><g class="link" data-entity-1="ent0007" data-entity-2="ent0012" data-link-type="dependency" data-source-line="13" id="lnk15"><path d="M637.63,330.32 C629.8,349.8 615.57,379.79 595.62,400 C557.34,438.79 505.6386,464.5327 468.5986,479.9627" fill="none" id="failed-to-removed" style="stroke:#181818;stroke-width:1;"/><polygon fill="#181818" points="463.06,482.27,472.9061,482.5015,467.6755,480.3473,469.8298,475.1167,463.06,482.27" style="stroke:#181818;stroke-width:1;"/><text fill="#000000" font-family="sans-serif" font-size="13" lengthAdjust="spacing" textLength="159.0405" x="623.62" y="384.5669">Eliminado del proveedor</text></g><!--link removed to *end*--><g class="link" data-entity-1="ent0012" data-entity-2="ent0016" data-link-type="dependency" data-source-line="15" id="lnk17"><path d="M426.62,517.09 C426.62,535.66 426.62,557.17 426.62,571.87" fill="none" id="removed-to-*end*" style="stroke:#181818;stroke-width:1;"/><polygon fill="#181818" points="426.62,577.87,430.62,568.87,426.62,572.87,422.62,568.87,426.62,577.87" style="stroke:#181818;stroke-width:1;"/></g><?plantuml-src ZT112i8m48NXVKunInLw0HT2rI9kQYdTYKX8nZhO9c4C1MzlMcin8EWs-VWVoPKq0hREFq3ZNJ4vJzO8SLoS84bMe1Yb9rF34ZPbbbRxV0UpDMgswZONOhhkhLIUEWooABCYBRFjXupWHLA3Ei2CsJAW6MRKC3n6UaPcAkQ7wlobEebeFgtHU0J6n34woLBRgClOskwrtr0R6jg6npVWE1oZjXntV_FnFVzXyIOz3z_y1000?></g></svg>