<svg xmlns="http://www.w3.org/2000/svg" xmlns:xlink="http://www.w3.org/1999/xlink" contentStyleType="text/css" data-diagram-type="STATE" height="788px" preserveAspectRatio="none" style="width:885px;height:788px;background:#FFFFFF;" version="1.1" viewBox="0 0 885 788" width="885px" zoomAndPan="magnify"><?plantuml 1.2026.3beta6?><defs/><g><g class="start_entity" data-qualified-name=".start." data-source-line="3" id="ent0002"><ellipse cx="461.73" cy="16" fill="#222222" rx="10" ry="10" style="stroke:#222222;stroke-width:1;"/></g><rect fill="#F1F1F1" height="40" rx="12.5" ry="12.5" style="stroke:#181818;stroke-width:0.5;" width="66.9092" x="428.28" y="103"/><text fill="#000000" font-family="sans-serif" font-size="14" lengthAdjust="spacing" textLength="56.9092" x="433.28" y="127.8467">pending</text><rect fill="#F1F1F1" height="40" rx="12.5" ry="12.5" style="stroke:#181818;stroke-width:0.5;" width="90.8145" x="416.32" y="220"/><text fill="#000000" font-family="sans-serif" font-size="14" lengthAdjust="spacing" textLength="80.8145" x="421.32" y="244.8467">in_progress</text><rect fill="#F1F1F1" height="40" rx="12.5" ry="12.5" style="stroke:#181818;stroke-width:0.5;" width="127.4619" x="7" y="337"/><text fill="#000000" font-family="sans-serif" font-size="14" lengthAdjust="spacing" textLength="117.4619" x="12" y="361.8467">partial_complete</text><rect fill="#F1F1F1" height="40" rx="12.5" ry="12.5" style="stroke:#181818;stroke-width:0.5;" width="75.3926" x="264.03" y="337"/><text fill="#000000" font-family="sans-serif" font-size="14" lengthAdjust="spacing" textLength="65.3926" x="269.03" y="361.8467">complete</text><rect fill="#F1F1F1" height="40" rx="12.5" ry="12.5" style="stroke:#181818;stroke-width:0.5;" width="50" x="594.73" y="407"/><text fill="#000000" font-family="sans-serif" font-size="14" lengthAdjust="spacing" textLength="38.7871" x="600.3364" y="431.8467">failed</text><rect fill="#F1F1F1" height="40" rx="12.5" ry="12.5" style="stroke:#181818;stroke-width:0.5;" width="89.8711" x="702.8" y="547"/><text fill="#000000" font-family="sans-serif" font-size="14" lengthAdjust="spacing" textLength="79.8711" x="707.8" y="571.8467">rolled_back</text><rect fill="#F1F1F1" height="40" rx="12.5" ry="12.5" style="stroke:#181818;stroke-width:0.5;" width="134.7012" x="218.38" y="477"/><text fill="#000000" font-family="sans-serif" font-size="14" lengthAdjust="spacing" textLength="124.7012" x="223.38" y="501.8467">waiting_reduction</text><rect fill="#F1F1F1" height="40" rx="12.5" ry="12.5" style="stroke:#181818;stroke-width:0.5;" width="86.4258" x="242.52" y="617"/><text fill="#000000" font-family="sans-serif" font-size="14" lengthAdjust="spacing" textLength="76.4258" x="247.52" y="641.8467">monitoring</text><rect fill="#F1F1F1" height="40" rx="12.5" ry="12.5" style="stroke:#181818;stroke-width:0.5;" width="77.1084" x="162.18" y="734"/><text fill="#000000" font-family="sans-serif" font-size="14" lengthAdjust="spacing" textLength="67.1084" x="167.18" y="758.8467">degraded</text><g class="end_entity" data-qualified-name=".end." data-source-line="19" id="ent0023"><ellipse cx="626.73" cy="754" fill="none" rx="11" ry="11" style="stroke:#222222;stroke-width:1;"/><ellipse cx="626.73" cy="754" fill="#222222" rx="6" ry="6" style="stroke:#222222;stroke-width:1;"/></g><!--link *start* to pending--><g class="link" data-entity-1="ent0002" data-entity-2="ent0003" data-link-type="dependency" data-source-line="3" id="lnk4"><path d="M461.73,26.32 C461.73,43.38 461.73,73.98 461.73,96.64" fill="none" id="*start*-to-pending" style="stroke:#181818;stroke-width:1;"/><polygon fill="#181818" points="461.73,102.64,465.73,93.64,461.73,97.64,457.73,93.64,461.73,102.64" style="stroke:#181818;stroke-width:1;"/><text fill="#000000" font-family="sans-serif" font-size="13" lengthAdjust="spacing" textLength="90.2129" x="462.73" y="69.0669">Mision creada</text></g><!--link pending to in_progress--><g class="link" data-entity-1="ent0003" data-entity-2="ent0005" data-link-type="dependency" data-source-line="5" id="lnk6"><path d="M461.73,143.25 C461.73,164.48 461.73,192.44 461.73,213.69" fill="none" id="pending-to-in_progress" style="stroke:#181818;stroke-width:1;"/><polygon fill="#181818" points="461.73,219.69,465.73,210.69,461.73,214.69,457.73,210.69,461.73,219.69" style="stroke:#181818;stroke-width:1;"/><text fill="#000000" font-family="sans-serif" font-size="13" lengthAdjust="spacing" textLength="139.9277" x="462.73" y="186.0669">Roles IAM adjuntados</text></g><!--link in_progress to partial_complete--><g class="link" data-entity-1="ent0005" data-entity-2="ent0007" data-link-type="dependency" data-source-line="7" id="lnk8"><path d="M415.93,240.21 C324.95,239.66 126.19,243.91 79.73,290 C67.74,301.89 66.0355,315.708 67.1855,330.518" fill="none" id="in_progress-to-partial_complete" style="stroke:#181818;stroke-width:1;"/><polygon fill="#181818" points="67.65,336.5,70.9412,327.2173,67.2629,331.515,62.9653,327.8367,67.65,336.5" style="stroke:#181818;stroke-width:1;"/><text fill="#000000" font-family="sans-serif" font-size="13" lengthAdjust="spacing" textLength="208.1079" x="80.73" y="303.0669">Algunos proyectos completados</text></g><!--link in_progress to complete--><g class="link" data-entity-1="ent0005" data-entity-2="ent0009" data-link-type="dependency" data-source-line="8" id="lnk10"><path d="M415.99,241.87 C379.63,245.24 330.71,256.31 304.73,290 C294.65,303.08 294.0501,316.3994 296.2501,330.7394" fill="none" id="in_progress-to-complete" style="stroke:#181818;stroke-width:1;"/><polygon fill="#181818" points="297.16,336.67,299.749,327.1675,296.4018,331.7278,291.8415,328.3807,297.16,336.67" style="stroke:#181818;stroke-width:1;"/><text fill="#000000" font-family="sans-serif" font-size="13" lengthAdjust="spacing" textLength="266.5444" x="305.73" y="303.0669">Todos los proyectos completados (quick)</text></g><!--link in_progress to failed--><g class="link" data-entity-1="ent0005" data-entity-2="ent0011" data-link-type="dependency" data-source-line="9" id="lnk12"><path d="M507.5,250.76 C531.1,257.96 558.64,270.07 576.73,290 C607.02,323.37 615.4325,372.055 618.0725,400.865" fill="none" id="in_progress-to-failed" style="stroke:#181818;stroke-width:1;"/><polygon fill="#181818" points="618.62,406.84,621.782,397.5125,618.1637,401.8609,613.8154,398.2426,618.62,406.84" style="stroke:#181818;stroke-width:1;"/><text fill="#000000" font-family="sans-serif" font-size="13" lengthAdjust="spacing" textLength="123.4429" x="588.73" y="303.0669">Error irrecuperable</text></g><!--link in_progress to rolled_back--><g class="link" data-entity-1="ent0005" data-entity-2="ent0013" data-link-type="dependency" data-source-line="10" id="lnk14"><path d="M507.37,243.23 C573.91,247.5 692.67,259.31 720.73,290 C787.49,363.02 765.838,490.818 754.158,540.698" fill="none" id="in_progress-to-rolled_back" style="stroke:#181818;stroke-width:1;"/><polygon fill="#181818" points="752.79,546.54,758.7366,538.689,753.93,541.6717,750.9473,536.8651,752.79,546.54" style="stroke:#181818;stroke-width:1;"/><text fill="#000000" font-family="sans-serif" font-size="13" lengthAdjust="spacing" textLength="107.9229" x="761.73" y="361.5669">Rollback manual</text></g><!--link partial_complete to waiting_reduction--><g class="link" data-entity-1="ent0007" data-entity-2="ent0015" data-link-type="dependency" data-source-line="12" id="lnk16"><path d="M78.02,377.16 C86.67,397.38 102.97,428.78 126.73,447 C153.09,467.21 182.0149,477.7953 212.3049,484.8153" fill="none" id="partial_complete-to-waiting_reduction" style="stroke:#181818;stroke-width:1;"/><polygon fill="#181818" points="218.15,486.17,210.2855,480.2413,213.2791,485.0411,208.4793,488.0347,218.15,486.17" style="stroke:#181818;stroke-width:1;"/><text fill="#000000" font-family="sans-serif" font-size="13" lengthAdjust="spacing" textLength="156.8315" x="127.73" y="431.5669">Roles mission reducidos</text></g><!--link complete to waiting_reduction--><g class="link" data-entity-1="ent0009" data-entity-2="ent0015" data-link-type="dependency" data-source-line="13" id="lnk17"><path d="M299.47,377.48 C296.42,403.78 291.7102,444.4098 288.6702,470.6598" fill="none" id="complete-to-waiting_reduction" style="stroke:#181818;stroke-width:1;"/><polygon fill="#181818" points="287.98,476.62,292.9888,468.1399,288.5552,471.6532,285.0419,467.2196,287.98,476.62" style="stroke:#181818;stroke-width:1;"/><text fill="#000000" font-family="sans-serif" font-size="13" lengthAdjust="spacing" textLength="156.8315" x="296.73" y="431.5669">Roles mission reducidos</text></g><!--link waiting_reduction to monitoring--><g class="link" data-entity-1="ent0015" data-entity-2="ent0018" data-link-type="dependency" data-source-line="15" id="lnk19"><path d="M285.73,517.48 C285.73,543.78 285.73,584.37 285.73,610.62" fill="none" id="waiting_reduction-to-monitoring" style="stroke:#181818;stroke-width:1;"/><polygon fill="#181818" points="285.73,616.62,289.73,607.62,285.73,611.62,281.73,607.62,285.73,616.62" style="stroke:#181818;stroke-width:1;"/><text fill="#000000" font-family="sans-serif" font-size="13" lengthAdjust="spacing" textLength="157.8726" x="286.73" y="571.5669">Mision ongoing activada</text></g><!--link monitoring to degraded--><g class="link" data-entity-1="ent0018" data-entity-2="ent0020" data-link-type="dependency" data-source-line="16" id="lnk21"><path d="M242.41,644.25 C196.46,651.87 128.36,666.33 112.73,687 C94.94,710.54 125.0415,727.6214 156.1815,739.1214" fill="none" id="monitoring-to-degraded" style="stroke:#181818;stroke-width:1;"/><polygon fill="#181818" points="161.81,741.2,154.753,734.3298,157.1196,739.4678,151.9816,741.8344,161.81,741.2" style="stroke:#181818;stroke-width:1;"/><text fill="#000000" font-family="sans-serif" font-size="13" lengthAdjust="spacing" textLength="128.5972" x="113.73" y="700.0669">Health check fallido</text></g><!--link degraded to monitoring--><g class="link" data-entity-1="ent0020" data-entity-2="ent0018" data-link-type="dependency" data-source-line="17" id="lnk22"><path d="M220.58,733.85 C229.1,725.14 238.89,714.45 246.73,704 C257.83,689.2 265.5266,676.2981 272.8466,662.7581" fill="none" id="degraded-to-monitoring" style="stroke:#181818;stroke-width:1;"/><polygon fill="#181818" points="275.7,657.48,267.9011,663.4948,273.3221,661.8784,274.9386,667.2994,275.7,657.48" style="stroke:#181818;stroke-width:1;"/><text fill="#000000" font-family="sans-serif" font-size="13" lengthAdjust="spacing" textLength="163.5093" x="258.73" y="700.0669">Health check recuperado</text></g><!--link failed to *end*--><g class="link" data-entity-1="ent0011" data-entity-2="ent0023" data-link-type="dependency" data-source-line="19" id="lnk24"><path d="M620.15,447.36 C621.47,508.58 625.3911,690.6714 626.3811,736.7414" fill="none" id="failed-to-*end*" style="stroke:#181818;stroke-width:1;"/><polygon fill="#181818" points="626.51,742.74,630.3157,733.6561,626.4026,737.7412,622.3176,733.828,626.51,742.74" style="stroke:#181818;stroke-width:1;"/></g><!--link rolled_back to *end*--><g class="link" data-entity-1="ent0013" data-entity-2="ent0023" data-link-type="dependency" data-source-line="20" id="lnk25"><path d="M735.01,587.45 C709.04,627.15 654.1036,711.1382 635.7036,739.2782" fill="none" id="rolled_back-to-*end*" style="stroke:#181818;stroke-width:1;"/><polygon fill="#181818" points="632.42,744.3,640.6932,738.9564,635.1563,740.1152,633.9976,734.5783,632.42,744.3" style="stroke:#181818;stroke-width:1;"/></g><!--link monitoring to *end*--><g class="link" data-entity-1="ent0018" data-entity-2="ent0023" data-link-type="dependency" data-source-line="21" id="lnk26"><path d="M329.27,652.68 C408.81,679.51 567.715,733.0916 610.625,747.5716" fill="none" id="monitoring-to-*end*" style="stroke:#181818;stroke-width:1;"/><polygon fill="#181818" points="616.31,749.49,609.0614,742.8223,611.5725,747.8913,606.5035,750.4024,616.31,749.49" style="stroke:#181818;stroke-width:1;"/><text fill="#000000" font-family="sans-serif" font-size="13" lengthAdjust="spacing" textLength="111.833" x="476.73" y="700.0669">Mision cancelada</text></g><?plantuml-src dPAnJWCn38RtF8L7GEeBC21rG8AX2sAhqCbDtAkfBpcS7AXlZtEqvTeJ2riKV_yV-uzt70Yewyi10cMlt1TEqRdrtHii5W_GKmmSMxY75MUhW5V2WCwT2XNYsFIQMgMS3Nn9GXcUbol0y3x4WY5bvwRCQ8nQ6ANngUk52fbmAUqGKmRZ3kIBdOx5qU7QO29yJGQ0_2M5cu-1_VvsPh555WfcyAYQ55YL_D2JuaPe1ciIWviD-ltFa38UEum3YkLnFK_LV24N2wbH2eElmPxZwJYFSOuLhlFzM-ZcSBNeKkIIzEBpKcnJlK33FkitJg2g2TGgXZ6I9q8fE_0xiY6tA69lkNDzzi05VehH5EwOSHNOJhbfYgUxgoRgwlsk6qPFOgr-0m00?></g></svg>