<svg xmlns="http://www.w3.org/2000/svg" xmlns:xlink="http://www.w3.org/1999/xlink" contentStyleType="text/css" data-diagram-type="DESCRIPTION" height="398px" preserveAspectRatio="none" style="width:879px;height:398px;background:#FFFFFF;" version="1.1" viewBox="0 0 879 398" width="879px" zoomAndPan="magnify"><?plantuml 1.2026.3beta6?><defs/><g><g class="title" data-source-line="3"><text fill="#000000" font-family="sans-serif" font-size="14" font-weight="700" lengthAdjust="spacing" textLength="280.3145" x="295.8428" y="22.9951">Paquetes frontend - Modulo FinOps</text></g><!--cluster app/(dashboard)/costs--><g class="cluster" data-qualified-name="app..dashboard..costs" data-source-line="5" id="ent0002"><rect fill="none" height="97.3" rx="2.5" ry="2.5" style="stroke:#181818;stroke-width:1;" width="193" x="316" y="44.2969"/><text fill="#000000" font-family="sans-serif" font-size="14" font-weight="700" lengthAdjust="spacing" textLength="177.5703" x="323.7148" y="59.292">app/(dashboard)/costs</text></g><!--cluster components/costs--><g class="cluster" data-qualified-name="components.costs" data-source-line="9" id="ent0004"><rect fill="none" height="97.29" rx="2.5" ry="2.5" style="stroke:#181818;stroke-width:1;" width="694" x="7" y="165.5969"/><text fill="#000000" font-family="sans-serif" font-size="14" font-weight="700" lengthAdjust="spacing" textLength="142.9873" x="282.5063" y="180.592">components/costs</text></g><!--cluster hooks--><g class="cluster" data-qualified-name="hooks" data-source-line="17" id="ent0010"><rect fill="none" height="97.29" rx="2.5" ry="2.5" style="stroke:#181818;stroke-width:1;" width="140" x="725" y="165.5969"/><text fill="#000000" font-family="sans-serif" font-size="14" font-weight="700" lengthAdjust="spacing" textLength="46.8467" x="771.5767" y="180.592">hooks</text></g><!--cluster lib--><g class="cluster" data-qualified-name="lib" data-source-line="21" id="ent0012"><rect fill="none" height="97.3" rx="2.5" ry="2.5" style="stroke:#181818;stroke-width:1;" width="250" x="607" y="286.8869"/><text fill="#000000" font-family="sans-serif" font-size="14" font-weight="700" lengthAdjust="spacing" textLength="19.6191" x="722.1904" y="301.882">lib</text></g><!--entity Page--><g class="entity" data-qualified-name="app..dashboard..costs.Page" data-source-line="6" id="ent0003"><rect fill="#F1F1F1" height="46.2969" rx="2.5" ry="2.5" style="stroke:#181818;stroke-width:0.5;" width="100.4844" x="361.76" y="79.2969"/><rect fill="#F1F1F1" height="10" style="stroke:#181818;stroke-width:0.5;" width="15" x="442.2444" y="84.2969"/><rect fill="#F1F1F1" height="2" style="stroke:#181818;stroke-width:0.5;" width="4" x="440.2444" y="86.2969"/><rect fill="#F1F1F1" height="2" style="stroke:#181818;stroke-width:0.5;" width="4" x="440.2444" y="90.2969"/><text fill="#000000" font-family="sans-serif" font-size="14" lengthAdjust="spacing" textLength="60.4844" x="376.76" y="112.292">page.tsx</text></g><!--entity KPIs--><g class="entity" data-qualified-name="components.costs.KPIs" data-source-line="10" id="ent0005"><rect fill="#F1F1F1" height="46.2969" rx="2.5" ry="2.5" style="stroke:#181818;stroke-width:0.5;" width="69.0459" x="23.48" y="200.5969"/><rect fill="#F1F1F1" height="10" style="stroke:#181818;stroke-width:0.5;" width="15" x="72.5259" y="205.5969"/><rect fill="#F1F1F1" height="2" style="stroke:#181818;stroke-width:0.5;" width="4" x="70.5259" y="207.5969"/><rect fill="#F1F1F1" height="2" style="stroke:#181818;stroke-width:0.5;" width="4" x="70.5259" y="211.5969"/><text fill="#000000" font-family="sans-serif" font-size="14" lengthAdjust="spacing" textLength="29.0459" x="38.48" y="233.592">KPIs</text></g><!--entity Trend--><g class="entity" data-qualified-name="components.costs.Trend" data-source-line="11" id="ent0006"><rect fill="#F1F1F1" height="46.2969" rx="2.5" ry="2.5" style="stroke:#181818;stroke-width:0.5;" width="119.1533" x="127.42" y="200.5969"/><rect fill="#F1F1F1" height="10" style="stroke:#181818;stroke-width:0.5;" width="15" x="226.5733" y="205.5969"/><rect fill="#F1F1F1" height="2" style="stroke:#181818;stroke-width:0.5;" width="4" x="224.5733" y="207.5969"/><rect fill="#F1F1F1" height="2" style="stroke:#181818;stroke-width:0.5;" width="4" x="224.5733" y="211.5969"/><text fill="#000000" font-family="sans-serif" font-size="14" lengthAdjust="spacing" textLength="79.1533" x="142.42" y="233.592">TrendChart</text></g><!--entity Breakdown--><g class="entity" data-qualified-name="components.costs.Breakdown" data-source-line="12" id="ent0007"><rect fill="#F1F1F1" height="46.2969" rx="2.5" ry="2.5" style="stroke:#181818;stroke-width:0.5;" width="118.4355" x="281.78" y="200.5969"/><rect fill="#F1F1F1" height="10" style="stroke:#181818;stroke-width:0.5;" width="15" x="380.2155" y="205.5969"/><rect fill="#F1F1F1" height="2" style="stroke:#181818;stroke-width:0.5;" width="4" x="378.2155" y="207.5969"/><rect fill="#F1F1F1" height="2" style="stroke:#181818;stroke-width:0.5;" width="4" x="378.2155" y="211.5969"/><text fill="#000000" font-family="sans-serif" font-size="14" lengthAdjust="spacing" textLength="78.4355" x="296.78" y="233.592">Breakdown</text></g><!--entity Insights--><g class="entity" data-qualified-name="components.costs.Insights" data-source-line="13" id="ent0008"><rect fill="#F1F1F1" height="46.2969" rx="2.5" ry="2.5" style="stroke:#181818;stroke-width:0.5;" width="94.7285" x="435.64" y="200.5969"/><rect fill="#F1F1F1" height="10" style="stroke:#181818;stroke-width:0.5;" width="15" x="510.3685" y="205.5969"/><rect fill="#F1F1F1" height="2" style="stroke:#181818;stroke-width:0.5;" width="4" x="508.3685" y="207.5969"/><rect fill="#F1F1F1" height="2" style="stroke:#181818;stroke-width:0.5;" width="4" x="508.3685" y="211.5969"/><text fill="#000000" font-family="sans-serif" font-size="14" lengthAdjust="spacing" textLength="54.7285" x="450.64" y="233.592">Insights</text></g><!--entity Table--><g class="entity" data-qualified-name="components.costs.Table" data-source-line="14" id="ent0009"><rect fill="#F1F1F1" height="46.2969" rx="2.5" ry="2.5" style="stroke:#181818;stroke-width:0.5;" width="119.96" x="565.02" y="200.5969"/><rect fill="#F1F1F1" height="10" style="stroke:#181818;stroke-width:0.5;" width="15" x="664.98" y="205.5969"/><rect fill="#F1F1F1" height="2" style="stroke:#181818;stroke-width:0.5;" width="4" x="662.98" y="207.5969"/><rect fill="#F1F1F1" height="2" style="stroke:#181818;stroke-width:0.5;" width="4" x="662.98" y="211.5969"/><text fill="#000000" font-family="sans-serif" font-size="14" lengthAdjust="spacing" textLength="79.96" x="580.02" y="233.592">AgentTable</text></g><!--entity Hook--><g class="entity" data-qualified-name="hooks.Hook" data-source-line="18" id="ent0011"><rect fill="#F1F1F1" height="46.2969" rx="2.5" ry="2.5" style="stroke:#181818;stroke-width:0.5;" width="107.7031" x="741.15" y="200.5969"/><rect fill="#F1F1F1" height="10" style="stroke:#181818;stroke-width:0.5;" width="15" x="828.8531" y="205.5969"/><rect fill="#F1F1F1" height="2" style="stroke:#181818;stroke-width:0.5;" width="4" x="826.8531" y="207.5969"/><rect fill="#F1F1F1" height="2" style="stroke:#181818;stroke-width:0.5;" width="4" x="826.8531" y="211.5969"/><text fill="#000000" font-family="sans-serif" font-size="14" lengthAdjust="spacing" textLength="67.7031" x="756.15" y="233.592">useBilling</text></g><!--entity Api--><g class="entity" data-qualified-name="lib.Api" data-source-line="22" id="ent0013"><rect fill="#F1F1F1" height="46.2969" rx="2.5" ry="2.5" style="stroke:#181818;stroke-width:0.5;" width="104.8594" x="622.57" y="321.8869"/><rect fill="#F1F1F1" height="10" style="stroke:#181818;stroke-width:0.5;" width="15" x="707.4294" y="326.8869"/><rect fill="#F1F1F1" height="2" style="stroke:#181818;stroke-width:0.5;" width="4" x="705.4294" y="328.8869"/><rect fill="#F1F1F1" height="2" style="stroke:#181818;stroke-width:0.5;" width="4" x="705.4294" y="332.8869"/><text fill="#000000" font-family="sans-serif" font-size="14" lengthAdjust="spacing" textLength="64.8594" x="637.57" y="354.882">api-client</text></g><!--entity Types--><g class="entity" data-qualified-name="lib.Types" data-source-line="23" id="ent0014"><rect fill="#F1F1F1" height="46.2969" rx="2.5" ry="2.5" style="stroke:#181818;stroke-width:0.5;" width="78.5684" x="762.72" y="321.8869"/><rect fill="#F1F1F1" height="10" style="stroke:#181818;stroke-width:0.5;" width="15" x="821.2884" y="326.8869"/><rect fill="#F1F1F1" height="2" style="stroke:#181818;stroke-width:0.5;" width="4" x="819.2884" y="328.8869"/><rect fill="#F1F1F1" height="2" style="stroke:#181818;stroke-width:0.5;" width="4" x="819.2884" y="332.8869"/><text fill="#000000" font-family="sans-serif" font-size="14" lengthAdjust="spacing" textLength="38.5684" x="777.72" y="354.882">types</text></g><!--link Page to KPIs--><g class="link" data-entity-1="ent0003" data-entity-2="ent0005" data-link-type="dependency" data-source-line="26" id="lnk15"><path d="M361.32,108.1869 C286.72,115.8869 151.64,132.7869 110,157.5969 C92.97,167.7369 82.4484,180.5979 73.3984,195.0879" fill="none" id="Page-to-KPIs" style="stroke:#181818;stroke-width:1;"/><polygon fill="#181818" points="70.22,200.1769,78.3803,194.6624,72.8687,195.9361,71.595,190.4245,70.22,200.1769" style="stroke:#181818;stroke-width:1;"/></g><!--link Page to Trend--><g class="link" data-entity-1="ent0003" data-entity-2="ent0006" data-link-type="dependency" data-source-line="27" id="lnk16"><path d="M361.4,117.1069 C331.86,126.2469 294.52,139.8569 264,157.5969 C243.86,169.2969 228.2337,182.3088 213.6637,196.0588" fill="none" id="Page-to-Trend" style="stroke:#181818;stroke-width:1;"/><polygon fill="#181818" points="209.3,200.1769,218.5909,196.9089,212.9364,196.7452,213.1001,191.0907,209.3,200.1769" style="stroke:#181818;stroke-width:1;"/></g><!--link Page to Breakdown--><g class="link" data-entity-1="ent0003" data-entity-2="ent0007" data-link-type="dependency" data-source-line="28" id="lnk17"><path d="M398.65,125.8869 C385.95,147.2169 370.0392,173.9513 357.3592,195.2513" fill="none" id="Page-to-Breakdown" style="stroke:#181818;stroke-width:1;"/><polygon fill="#181818" points="354.29,200.4069,362.3308,194.7196,356.8476,196.1105,355.4567,190.6274,354.29,200.4069" style="stroke:#181818;stroke-width:1;"/></g><!--link Page to Insights--><g class="link" data-entity-1="ent0003" data-entity-2="ent0008" data-link-type="dependency" data-source-line="29" id="lnk18"><path d="M425.35,125.8869 C438.05,147.2169 453.9608,173.9513 466.6408,195.2513" fill="none" id="Page-to-Insights" style="stroke:#181818;stroke-width:1;"/><polygon fill="#181818" points="469.71,200.4069,468.5433,190.6274,467.1524,196.1105,461.6692,194.7196,469.71,200.4069" style="stroke:#181818;stroke-width:1;"/></g><!--link Page to Table--><g class="link" data-entity-1="ent0003" data-entity-2="ent0009" data-link-type="dependency" data-source-line="30" id="lnk19"><path d="M462.6,119.1969 C489.02,128.4869 521.31,141.5769 548,157.5969 C567.97,169.5769 583.5903,182.5959 598.2003,196.2759" fill="none" id="Page-to-Table" style="stroke:#181818;stroke-width:1;"/><polygon fill="#181818" points="602.58,200.3769,598.7443,191.3056,598.9302,196.9594,593.2764,197.1453,602.58,200.3769" style="stroke:#181818;stroke-width:1;"/></g><!--link Page to Hook--><g class="link" data-entity-1="ent0003" data-entity-2="ent0011" data-link-type="dependency" data-source-line="31" id="lnk20"><path d="M462.65,106.5069 C521.84,111.5169 621.75,124.4969 701,157.5969 C726.1,168.0769 746.5789,182.2436 764.5389,196.6436" fill="none" id="Page-to-Hook" style="stroke:#181818;stroke-width:1;"/><polygon fill="#181818" points="769.22,200.3969,764.7005,191.6462,765.319,197.2692,759.6961,197.8878,769.22,200.3969" style="stroke:#181818;stroke-width:1;"/></g><!--link Hook to Api--><g class="link" data-entity-1="ent0011" data-entity-2="ent0013" data-link-type="dependency" data-source-line="32" id="lnk21"><path d="M772.43,247.1769 C750.97,268.5069 723.1455,296.1772 701.7255,317.4672" fill="none" id="Hook-to-Api" style="stroke:#181818;stroke-width:1;"/><polygon fill="#181818" points="697.47,321.6969,706.6731,318.1893,701.0163,318.1721,701.0335,312.5153,697.47,321.6969" style="stroke:#181818;stroke-width:1;"/></g><!--link Hook to Types--><g class="link" data-entity-1="ent0011" data-entity-2="ent0014" data-link-type="dependency" data-source-line="33" id="lnk22"><path d="M796.32,247.1769 C797.57,268.5069 799.0883,294.4172 800.3383,315.7072" fill="none" id="Hook-to-Types" style="stroke:#181818;stroke-width:1;"/><polygon fill="#181818" points="800.69,321.6969,804.1556,312.4779,800.3969,316.7055,796.1694,312.9468,800.69,321.6969" style="stroke:#181818;stroke-width:1;"/></g><?plantuml-src TL31JiCm3BtdAwoUu53s1qWR4c92Y4dq1zpMf56p92IkO4ByEqaA6T749V6ptxEV7MPb77eyWiDXHaalVD84dWP68pK9mOfZue1l2p45UFNMC9aHMdYouw8jt2lpx88GFmsWGUSsLoE6gRVen-lDO0E71Zu5m62FpXeo38sBt1iE7mrWYEqbYQy_FGen_2D_FEn3bgQWBdK--hkRq7CcP5WpTfvm7ksxoOI2QjBU12KdNgVyWfgobV7hiDUqJafHjSPaxNpfVGcqKreh8xFi8P8gbLRzXGQTQWUjOfmrMwVgEfyShLQx5AL-wQZGjhVhYGfQxr7WUVkIAikUDNcp0hFZz6IKl1IGfty3?></g></svg>