<svg xmlns="http://www.w3.org/2000/svg" xmlns:xlink="http://www.w3.org/1999/xlink" contentStyleType="text/css" data-diagram-type="CLASS" height="592px" preserveAspectRatio="none" style="width:1819px;height:592px;background:#FFFFFF;" version="1.1" viewBox="0 0 1819 592" width="1819px" zoomAndPan="magnify"><?plantuml 1.2026.3?><defs/><g><g class="entity" data-qualified-name="org1" data-source-line="5" id="ent0002"><rect fill="#F1F1F1" height="77.1875" rx="2.5" ry="2.5" style="stroke:#181818;stroke-width:0.5;" width="180.0889" x="1011.63" y="7"/><text fill="#000000" font-family="sans-serif" font-size="14" lengthAdjust="spacing" textLength="137.6895" x="1032.8297" y="21.9951">org1 : Organizacion</text><line style="stroke:#181818;stroke-width:0.5;" x1="1012.63" x2="1190.7189" y1="27.2969" y2="27.2969"/><text fill="#000000" font-family="sans-serif" font-size="14" lengthAdjust="spacing" textLength="166.0313" x="1017.63" y="44.292">nombre = "Empresa_A"</text><text fill="#000000" font-family="sans-serif" font-size="14" lengthAdjust="spacing" textLength="168.0889" x="1017.63" y="60.5889">industria = "tecnologia"</text><text fill="#000000" font-family="sans-serif" font-size="14" lengthAdjust="spacing" textLength="148.292" x="1017.63" y="76.8857">tamano = "mediana"</text></g><g class="entity" data-qualified-name="admin1" data-source-line="11" id="ent0003"><rect fill="#F1F1F1" height="60.8906" rx="2.5" ry="2.5" style="stroke:#181818;stroke-width:0.5;" width="251.3467" x="7" y="168.63"/><text fill="#000000" font-family="sans-serif" font-size="14" lengthAdjust="spacing" textLength="119.5947" x="72.876" y="183.6251">admin1 : Usuario</text><line style="stroke:#181818;stroke-width:0.5;" x1="8" x2="257.3467" y1="188.9269" y2="188.9269"/><text fill="#000000" font-family="sans-serif" font-size="14" lengthAdjust="spacing" textLength="239.3467" x="13" y="205.922">email = "admin@empresa-a.com"</text><text fill="#000000" font-family="sans-serif" font-size="14" lengthAdjust="spacing" textLength="116.1357" x="13" y="222.2189">es_admin = true</text></g><g class="entity" data-qualified-name="cred1" data-source-line="16" id="ent0004"><rect fill="#F1F1F1" height="77.1875" rx="2.5" ry="2.5" style="stroke:#181818;stroke-width:0.5;" width="258.8936" x="702.23" y="160.48"/><text fill="#000000" font-family="sans-serif" font-size="14" lengthAdjust="spacing" textLength="160.3574" x="751.4981" y="175.4751">cred1 : CredencialAWS</text><line style="stroke:#181818;stroke-width:0.5;" x1="703.23" x2="960.1236" y1="180.7769" y2="180.7769"/><text fill="#000000" font-family="sans-serif" font-size="14" lengthAdjust="spacing" textLength="143.2471" x="708.23" y="197.772">region = "us-east-1"</text><text fill="#000000" font-family="sans-serif" font-size="14" lengthAdjust="spacing" textLength="91.4717" x="708.23" y="214.0689">valida = true</text><text fill="#000000" font-family="sans-serif" font-size="14" lengthAdjust="spacing" textLength="246.8936" x="708.23" y="230.3657">ultima_verificacion = "2026-04-01"</text></g><g class="entity" data-qualified-name="agent1" data-source-line="22" id="ent0005"><rect fill="#F1F1F1" height="93.4844" rx="2.5" ry="2.5" style="stroke:#181818;stroke-width:0.5;" width="295.9443" x="364.7" y="313.96"/><text fill="#000000" font-family="sans-serif" font-size="14" lengthAdjust="spacing" textLength="126.7246" x="449.3099" y="328.9551">agent1 : AgenteIA</text><line style="stroke:#181818;stroke-width:0.5;" x1="365.7" x2="659.6443" y1="334.2569" y2="334.2569"/><text fill="#000000" font-family="sans-serif" font-size="14" lengthAdjust="spacing" textLength="195.1182" x="370.7" y="351.252">nombre = "agente-soporte"</text><text fill="#000000" font-family="sans-serif" font-size="14" lengthAdjust="spacing" textLength="162.3467" x="370.7" y="367.5489">tipo = "bedrock-agent"</text><text fill="#000000" font-family="sans-serif" font-size="14" lengthAdjust="spacing" textLength="123.4912" x="370.7" y="383.8457">estado = "active"</text><text fill="#000000" font-family="sans-serif" font-size="14" lengthAdjust="spacing" textLength="283.9443" x="370.7" y="400.1426">modelo = "anthropic.claude-3-5-sonnet"</text></g><g class="entity" data-qualified-name="agent2" data-source-line="29" id="ent0006"><rect fill="#F1F1F1" height="93.4844" rx="2.5" ry="2.5" style="stroke:#181818;stroke-width:0.5;" width="272.5996" x="695.37" y="313.96"/><text fill="#000000" font-family="sans-serif" font-size="14" lengthAdjust="spacing" textLength="126.7246" x="768.3075" y="328.9551">agent2 : AgenteIA</text><line style="stroke:#181818;stroke-width:0.5;" x1="696.37" x2="966.9696" y1="334.2569" y2="334.2569"/><text fill="#000000" font-family="sans-serif" font-size="14" lengthAdjust="spacing" textLength="194.2363" x="701.37" y="351.252">nombre = "agente-analisis"</text><text fill="#000000" font-family="sans-serif" font-size="14" lengthAdjust="spacing" textLength="162.3467" x="701.37" y="367.5489">tipo = "bedrock-agent"</text><text fill="#000000" font-family="sans-serif" font-size="14" lengthAdjust="spacing" textLength="123.4912" x="701.37" y="383.8457">estado = "active"</text><text fill="#000000" font-family="sans-serif" font-size="14" lengthAdjust="spacing" textLength="260.5996" x="701.37" y="400.1426">modelo = "anthropic.claude-3-haiku"</text></g><g class="entity" data-qualified-name="mission1" data-source-line="36" id="ent0007"><rect fill="#F1F1F1" height="93.4844" rx="2.5" ry="2.5" style="stroke:#181818;stroke-width:0.5;" width="217.2148" x="1074.07" y="152.33"/><text fill="#000000" font-family="sans-serif" font-size="14" lengthAdjust="spacing" textLength="168.5742" x="1098.3903" y="167.3251">mission1 : MisionFinOps</text><line style="stroke:#181818;stroke-width:0.5;" x1="1075.07" x2="1290.2848" y1="172.6269" y2="172.6269"/><text fill="#000000" font-family="sans-serif" font-size="14" lengthAdjust="spacing" textLength="205.2148" x="1080.07" y="189.622">mission_id = "cost-total-aws"</text><text fill="#000000" font-family="sans-serif" font-size="14" lengthAdjust="spacing" textLength="182.6631" x="1080.07" y="205.9189">titulo = "Coste total AWS"</text><text fill="#000000" font-family="sans-serif" font-size="14" lengthAdjust="spacing" textLength="205.1602" x="1080.07" y="222.2157">estado_usuario = "complete"</text><text fill="#000000" font-family="sans-serif" font-size="14" lengthAdjust="spacing" textLength="190.8594" x="1080.07" y="238.5126">pantalla_revision = "Costs"</text></g><g class="entity" data-qualified-name="billing1" data-source-line="43" id="ent0008"><rect fill="#F1F1F1" height="109.7813" rx="2.5" ry="2.5" style="stroke:#181818;stroke-width:0.5;" width="275.0127" x="275.17" y="467.45"/><text fill="#000000" font-family="sans-serif" font-size="14" lengthAdjust="spacing" textLength="180.1953" x="322.5787" y="482.4451">billing1 : DatoFacturacion</text><line style="stroke:#181818;stroke-width:0.5;" x1="276.17" x2="549.1827" y1="487.7469" y2="487.7469"/><text fill="#000000" font-family="sans-serif" font-size="14" lengthAdjust="spacing" textLength="132.7607" x="281.17" y="504.742">proveedor = "aws"</text><text fill="#000000" font-family="sans-serif" font-size="14" lengthAdjust="spacing" textLength="195.8838" x="281.17" y="521.0389">recurso_id = "agent-id-001"</text><text fill="#000000" font-family="sans-serif" font-size="14" lengthAdjust="spacing" textLength="98.3691" x="281.17" y="537.3357">coste = 45.30</text><text fill="#000000" font-family="sans-serif" font-size="14" lengthAdjust="spacing" textLength="120.5791" x="281.17" y="553.6326">moneda = "USD"</text><text fill="#000000" font-family="sans-serif" font-size="14" lengthAdjust="spacing" textLength="263.0127" x="281.17" y="569.9295">periodo = "2026-03-01 / 2026-03-31"</text></g><g class="entity" data-qualified-name="billing2" data-source-line="51" id="ent0009"><rect fill="#F1F1F1" height="109.7813" rx="2.5" ry="2.5" style="stroke:#181818;stroke-width:0.5;" width="275.0127" x="788.17" y="467.45"/><text fill="#000000" font-family="sans-serif" font-size="14" lengthAdjust="spacing" textLength="180.1953" x="835.5787" y="482.4451">billing2 : DatoFacturacion</text><line style="stroke:#181818;stroke-width:0.5;" x1="789.17" x2="1062.1827" y1="487.7469" y2="487.7469"/><text fill="#000000" font-family="sans-serif" font-size="14" lengthAdjust="spacing" textLength="132.7607" x="794.17" y="504.742">proveedor = "aws"</text><text fill="#000000" font-family="sans-serif" font-size="14" lengthAdjust="spacing" textLength="195.8838" x="794.17" y="521.0389">recurso_id = "agent-id-002"</text><text fill="#000000" font-family="sans-serif" font-size="14" lengthAdjust="spacing" textLength="98.3691" x="794.17" y="537.3357">coste = 12.80</text><text fill="#000000" font-family="sans-serif" font-size="14" lengthAdjust="spacing" textLength="120.5791" x="794.17" y="553.6326">moneda = "USD"</text><text fill="#000000" font-family="sans-serif" font-size="14" lengthAdjust="spacing" textLength="263.0127" x="794.17" y="569.9295">periodo = "2026-03-01 / 2026-03-31"</text></g><g class="entity" data-qualified-name="llmLog1" data-source-line="59" id="ent0010"><rect fill="#F1F1F1" height="109.7813" rx="2.5" ry="2.5" style="stroke:#181818;stroke-width:0.5;" width="195.2002" x="1326.07" y="144.18"/><text fill="#000000" font-family="sans-serif" font-size="14" lengthAdjust="spacing" textLength="181.2002" x="1333.07" y="159.1751">llmLog1 : RegistroUsoLLM</text><line style="stroke:#181818;stroke-width:0.5;" x1="1327.07" x2="1520.2702" y1="164.4769" y2="164.4769"/><text fill="#000000" font-family="sans-serif" font-size="14" lengthAdjust="spacing" textLength="172.0469" x="1332.07" y="181.472">proveedor = "anthropic"</text><text fill="#000000" font-family="sans-serif" font-size="14" lengthAdjust="spacing" textLength="164.9785" x="1332.07" y="197.7689">tokens_entrada = 5200</text><text fill="#000000" font-family="sans-serif" font-size="14" lengthAdjust="spacing" textLength="151.3203" x="1332.07" y="214.0657">tokens_salida = 1800</text><text fill="#000000" font-family="sans-serif" font-size="14" lengthAdjust="spacing" textLength="130.4229" x="1332.07" y="230.3626">coste_usd = 0.042</text><text fill="#000000" font-family="sans-serif" font-size="14" lengthAdjust="spacing" textLength="145.2705" x="1332.07" y="246.6595">fuente = "caio_chat"</text></g><g class="entity" data-qualified-name="config1" data-source-line="67" id="ent0011"><rect fill="#F1F1F1" height="77.1875" rx="2.5" ry="2.5" style="stroke:#181818;stroke-width:0.5;" width="231.0439" x="1556.15" y="160.48"/><text fill="#000000" font-family="sans-serif" font-size="14" lengthAdjust="spacing" textLength="190.1963" x="1576.5738" y="175.4751">config1 : ConfiguracionLLM</text><line style="stroke:#181818;stroke-width:0.5;" x1="1557.15" x2="1786.1939" y1="180.7769" y2="180.7769"/><text fill="#000000" font-family="sans-serif" font-size="14" lengthAdjust="spacing" textLength="172.0469" x="1562.15" y="197.772">proveedor = "anthropic"</text><text fill="#000000" font-family="sans-serif" font-size="14" lengthAdjust="spacing" textLength="212.8848" x="1562.15" y="214.0689">modelo = "claude-3-5-sonnet"</text><text fill="#000000" font-family="sans-serif" font-size="14" lengthAdjust="spacing" textLength="219.0439" x="1562.15" y="230.3657">rol_asignado = "razonamiento"</text></g><g class="entity" data-qualified-name="audit1" data-source-line="73" id="ent0012"><rect fill="#F1F1F1" height="77.1875" rx="2.5" ry="2.5" style="stroke:#181818;stroke-width:0.5;" width="253.4453" x="1393.95" y="322.11"/><text fill="#000000" font-family="sans-serif" font-size="14" lengthAdjust="spacing" textLength="179.9697" x="1430.6878" y="337.1051">audit1 : RegistroAuditoria</text><line style="stroke:#181818;stroke-width:0.5;" x1="1394.95" x2="1646.3953" y1="342.4069" y2="342.4069"/><text fill="#000000" font-family="sans-serif" font-size="14" lengthAdjust="spacing" textLength="241.4453" x="1399.95" y="359.402">accion = "billing_sync_completed"</text><text fill="#000000" font-family="sans-serif" font-size="14" lengthAdjust="spacing" textLength="212.502" x="1399.95" y="375.6989">tipo_recurso = "MisionFinOps"</text><text fill="#000000" font-family="sans-serif" font-size="14" lengthAdjust="spacing" textLength="191.0576" x="1399.95" y="391.9957">recurso_id = "mission-001"</text></g><!--link org1 to admin1--><g class="link" data-entity-1="ent0002" data-entity-2="ent0003" data-link-type="dependency" data-source-line="79" id="lnk13"><path codeLine="79" d="M1011.23,57.41 C798.77,82.82 285.67,144.18 285.67,144.18 C285.67,144.18 258.5495,153.7375 223.3295,166.1375" fill="none" id="org1-to-admin1" style="stroke:#181818;stroke-width:1;"/><polygon fill="#181818" points="217.67,168.13,227.4876,168.9142,222.3862,166.4695,224.8309,161.3682,217.67,168.13" style="stroke:#181818;stroke-width:1;"/></g><!--link org1 to cred1--><g class="link" data-entity-1="ent0002" data-entity-2="ent0004" data-link-type="dependency" data-source-line="80" id="lnk14"><path codeLine="80" d="M1033.89,84.62 C992.81,107.67 945.8026,134.044 904.7226,157.094" fill="none" id="org1-to-cred1" style="stroke:#181818;stroke-width:1;"/><polygon fill="#181818" points="899.49,160.03,909.2962,159.1144,903.8505,157.5833,905.3815,152.1376,899.49,160.03" style="stroke:#181818;stroke-width:1;"/></g><!--link org1 to mission1--><g class="link" data-entity-1="ent0002" data-entity-2="ent0007" data-link-type="dependency" data-source-line="81" id="lnk15"><path codeLine="81" d="M1121.9,84.42 C1132.87,104.93 1143.6701,125.1393 1155.2501,146.7893" fill="none" id="org1-to-mission1" style="stroke:#181818;stroke-width:1;"/><polygon fill="#181818" points="1158.08,152.08,1157.3624,142.2573,1155.7218,147.6711,1150.308,146.0305,1158.08,152.08" style="stroke:#181818;stroke-width:1;"/></g><!--link org1 to billing1--><g class="link" data-entity-1="ent0002" data-entity-2="ent0008" data-link-type="dependency" data-source-line="82" id="lnk16"><path codeLine="82" d="M1011.19,67.77 C888.55,96.47 684.67,144.18 684.67,144.18 C684.67,144.18 347.67,313.96 347.67,313.96 C347.67,313.96 347.67,407.45 347.67,407.45 C347.67,407.45 361.9745,432.5198 378.7245,461.8498" fill="none" id="org1-to-billing1" style="stroke:#181818;stroke-width:1;"/><polygon fill="#181818" points="381.7,467.06,380.7102,457.261,379.2204,462.7181,373.7633,461.2283,381.7,467.06" style="stroke:#181818;stroke-width:1;"/></g><!--link org1 to billing2--><g class="link" data-entity-1="ent0002" data-entity-2="ent0009" data-link-type="dependency" data-source-line="83" id="lnk17"><path codeLine="83" d="M1084.15,84.6 C1071.51,112 1056.67,144.18 1056.67,144.18 C1056.67,144.18 985.67,407.45 985.67,407.45 C985.67,407.45 972.5163,432.4215 957.0663,461.7515" fill="none" id="org1-to-billing2" style="stroke:#181818;stroke-width:1;"/><polygon fill="#181818" points="954.27,467.06,962.0035,460.9614,956.6003,462.6362,954.9255,457.233,954.27,467.06" style="stroke:#181818;stroke-width:1;"/></g><!--link org1 to llmLog1--><g class="link" data-entity-1="ent0002" data-entity-2="ent0010" data-link-type="dependency" data-source-line="84" id="lnk18"><path codeLine="84" d="M1182.51,84.62 C1226.01,105.08 1274.5606,127.9263 1320.4206,149.4963" fill="none" id="org1-to-llmLog1" style="stroke:#181818;stroke-width:1;"/><polygon fill="#181818" points="1325.85,152.05,1319.4083,144.5998,1321.3255,149.9219,1316.0034,151.8391,1325.85,152.05" style="stroke:#181818;stroke-width:1;"/></g><!--link org1 to config1--><g class="link" data-entity-1="ent0002" data-entity-2="ent0011" data-link-type="dependency" data-source-line="85" id="lnk19"><path codeLine="85" d="M1191.95,66.75 C1319.92,95.33 1538.67,144.18 1538.67,144.18 C1538.67,144.18 1550.2893,148.8864 1572.2993,157.8064" fill="none" id="org1-to-config1" style="stroke:#181818;stroke-width:1;"/><polygon fill="#181818" points="1577.86,160.06,1571.0213,152.9725,1573.2261,158.182,1568.0166,160.3868,1577.86,160.06" style="stroke:#181818;stroke-width:1;"/></g><!--link org1 to audit1--><g class="link" data-entity-1="ent0002" data-entity-2="ent0012" data-link-type="dependency" data-source-line="86" id="lnk20"><path codeLine="86" d="M1192.14,59.15 C1382.01,85.51 1804.67,144.18 1804.67,144.18 C1804.67,144.18 1804.67,253.96 1804.67,253.96 C1804.67,253.96 1709.843,289.2767 1628.423,319.5867" fill="none" id="org1-to-audit1" style="stroke:#181818;stroke-width:1;"/><polygon fill="#181818" points="1622.8,321.68,1632.63,322.2888,1627.4858,319.9356,1629.839,314.7914,1622.8,321.68" style="stroke:#181818;stroke-width:1;"/></g><!--link cred1 to agent1--><g class="link" data-entity-1="ent0004" data-entity-2="ent0005" data-link-type="dependency" data-source-line="87" id="lnk21"><path codeLine="87" d="M755.67,238.11 C710.43,260.75 658.0654,286.9445 610.2354,310.8845" fill="none" id="cred1-to-agent1" style="stroke:#181818;stroke-width:1;"/><polygon fill="#181818" points="604.87,313.57,614.7085,313.1187,609.3412,311.3321,611.1278,305.9648,604.87,313.57" style="stroke:#181818;stroke-width:1;"/></g><!--link cred1 to agent2--><g class="link" data-entity-1="ent0004" data-entity-2="ent0006" data-link-type="dependency" data-source-line="88" id="lnk22"><path codeLine="88" d="M831.67,237.9 C831.67,260.59 831.67,283.59 831.67,307.6" fill="none" id="cred1-to-agent2" style="stroke:#181818;stroke-width:1;"/><polygon fill="#181818" points="831.67,313.6,835.67,304.6,831.67,308.6,827.67,304.6,831.67,313.6" style="stroke:#181818;stroke-width:1;"/></g><!--link agent1 to billing1--><g class="link" data-entity-1="ent0005" data-entity-2="ent0008" data-link-type="dependency" data-source-line="89" id="lnk23"><path codeLine="89" d="M483.75,407.88 C472.15,426.39 461.8966,442.7662 449.8366,462.0062" fill="none" id="agent1-to-billing1" style="stroke:#181818;stroke-width:1;"/><polygon fill="#181818" points="446.65,467.09,454.8192,461.5887,449.3055,462.8535,448.0407,457.3398,446.65,467.09" style="stroke:#181818;stroke-width:1;"/></g><!--link agent2 to billing2--><g class="link" data-entity-1="ent0006" data-entity-2="ent0009" data-link-type="dependency" data-source-line="90" id="lnk24"><path codeLine="90" d="M858.86,407.88 C869.76,426.39 879.3554,442.6798 890.6854,461.9198" fill="none" id="agent2-to-billing2" style="stroke:#181818;stroke-width:1;"/><polygon fill="#181818" points="893.73,467.09,892.6099,457.305,891.1928,462.7815,885.7164,461.3645,893.73,467.09" style="stroke:#181818;stroke-width:1;"/></g><!--link mission1 to audit1--><g class="link" data-entity-1="ent0007" data-entity-2="ent0012" data-link-type="dependency" data-source-line="91" id="lnk25"><path codeLine="91" d="M1280.44,246.25 C1331.13,270.19 1386.8646,296.5079 1434.7846,319.1379" fill="none" id="mission1-to-audit1" style="stroke:#181818;stroke-width:1;"/><polygon fill="#181818" points="1440.21,321.7,1433.7799,314.2398,1435.6888,319.5649,1430.3637,321.4738,1440.21,321.7" style="stroke:#181818;stroke-width:1;"/></g><?plantuml-src hLLTQzj047pthpZyBbTMaX8AAJL90uM4G4FeerYVDlOszo7kJYv9wN_ltPvaMNK85F9atQoqEpktizvIWqAIamfds_ICkWtFGgDUe_Cp_qIc1GTQA38OdbiKhLNFwJ2RsVLFb47ChTiinITnvpPWw0KaMJCNu0NZlsT26AlN3iM5c7_LhKCFzMeUOJ9DvuCZI960qbXbDmGf5423iGdNs12O2FuP2qAZoQII3xu3HvQhzM2gXnf8fOyP-uAvQ04BQNNAZhxcI7mbk0uFKqk7JSfy6N_HI0Ar-d7F-NCafNUuYIsc_9ql47mebYdh3XGrCEGKebE1DDGxTFH8acL9trHbzR4eJujoEUrfWoQaoglqWDzMkQcCJaLa40jlM-i2ibpKibXhR9oLJmM_aJiDq708PA0TlwnjWofZ9coTRKakf8AkmUAaE8jfJRpfOsxLgzogrxd56rFaoRylkItGKpTXfidxg6lIxPRIqpMPkzOpltqiCUmFDJKfjxJnqe8De0hurPCCNQvx6MCeE2ZItU-9rbsUjfn0jmgp-6ra2af1xN3778OiVa9rJIhQXfro1S5UnvuxDvfb7qviMsTtY8rrB4Hcw51spjk-0nQneAOeInu-oQmlnEdPugHa7GtoCCuVxg-OPHn3czNE4tWI9r1y4CFXPFaQs-fjjjN_iwqEsIwhnVbxi5LAtrYMzdlqPjmfzi7RcvjRvZe4ZwaE4yO3O9_G-3hoTC1Kpggo774_c7jvpZ1t42SYjLSkojCgOezTcdqU3o1RoorCRIIjUIHcUSbFlQ03po7yDi_H8AzuDkfkLGsUDgPtbeCNQq1JP6QddkuQ2eUAhH9WupREvixXn0NaiBhwMw_ziv7rO85cy7ZTttbwSsB6et7epPXdDt5AVnH5yRdVuUEPT-vu71mz8eDhZf1gHFhxFyYQXJueoytEyePdWDVklq0rwzVnf7A_1YUrzwld8FjV?></g></svg>