<svg xmlns="http://www.w3.org/2000/svg" xmlns:xlink="http://www.w3.org/1999/xlink" contentStyleType="text/css" data-diagram-type="DESCRIPTION" height="483px" preserveAspectRatio="none" style="width:658px;height:483px;background:#FFFFFF;" version="1.1" viewBox="0 0 658 483" width="658px" zoomAndPan="magnify"><?plantuml 1.2026.3beta6?><defs/><g><g class="title" data-source-line="4"><text fill="#000000" font-family="sans-serif" font-size="14" font-weight="700" lengthAdjust="spacing" textLength="221.0195" x="215.2214" y="22.9951">Despliegue - Modulo FinOps</text></g><!--entity Usuario--><g class="entity" data-qualified-name="Usuario" data-source-line="6" id="ent0002"><rect fill="#F1F1F1" height="36.2969" rx="2.5" ry="2.5" style="stroke:#181818;stroke-width:0.5;" width="73.2041" x="290.05" y="44.2969"/><text fill="#000000" font-family="sans-serif" font-size="14" lengthAdjust="spacing" textLength="53.2041" x="300.05" y="67.292">Usuario</text></g><!--entity Frontend--><g class="entity" data-qualified-name="Frontend" data-source-line="7" id="ent0003"><rect fill="#F1F1F1" height="52.5938" rx="2.5" ry="2.5" style="stroke:#181818;stroke-width:0.5;" width="83.1094" x="285.1" y="157.5969"/><text fill="#000000" font-family="sans-serif" font-size="14" lengthAdjust="spacing" textLength="63.1094" x="295.1" y="180.592">Frontend</text><text fill="#000000" font-family="sans-serif" font-size="14" lengthAdjust="spacing" textLength="48.4941" x="295.1" y="196.8889">Next.js</text></g><!--entity Backend--><g class="entity" data-qualified-name="Backend" data-source-line="8" id="ent0004"><rect fill="#F1F1F1" height="52.5938" rx="2.5" ry="2.5" style="stroke:#181818;stroke-width:0.5;" width="80.3613" x="286.47" y="287.1869"/><text fill="#000000" font-family="sans-serif" font-size="14" lengthAdjust="spacing" textLength="60.3613" x="296.47" y="310.182">Backend</text><text fill="#000000" font-family="sans-serif" font-size="14" lengthAdjust="spacing" textLength="51.5635" x="296.47" y="326.4789">FastAPI</text></g><!--entity DB--><g class="entity" data-qualified-name="DB" data-source-line="9" id="ent0005"><rect fill="#F1F1F1" height="52.5938" rx="2.5" ry="2.5" style="stroke:#181818;stroke-width:0.5;" width="119.3057" x="7" y="416.7869"/><text fill="#000000" font-family="sans-serif" font-size="14" lengthAdjust="spacing" textLength="99.3057" x="17" y="439.782">Base de datos</text><text fill="#000000" font-family="sans-serif" font-size="14" lengthAdjust="spacing" textLength="80.7529" x="17" y="456.0789">PostgreSQL</text></g><!--entity CostExplorer--><g class="entity" data-qualified-name="CostExplorer" data-source-line="10" id="ent0006"><rect fill="#F1F1F1" height="36.2969" rx="2.5" ry="2.5" style="stroke:#181818;stroke-width:0.5;" width="150.9287" x="161.19" y="424.9269"/><text fill="#000000" font-family="sans-serif" font-size="14" lengthAdjust="spacing" textLength="130.9287" x="171.19" y="447.922">AWS Cost Explorer</text></g><!--entity Bedrock--><g class="entity" data-qualified-name="Bedrock" data-source-line="11" id="ent0007"><rect fill="#F1F1F1" height="36.2969" rx="2.5" ry="2.5" style="stroke:#181818;stroke-width:0.5;" width="138.2617" x="347.52" y="424.9269"/><text fill="#000000" font-family="sans-serif" font-size="14" lengthAdjust="spacing" textLength="118.2617" x="357.52" y="447.922">Amazon Bedrock</text></g><!--entity LLM--><g class="entity" data-qualified-name="LLM" data-source-line="12" id="ent0008"><rect fill="#F1F1F1" height="36.2969" rx="2.5" ry="2.5" style="stroke:#181818;stroke-width:0.5;" width="123.6123" x="520.85" y="424.9269"/><text fill="#000000" font-family="sans-serif" font-size="14" lengthAdjust="spacing" textLength="103.6123" x="530.85" y="447.922">Proveedor LLM</text></g><!--link Usuario to Frontend--><g class="link" data-entity-1="ent0002" data-entity-2="ent0003" data-link-type="dependency" data-source-line="14" id="lnk9"><path d="M326.65,81.0669 C326.65,101.1869 326.65,128.2769 326.65,151.2469" fill="none" id="Usuario-to-Frontend" style="stroke:#181818;stroke-width:1;"/><polygon fill="#181818" points="326.65,157.2469,330.65,148.2469,326.65,152.2469,322.65,148.2469,326.65,157.2469" style="stroke:#181818;stroke-width:1;"/><text fill="#000000" font-family="sans-serif" font-size="13" lengthAdjust="spacing" textLength="69.6655" x="327.65" y="123.6638">navegador</text></g><!--link Frontend to Backend--><g class="link" data-entity-1="ent0003" data-entity-2="ent0004" data-link-type="dependency" data-source-line="15" id="lnk10"><path d="M326.65,210.4069 C326.65,232.6569 326.65,258.7769 326.65,281.0169" fill="none" id="Frontend-to-Backend" style="stroke:#181818;stroke-width:1;"/><polygon fill="#181818" points="326.65,287.0169,330.65,278.0169,326.65,282.0169,322.65,278.0169,326.65,287.0169" style="stroke:#181818;stroke-width:1;"/><text fill="#000000" font-family="sans-serif" font-size="13" lengthAdjust="spacing" textLength="77.2256" x="327.65" y="253.2538">REST + JWT</text></g><!--link Backend to DB--><g class="link" data-entity-1="ent0004" data-entity-2="ent0005" data-link-type="dependency" data-source-line="16" id="lnk11"><path d="M286.05,328.3069 C257.44,338.5469 218.52,353.5069 185.65,369.7869 C157.82,383.5669 132.988,398.4838 110.138,413.1638" fill="none" id="Backend-to-DB" style="stroke:#181818;stroke-width:1;"/><polygon fill="#181818" points="105.09,416.4069,114.8241,414.9076,109.2967,413.7043,110.4999,408.1769,105.09,416.4069" style="stroke:#181818;stroke-width:1;"/><text fill="#000000" font-family="sans-serif" font-size="13" lengthAdjust="spacing" textLength="81.9736" x="186.65" y="382.8538">SQLAlchemy</text></g><!--link Backend to CostExplorer--><g class="link" data-entity-1="ent0004" data-entity-2="ent0006" data-link-type="dependency" data-source-line="17" id="lnk12"><path d="M308.66,339.9969 C290.91,365.1669 267.7181,398.0336 252.3081,419.8836" fill="none" id="Backend-to-CostExplorer" style="stroke:#181818;stroke-width:1;"/><polygon fill="#181818" points="248.85,424.7869,257.3059,419.7374,251.7317,420.7008,250.7683,415.1266,248.85,424.7869" style="stroke:#181818;stroke-width:1;"/><text fill="#000000" font-family="sans-serif" font-size="13" lengthAdjust="spacing" textLength="41.7422" x="288.65" y="382.8538">costes</text></g><!--link Backend to Bedrock--><g class="link" data-entity-1="ent0004" data-entity-2="ent0007" data-link-type="dependency" data-source-line="18" id="lnk13"><path d="M344.65,339.9969 C362.4,365.1669 385.5819,398.0336 400.9919,419.8836" fill="none" id="Backend-to-Bedrock" style="stroke:#181818;stroke-width:1;"/><polygon fill="#181818" points="404.45,424.7869,402.5317,415.1266,401.5683,420.7008,395.9941,419.7374,404.45,424.7869" style="stroke:#181818;stroke-width:1;"/><text fill="#000000" font-family="sans-serif" font-size="13" lengthAdjust="spacing" textLength="52.3237" x="378.65" y="382.8538">agentes</text></g><!--link Backend to LLM--><g class="link" data-entity-1="ent0004" data-entity-2="ent0008" data-link-type="dependency" data-source-line="19" id="lnk14"><path d="M367.25,334.1969 C388.79,344.6969 415.7,357.8669 439.65,369.7869 C476.89,388.3069 514.0524,407.126 542.9824,421.846" fill="none" id="Backend-to-LLM" style="stroke:#181818;stroke-width:1;"/><polygon fill="#181818" points="548.33,424.5669,542.1226,416.9204,543.8737,422.2994,538.4947,424.0505,548.33,424.5669" style="stroke:#181818;stroke-width:1;"/><text fill="#000000" font-family="sans-serif" font-size="13" lengthAdjust="spacing" textLength="50.5972" x="472.65" y="382.8538">insights</text></g><?plantuml-src NT71Re9040RW-px5n6jZ7w279b8rQQEjBJPUl6nWkcvTPiZEQhLFtn6HG1CIbl__W1sGlQVQHbj1mLNDX9JoT0u84OjaoGKqqX7PsP9_F3duia7GcEIJqYbA7Jow0y8ObbmU0iFSqrijndIFWT6d76pqF08hqAxxzJmo9QHoIwzuIlVVqi1RsfUPBVODd5j9azLp0zjmw0IXrCCcbYsjM9ABcBylcXkcMTzEDZayAO3PgGuSCJRcajo2WQxiBnDaM4OkzjVtNzTzjOfyH2mvmcAnR92UZMbdX_7uiHiF7e3i4Pr-tsYwy2BQkHHypF8rtC7BPcrkuGLCC-rqg4aeTbYT1rr__weAlKGPY7RRMbgd__vVg_lLnfDujqlo1m00?></g></svg>