<svg xmlns="http://www.w3.org/2000/svg" xmlns:xlink="http://www.w3.org/1999/xlink" contentStyleType="text/css" data-diagram-type="CLASS" height="896px" preserveAspectRatio="none" style="width:1048px;height:896px;background:#FFFFFF;" version="1.1" viewBox="0 0 1048 896" width="1048px" zoomAndPan="magnify"><?plantuml 1.2026.3beta6?><defs/><g><g class="title" data-source-line="4"><text fill="#000000" font-family="sans-serif" font-size="14" font-weight="700" lengthAdjust="spacing" textLength="265.1523" x="387.9238" y="22.9951">Clases de diseno - Modulo FinOps</text></g><!--cluster API--><g class="cluster" data-qualified-name="API" data-source-line="6" id="ent0002"><rect fill="none" height="147.89" rx="2.5" ry="2.5" style="stroke:#000000;stroke-width:1.5;" width="188" x="388" y="44.2969"/><text fill="#000000" font-family="sans-serif" font-size="14" font-weight="700" lengthAdjust="spacing" textLength="26.3047" x="468.8477" y="59.292">API</text></g><!--cluster Servicios--><g class="cluster" data-qualified-name="Servicios" data-source-line="14" id="ent0004"><rect fill="none" height="302.04" rx="2.5" ry="2.5" style="stroke:#000000;stroke-width:1.5;" width="341" x="7" y="241.1869"/><text fill="#000000" font-family="sans-serif" font-size="14" font-weight="700" lengthAdjust="spacing" textLength="71.4561" x="141.772" y="256.182">Servicios</text></g><!--cluster Persistencia--><g class="cluster" data-qualified-name="Persistencia" data-source-line="29" id="ent0008"><rect fill="none" height="463.08" rx="2.5" ry="2.5" style="stroke:#000000;stroke-width:1.5;" width="319" x="372" y="419.7769"/><text fill="#000000" font-family="sans-serif" font-size="14" font-weight="700" lengthAdjust="spacing" textLength="96.8242" x="483.0879" y="434.772">Persistencia</text></g><!--cluster Schemas--><g class="cluster" data-qualified-name="Schemas" data-source-line="47" id="ent0013"><rect fill="none" height="99" rx="2.5" ry="2.5" style="stroke:#000000;stroke-width:1.5;" width="662" x="372" y="257.4769"/><text fill="#000000" font-family="sans-serif" font-size="14" font-weight="700" lengthAdjust="spacing" textLength="70.2119" x="667.894" y="272.472">Schemas</text></g><!--class BillingRouter--><g class="entity" data-qualified-name="API.BillingRouter" data-source-line="7" id="ent0003"><rect fill="#F1F1F1" height="96.8906" rx="2.5" ry="2.5" style="stroke:#181818;stroke-width:0.5;" width="156.1221" x="403.94" y="79.2969"/><ellipse cx="434.3187" cy="95.2969" fill="#ADD1B2" rx="11" ry="11" style="stroke:#181818;stroke-width:1;"/><path d="M437.2874,100.9375 Q436.7093,101.2344 436.0687,101.375 Q435.428,101.5313 434.7249,101.5313 Q432.2249,101.5313 430.8968,99.8906 Q429.5843,98.2344 429.5843,95.1094 Q429.5843,91.9844 430.8968,90.3281 Q432.2249,88.6719 434.7249,88.6719 Q435.428,88.6719 436.0687,88.8281 Q436.7249,88.9844 437.2874,89.2813 L437.2874,92 Q436.6624,91.4219 436.0687,91.1563 Q435.4749,90.875 434.8499,90.875 Q433.5062,90.875 432.8187,91.9531 Q432.1312,93.0156 432.1312,95.1094 Q432.1312,97.2031 432.8187,98.2813 Q433.5062,99.3438 434.8499,99.3438 Q435.4749,99.3438 436.0687,99.0781 Q436.6624,98.7969 437.2874,98.2188 L437.2874,100.9375 Z " fill="#000000"/><text fill="#000000" font-family="sans-serif" font-size="14" lengthAdjust="spacing" textLength="89.9473" x="451.7361" y="100.1436">BillingRouter</text><line style="stroke:#181818;stroke-width:0.5;" x1="404.94" x2="559.0621" y1="111.2969" y2="111.2969"/><text fill="#000000" font-family="sans-serif" font-size="14" lengthAdjust="spacing" textLength="139.084" x="409.94" y="128.292">+GET /billing/status</text><text fill="#000000" font-family="sans-serif" font-size="14" lengthAdjust="spacing" textLength="144.1221" x="409.94" y="144.5889">+GET /billing/costs/*</text><text fill="#000000" font-family="sans-serif" font-size="14" lengthAdjust="spacing" textLength="136.8691" x="409.94" y="160.8857">+POST /billing/sync</text><line style="stroke:#181818;stroke-width:0.5;" x1="404.94" x2="559.0621" y1="168.1875" y2="168.1875"/></g><!--class BillingService--><g class="entity" data-qualified-name="Servicios.BillingService" data-source-line="15" id="ent0005"><rect fill="#F1F1F1" height="80.5938" rx="2.5" ry="2.5" style="stroke:#181818;stroke-width:0.5;" width="136.7422" x="22.63" y="276.1869"/><ellipse cx="42.1652" cy="292.1869" fill="#ADD1B2" rx="11" ry="11" style="stroke:#181818;stroke-width:1;"/><path d="M45.1339,297.8275 Q44.5558,298.1244 43.9152,298.265 Q43.2745,298.4213 42.5714,298.4213 Q40.0714,298.4213 38.7433,296.7806 Q37.4308,295.1244 37.4308,291.9994 Q37.4308,288.8744 38.7433,287.2181 Q40.0714,285.5619 42.5714,285.5619 Q43.2745,285.5619 43.9152,285.7181 Q44.5714,285.8744 45.1339,286.1713 L45.1339,288.89 Q44.5089,288.3119 43.9152,288.0463 Q43.3214,287.765 42.6964,287.765 Q41.3527,287.765 40.6652,288.8431 Q39.9777,289.9056 39.9777,291.9994 Q39.9777,294.0931 40.6652,295.1713 Q41.3527,296.2338 42.6964,296.2338 Q43.3214,296.2338 43.9152,295.9681 Q44.5089,295.6869 45.1339,295.1088 L45.1339,297.8275 Z " fill="#000000"/><text fill="#000000" font-family="sans-serif" font-size="14" lengthAdjust="spacing" textLength="94.6641" x="57.173" y="297.0336">BillingService</text><line style="stroke:#181818;stroke-width:0.5;" x1="23.63" x2="158.3722" y1="308.1869" y2="308.1869"/><line style="stroke:#181818;stroke-width:0.5;" x1="23.63" x2="158.3722" y1="316.1869" y2="316.1869"/><text fill="#000000" font-family="sans-serif" font-size="14" lengthAdjust="spacing" textLength="124.7422" x="28.63" y="333.182">+agregarCostes()</text><text fill="#000000" font-family="sans-serif" font-size="14" lengthAdjust="spacing" textLength="99.1758" x="28.63" y="349.4789">+sincronizar()</text></g><!--class AWSBillingService--><g class="entity" data-qualified-name="Servicios.AWSBillingService" data-source-line="20" id="ent0006"><rect fill="#F1F1F1" height="64.2969" rx="2.5" ry="2.5" style="stroke:#181818;stroke-width:0.5;" width="158.9707" x="22.51" y="462.9269"/><ellipse cx="37.51" cy="478.9269" fill="#ADD1B2" rx="11" ry="11" style="stroke:#181818;stroke-width:1;"/><path d="M40.4788,484.5675 Q39.9006,484.8644 39.26,485.005 Q38.6194,485.1612 37.9163,485.1612 Q35.4163,485.1612 34.0881,483.5206 Q32.7756,481.8644 32.7756,478.7394 Q32.7756,475.6144 34.0881,473.9581 Q35.4163,472.3019 37.9163,472.3019 Q38.6194,472.3019 39.26,472.4581 Q39.9163,472.6144 40.4788,472.9112 L40.4788,475.63 Q39.8538,475.0519 39.26,474.7862 Q38.6663,474.505 38.0413,474.505 Q36.6975,474.505 36.01,475.5831 Q35.3225,476.6456 35.3225,478.7394 Q35.3225,480.8331 36.01,481.9112 Q36.6975,482.9737 38.0413,482.9737 Q38.6663,482.9737 39.26,482.7081 Q39.8538,482.4269 40.4788,481.8487 L40.4788,484.5675 Z " fill="#000000"/><text fill="#000000" font-family="sans-serif" font-size="14" lengthAdjust="spacing" textLength="126.9707" x="51.51" y="483.7736">AWSBillingService</text><line style="stroke:#181818;stroke-width:0.5;" x1="23.51" x2="180.4807" y1="494.9269" y2="494.9269"/><line style="stroke:#181818;stroke-width:0.5;" x1="23.51" x2="180.4807" y1="502.9269" y2="502.9269"/><text fill="#000000" font-family="sans-serif" font-size="14" lengthAdjust="spacing" textLength="139.248" x="28.51" y="519.922">+leerCostExplorer()</text></g><!--class LLMService--><g class="entity" data-qualified-name="Servicios.LLMService" data-source-line="24" id="ent0007"><rect fill="#F1F1F1" height="64.2969" rx="2.5" ry="2.5" style="stroke:#181818;stroke-width:0.5;" width="137.166" x="194.42" y="284.3369"/><ellipse cx="221.0057" cy="300.3369" fill="#ADD1B2" rx="11" ry="11" style="stroke:#181818;stroke-width:1;"/><path d="M223.9745,305.9775 Q223.3964,306.2744 222.7557,306.415 Q222.1151,306.5712 221.412,306.5712 Q218.912,306.5712 217.5839,304.9306 Q216.2714,303.2744 216.2714,300.1494 Q216.2714,297.0244 217.5839,295.3681 Q218.912,293.7119 221.412,293.7119 Q222.1151,293.7119 222.7557,293.8681 Q223.412,294.0244 223.9745,294.3212 L223.9745,297.04 Q223.3495,296.4619 222.7557,296.1962 Q222.162,295.915 221.537,295.915 Q220.1932,295.915 219.5057,296.9931 Q218.8182,298.0556 218.8182,300.1494 Q218.8182,302.2431 219.5057,303.3212 Q220.1932,304.3837 221.537,304.3837 Q222.162,304.3837 222.7557,304.1181 Q223.3495,303.8369 223.9745,303.2587 L223.9745,305.9775 Z " fill="#000000"/><text fill="#000000" font-family="sans-serif" font-size="14" lengthAdjust="spacing" textLength="79.4199" x="237.5804" y="305.1836">LLMService</text><line style="stroke:#181818;stroke-width:0.5;" x1="195.42" x2="330.586" y1="316.3369" y2="316.3369"/><line style="stroke:#181818;stroke-width:0.5;" x1="195.42" x2="330.586" y1="324.3369" y2="324.3369"/><text fill="#000000" font-family="sans-serif" font-size="14" lengthAdjust="spacing" textLength="125.166" x="200.42" y="341.332">+generarInsight()</text></g><!--class BillingRepository--><g class="entity" data-qualified-name="Persistencia.BillingRepository" data-source-line="30" id="ent0009"><rect fill="#F1F1F1" height="80.5938" rx="2.5" ry="2.5" style="stroke:#181818;stroke-width:0.5;" width="157.2227" x="388.39" y="454.7769"/><ellipse cx="406.6424" cy="470.7769" fill="#ADD1B2" rx="11" ry="11" style="stroke:#181818;stroke-width:1;"/><path d="M409.6111,476.4175 Q409.033,476.7144 408.3924,476.855 Q407.7518,477.0112 407.0486,477.0112 Q404.5486,477.0112 403.2205,475.3706 Q401.908,473.7144 401.908,470.5894 Q401.908,467.4644 403.2205,465.8081 Q404.5486,464.1519 407.0486,464.1519 Q407.7518,464.1519 408.3924,464.3081 Q409.0486,464.4644 409.6111,464.7612 L409.6111,467.48 Q408.9861,466.9019 408.3924,466.6362 Q407.7986,466.355 407.1736,466.355 Q405.8299,466.355 405.1424,467.4331 Q404.4549,468.4956 404.4549,470.5894 Q404.4549,472.6831 405.1424,473.7612 Q405.8299,474.8237 407.1736,474.8237 Q407.7986,474.8237 408.3924,474.5581 Q408.9861,474.2769 409.6111,473.6987 L409.6111,476.4175 Z " fill="#000000"/><text fill="#000000" font-family="sans-serif" font-size="14" lengthAdjust="spacing" textLength="117.9951" x="421.3651" y="475.6236">BillingRepository</text><line style="stroke:#181818;stroke-width:0.5;" x1="389.39" x2="544.6127" y1="486.7769" y2="486.7769"/><line style="stroke:#181818;stroke-width:0.5;" x1="389.39" x2="544.6127" y1="494.7769" y2="494.7769"/><text fill="#000000" font-family="sans-serif" font-size="14" lengthAdjust="spacing" textLength="145.2227" x="394.39" y="511.772">+buscarPorPeriodo()</text><text fill="#000000" font-family="sans-serif" font-size="14" lengthAdjust="spacing" textLength="128.9121" x="394.39" y="528.0689">+updateOrInsert()</text></g><!--class BillingData--><g class="entity" data-qualified-name="Persistencia.BillingData" data-source-line="35" id="ent0010"><rect fill="#F1F1F1" height="129.4844" rx="2.5" ry="2.5" style="stroke:#181818;stroke-width:0.5;" width="112.3105" x="436.84" y="612.3769"/><ellipse cx="453.622" cy="628.3769" fill="#ADD1B2" rx="11" ry="11" style="stroke:#181818;stroke-width:1;"/><path d="M456.5907,634.0175 Q456.0126,634.3144 455.372,634.455 Q454.7314,634.6112 454.0282,634.6112 Q451.5282,634.6112 450.2001,632.9706 Q448.8876,631.3144 448.8876,628.1894 Q448.8876,625.0644 450.2001,623.4081 Q451.5282,621.7519 454.0282,621.7519 Q454.7314,621.7519 455.372,621.9081 Q456.0282,622.0644 456.5907,622.3612 L456.5907,625.08 Q455.9657,624.5019 455.372,624.2362 Q454.7782,623.955 454.1532,623.955 Q452.8095,623.955 452.122,625.0331 Q451.4345,626.0956 451.4345,628.1894 Q451.4345,630.2831 452.122,631.3612 Q452.8095,632.4237 454.1532,632.4237 Q454.7782,632.4237 455.372,632.1581 Q455.9657,631.8769 456.5907,631.2987 L456.5907,634.0175 Z " fill="#000000"/><text fill="#000000" font-family="sans-serif" font-size="14" lengthAdjust="spacing" textLength="76.3506" x="468.018" y="633.2236">BillingData</text><line style="stroke:#181818;stroke-width:0.5;" x1="437.84" x2="548.1505" y1="644.3769" y2="644.3769"/><text fill="#000000" font-family="sans-serif" font-size="14" lengthAdjust="spacing" textLength="100.3105" x="442.84" y="661.372">organizationId</text><text fill="#000000" font-family="sans-serif" font-size="14" lengthAdjust="spacing" textLength="58.6387" x="442.84" y="677.6689">provider</text><text fill="#000000" font-family="sans-serif" font-size="14" lengthAdjust="spacing" textLength="74.1836" x="442.84" y="693.9657">resourceId</text><text fill="#000000" font-family="sans-serif" font-size="14" lengthAdjust="spacing" textLength="44.5977" x="442.84" y="710.2626">period</text><text fill="#000000" font-family="sans-serif" font-size="14" lengthAdjust="spacing" textLength="29.0459" x="442.84" y="726.5595">cost</text><line style="stroke:#181818;stroke-width:0.5;" x1="437.84" x2="548.1505" y1="733.8612" y2="733.8612"/></g><!--class Agent--><g class="entity" data-qualified-name="Persistencia.Agent" data-source-line="43" id="ent0011"><rect fill="#F1F1F1" height="48" rx="2.5" ry="2.5" style="stroke:#181818;stroke-width:0.5;" width="73.4395" x="541.28" y="818.8569"/><ellipse cx="556.28" cy="834.8569" fill="#ADD1B2" rx="11" ry="11" style="stroke:#181818;stroke-width:1;"/><path d="M559.2488,840.4975 Q558.6706,840.7944 558.03,840.935 Q557.3894,841.0913 556.6863,841.0913 Q554.1863,841.0913 552.8581,839.4506 Q551.5456,837.7944 551.5456,834.6694 Q551.5456,831.5444 552.8581,829.8881 Q554.1863,828.2319 556.6863,828.2319 Q557.3894,828.2319 558.03,828.3881 Q558.6863,828.5444 559.2488,828.8413 L559.2488,831.56 Q558.6238,830.9819 558.03,830.7163 Q557.4363,830.435 556.8113,830.435 Q555.4675,830.435 554.78,831.5131 Q554.0925,832.5756 554.0925,834.6694 Q554.0925,836.7631 554.78,837.8413 Q555.4675,838.9038 556.8113,838.9038 Q557.4363,838.9038 558.03,838.6381 Q558.6238,838.3569 559.2488,837.7788 L559.2488,840.4975 Z " fill="#000000"/><text fill="#000000" font-family="sans-serif" font-size="14" lengthAdjust="spacing" textLength="41.4395" x="570.28" y="839.7036">Agent</text><line style="stroke:#181818;stroke-width:0.5;" x1="542.28" x2="613.7195" y1="850.8569" y2="850.8569"/><line style="stroke:#181818;stroke-width:0.5;" x1="542.28" x2="613.7195" y1="858.8569" y2="858.8569"/></g><!--class AuditLog--><g class="entity" data-qualified-name="Persistencia.AuditLog" data-source-line="44" id="ent0012"><rect fill="#F1F1F1" height="48" rx="2.5" ry="2.5" style="stroke:#181818;stroke-width:0.5;" width="93.9678" x="581.02" y="471.0769"/><ellipse cx="596.02" cy="487.0769" fill="#ADD1B2" rx="11" ry="11" style="stroke:#181818;stroke-width:1;"/><path d="M598.9888,492.7175 Q598.4106,493.0144 597.77,493.155 Q597.1294,493.3113 596.4263,493.3113 Q593.9263,493.3113 592.5981,491.6706 Q591.2856,490.0144 591.2856,486.8894 Q591.2856,483.7644 592.5981,482.1081 Q593.9263,480.4519 596.4263,480.4519 Q597.1294,480.4519 597.77,480.6081 Q598.4263,480.7644 598.9888,481.0613 L598.9888,483.78 Q598.3638,483.2019 597.77,482.9363 Q597.1763,482.655 596.5513,482.655 Q595.2075,482.655 594.52,483.7331 Q593.8325,484.7956 593.8325,486.8894 Q593.8325,488.9831 594.52,490.0613 Q595.2075,491.1238 596.5513,491.1238 Q597.1763,491.1238 597.77,490.8581 Q598.3638,490.5769 598.9888,489.9988 L598.9888,492.7175 Z " fill="#000000"/><text fill="#000000" font-family="sans-serif" font-size="14" lengthAdjust="spacing" textLength="61.9678" x="610.02" y="491.9236">AuditLog</text><line style="stroke:#181818;stroke-width:0.5;" x1="582.02" x2="673.9878" y1="503.0769" y2="503.0769"/><line style="stroke:#181818;stroke-width:0.5;" x1="582.02" x2="673.9878" y1="511.0769" y2="511.0769"/></g><!--class BillingStatusResponse--><g class="entity" data-qualified-name="Schemas.BillingStatusResponse" data-source-line="48" id="ent0014"><rect fill="#F1F1F1" height="48" rx="2.5" ry="2.5" style="stroke:#181818;stroke-width:0.5;" width="187.4014" x="388.3" y="292.4769"/><ellipse cx="403.3" cy="308.4769" fill="#ADD1B2" rx="11" ry="11" style="stroke:#181818;stroke-width:1;"/><path d="M406.2688,314.1175 Q405.6906,314.4144 405.05,314.555 Q404.4094,314.7112 403.7063,314.7112 Q401.2063,314.7112 399.8781,313.0706 Q398.5656,311.4144 398.5656,308.2894 Q398.5656,305.1644 399.8781,303.5081 Q401.2063,301.8519 403.7063,301.8519 Q404.4094,301.8519 405.05,302.0081 Q405.7063,302.1644 406.2688,302.4612 L406.2688,305.18 Q405.6438,304.6019 405.05,304.3362 Q404.4563,304.055 403.8313,304.055 Q402.4875,304.055 401.8,305.1331 Q401.1125,306.1956 401.1125,308.2894 Q401.1125,310.3831 401.8,311.4612 Q402.4875,312.5237 403.8313,312.5237 Q404.4563,312.5237 405.05,312.2581 Q405.6438,311.9769 406.2688,311.3987 L406.2688,314.1175 Z " fill="#000000"/><text fill="#000000" font-family="sans-serif" font-size="14" lengthAdjust="spacing" textLength="155.4014" x="417.3" y="313.3236">BillingStatusResponse</text><line style="stroke:#181818;stroke-width:0.5;" x1="389.3" x2="574.7014" y1="324.4769" y2="324.4769"/><line style="stroke:#181818;stroke-width:0.5;" x1="389.3" x2="574.7014" y1="332.4769" y2="332.4769"/></g><!--class BillingCostSummary--><g class="entity" data-qualified-name="Schemas.BillingCostSummary" data-source-line="49" id="ent0015"><rect fill="#F1F1F1" height="48" rx="2.5" ry="2.5" style="stroke:#181818;stroke-width:0.5;" width="173.7021" x="611.15" y="292.4769"/><ellipse cx="626.15" cy="308.4769" fill="#ADD1B2" rx="11" ry="11" style="stroke:#181818;stroke-width:1;"/><path d="M629.1188,314.1175 Q628.5406,314.4144 627.9,314.555 Q627.2594,314.7112 626.5563,314.7112 Q624.0563,314.7112 622.7281,313.0706 Q621.4156,311.4144 621.4156,308.2894 Q621.4156,305.1644 622.7281,303.5081 Q624.0563,301.8519 626.5563,301.8519 Q627.2594,301.8519 627.9,302.0081 Q628.5563,302.1644 629.1188,302.4612 L629.1188,305.18 Q628.4938,304.6019 627.9,304.3362 Q627.3063,304.055 626.6813,304.055 Q625.3375,304.055 624.65,305.1331 Q623.9625,306.1956 623.9625,308.2894 Q623.9625,310.3831 624.65,311.4612 Q625.3375,312.5237 626.6813,312.5237 Q627.3063,312.5237 627.9,312.2581 Q628.4938,311.9769 629.1188,311.3987 L629.1188,314.1175 Z " fill="#000000"/><text fill="#000000" font-family="sans-serif" font-size="14" lengthAdjust="spacing" textLength="141.7021" x="640.15" y="313.3236">BillingCostSummary</text><line style="stroke:#181818;stroke-width:0.5;" x1="612.15" x2="783.8521" y1="324.4769" y2="324.4769"/><line style="stroke:#181818;stroke-width:0.5;" x1="612.15" x2="783.8521" y1="332.4769" y2="332.4769"/></g><!--class BillingInsightsResponse--><g class="entity" data-qualified-name="Schemas.BillingInsightsResponse" data-source-line="50" id="ent0016"><rect fill="#F1F1F1" height="48" rx="2.5" ry="2.5" style="stroke:#181818;stroke-width:0.5;" width="197.5186" x="820.24" y="292.4769"/><ellipse cx="835.24" cy="308.4769" fill="#ADD1B2" rx="11" ry="11" style="stroke:#181818;stroke-width:1;"/><path d="M838.2088,314.1175 Q837.6306,314.4144 836.99,314.555 Q836.3494,314.7112 835.6463,314.7112 Q833.1463,314.7112 831.8181,313.0706 Q830.5056,311.4144 830.5056,308.2894 Q830.5056,305.1644 831.8181,303.5081 Q833.1463,301.8519 835.6463,301.8519 Q836.3494,301.8519 836.99,302.0081 Q837.6463,302.1644 838.2088,302.4612 L838.2088,305.18 Q837.5838,304.6019 836.99,304.3362 Q836.3963,304.055 835.7713,304.055 Q834.4275,304.055 833.74,305.1331 Q833.0525,306.1956 833.0525,308.2894 Q833.0525,310.3831 833.74,311.4612 Q834.4275,312.5237 835.7713,312.5237 Q836.3963,312.5237 836.99,312.2581 Q837.5838,311.9769 838.2088,311.3987 L838.2088,314.1175 Z " fill="#000000"/><text fill="#000000" font-family="sans-serif" font-size="14" lengthAdjust="spacing" textLength="165.5186" x="849.24" y="313.3236">BillingInsightsResponse</text><line style="stroke:#181818;stroke-width:0.5;" x1="821.24" x2="1016.7586" y1="324.4769" y2="324.4769"/><line style="stroke:#181818;stroke-width:0.5;" x1="821.24" x2="1016.7586" y1="332.4769" y2="332.4769"/></g><!--link BillingRouter to BillingService--><g class="link" data-entity-1="ent0003" data-entity-2="ent0005" data-link-type="dependency" data-source-line="53" id="lnk17"><path codeLine="53" d="M403.71,145.5869 C339.57,161.6569 248.12,189.9069 177,233.1869 C158.11,244.6769 144.1853,256.6574 129.4853,271.6874" fill="none" id="BillingRouter-to-BillingService" style="stroke:#181818;stroke-width:1;"/><polygon fill="#181818" points="125.29,275.9769,134.4426,272.3395,128.7861,272.4023,128.7233,266.7458,125.29,275.9769" style="stroke:#181818;stroke-width:1;"/></g><!--link BillingRouter to LLMService--><g class="link" data-entity-1="ent0003" data-entity-2="ent0007" data-link-type="dependency" data-source-line="54" id="lnk18"><path codeLine="54" d="M425.89,176.5869 C386.35,210.3069 339.0752,250.6134 304.6152,280.0034" fill="none" id="BillingRouter-to-LLMService" style="stroke:#181818;stroke-width:1;"/><polygon fill="#181818" points="300.05,283.8969,309.4934,281.1001,303.8543,280.6523,304.3021,275.0132,300.05,283.8969" style="stroke:#181818;stroke-width:1;"/><text fill="#000000" font-family="sans-serif" font-size="13" lengthAdjust="spacing" textLength="50.5972" x="386" y="221.2538">insights</text></g><!--link BillingRouter to BillingStatusResponse--><g class="link" data-entity-1="ent0003" data-entity-2="ent0014" data-link-type="dependency" data-source-line="55" id="lnk19"><path codeLine="55" d="M482,176.3469 C482,213.4069 482,257.2569 482,286.1269" fill="none" id="BillingRouter-to-BillingStatusResponse" style="stroke:#181818;stroke-width:1;"/><polygon fill="#181818" points="482,292.1269,486,283.1269,482,287.1269,478,283.1269,482,292.1269" style="stroke:#181818;stroke-width:1;"/></g><!--link BillingRouter to BillingCostSummary--><g class="link" data-entity-1="ent0003" data-entity-2="ent0015" data-link-type="dependency" data-source-line="56" id="lnk20"><path codeLine="56" d="M537.34,176.5869 C580.22,213.6569 633.2106,259.4734 666.5206,288.2634" fill="none" id="BillingRouter-to-BillingCostSummary" style="stroke:#181818;stroke-width:1;"/><polygon fill="#181818" points="671.06,292.1869,666.8665,283.2754,667.2771,288.9173,661.6352,289.328,671.06,292.1869" style="stroke:#181818;stroke-width:1;"/></g><!--link BillingRouter to BillingInsightsResponse--><g class="link" data-entity-1="ent0003" data-entity-2="ent0016" data-link-type="dependency" data-source-line="57" id="lnk21"><path codeLine="57" d="M560.51,147.3569 C626.91,164.7269 723.49,193.8669 802,233.1869 C834.64,249.5269 863.6787,270.5089 886.4787,288.5889" fill="none" id="BillingRouter-to-BillingInsightsResponse" style="stroke:#181818;stroke-width:1;"/><polygon fill="#181818" points="891.18,292.3169,886.6135,283.5907,887.2623,289.2102,881.6428,289.859,891.18,292.3169" style="stroke:#181818;stroke-width:1;"/></g><!--link BillingService to BillingRepository--><g class="link" data-entity-1="ent0005" data-entity-2="ent0009" data-link-type="dependency" data-source-line="59" id="lnk22"><path codeLine="59" d="M159.8,356.8569 C165.54,359.5969 171.32,362.1769 177,364.4769 C250.08,394.0969 276.57,378.3769 348,411.7769 C372.35,423.1669 392.2863,435.8658 412.8863,450.9258" fill="none" id="BillingService-to-BillingRepository" style="stroke:#181818;stroke-width:1;"/><polygon fill="#181818" points="417.73,454.4669,412.8252,445.9262,413.6936,451.516,408.1038,452.3844,417.73,454.4669" style="stroke:#181818;stroke-width:1;"/></g><!--link BillingService to AWSBillingService--><g class="link" data-entity-1="ent0005" data-entity-2="ent0006" data-link-type="dependency" data-source-line="60" id="lnk23"><path codeLine="60" d="M93.47,357.1169 C95.45,388.9469 97.8283,427.0484 99.6583,456.5284" fill="none" id="BillingService-to-AWSBillingService" style="stroke:#181818;stroke-width:1;"/><polygon fill="#181818" points="100.03,462.5169,103.4647,453.2863,99.7202,457.5265,95.4801,453.782,100.03,462.5169" style="stroke:#181818;stroke-width:1;"/><text fill="#000000" font-family="sans-serif" font-size="13" lengthAdjust="spacing" textLength="92.6631" x="98" y="399.8438">sincronizacion</text></g><!--link BillingService to Agent--><g class="link" data-entity-1="ent0005" data-entity-2="ent0011" data-link-type="dependency" data-source-line="61" id="lnk24"><path codeLine="61" d="M156.88,357.2369 C163.52,360.0869 170.29,362.5869 177,364.4769 C363.71,417.2869 422.06,352.2769 613,386.7769 C649.24,393.3269 670.24,382.0669 692,411.7769 C731.44,465.6269 681.98,757.4669 662,788.8569 C650.98,806.1669 637.4203,816.1411 620.3203,824.7411" fill="none" id="BillingService-to-Agent" style="stroke:#181818;stroke-width:1;"/><polygon fill="#181818" points="614.96,827.4369,624.7976,826.9667,619.4269,825.1904,621.2032,819.8196,614.96,827.4369" style="stroke:#181818;stroke-width:1;"/><text fill="#000000" font-family="sans-serif" font-size="13" lengthAdjust="spacing" textLength="61.2168" x="704" y="578.4438">matching</text></g><!--link BillingService to AuditLog--><g class="link" data-entity-1="ent0005" data-entity-2="ent0012" data-link-type="dependency" data-source-line="62" id="lnk25"><path codeLine="62" d="M158,357.1669 C164.29,359.9469 170.68,362.4469 177,364.4769 C341.54,417.3769 412.33,327.0869 563,411.7769 C586.97,425.2469 602.2929,446.2576 613.2829,465.4876" fill="none" id="BillingService-to-AuditLog" style="stroke:#181818;stroke-width:1;"/><polygon fill="#181818" points="616.26,470.6969,615.2672,460.8982,613.7791,466.3558,608.3215,464.8677,616.26,470.6969" style="stroke:#181818;stroke-width:1;"/><text fill="#000000" font-family="sans-serif" font-size="13" lengthAdjust="spacing" textLength="58.043" x="546" y="399.8438">auditoria</text></g><!--link BillingRepository to BillingData--><g class="link" data-entity-1="ent0009" data-entity-2="ent0010" data-link-type="dependency" data-source-line="64" id="lnk26"><path codeLine="64" d="M472.71,535.5869 C475.93,557.9469 479.1927,580.5084 482.8727,605.9984" fill="none" id="BillingRepository-to-BillingData" style="stroke:#181818;stroke-width:1;"/><polygon fill="#181818" points="483.73,611.9369,486.403,602.4577,483.0156,606.9882,478.485,603.6008,483.73,611.9369" style="stroke:#181818;stroke-width:1;"/></g><!--link BillingData to Agent--><g class="link" data-entity-1="ent0010" data-entity-2="ent0011" data-link-type="dependency" data-source-line="65" id="lnk27"><path codeLine="65" d="M526.11,741.8869 C540.09,768.8269 552.7349,793.192 563.1049,813.162" fill="none" id="BillingData-to-Agent" style="stroke:#181818;stroke-width:1;"/><polygon fill="#181818" points="565.87,818.4869,565.2723,808.6562,563.5658,814.0495,558.1724,812.343,565.87,818.4869" style="stroke:#181818;stroke-width:1;"/><text fill="#000000" font-family="sans-serif" font-size="13" lengthAdjust="spacing" textLength="104.4189" x="549" y="784.9238">agente opcional</text></g><?plantuml-src VLFBRjj03BphAnOvzG73FUTGm4tIme036r61dkaL8HEHbW991NMA_7jNhqgMbPuaaSCPFaRwJA42WTBv0bGtPaB7sd3hEQJqYkvBelyW5VXdo36rSu5Eq1k4lC0aCR8Ok8i4g2v3bv5YOBToZvpL1Rll5FQL9abVxsusX-sD-vEuJjHzewAWa3zn59Osxjpd7my_tVhOPTPgOBKk93ohwVfJbpdiqsdDEVWOVqlU9iefoWjvObtGxt8uD02vO0vo5nLGFtpiWah12mTw1Mb3aNjWsVnAbuaAn9RbuNTLiE1LuMxtEAl8CQ20R8DIVh8UFntZWA8K-mgUO6cJMB6IiPm7ncEj7kJ04Yk9CnxcgQiC3FUD58hDE-lfxi6W9sB9ePdUYCCsQqELy0jbAEs7e78j7eTSgzQ-DfUQBIoEQUDNdP7jEByybpzX2Ol7QXtnX5fnR7sURTQTrcK9Sfwd-gMEfL7lqe2hrTUP9HO0awFTEkev_qDqsUwxk6dZxuAkHaXcnfjWHoiiWQuzU-j6YyV_92nMDOUBo1BCds9k4TEVCyAWUMKX61Sz-dFIQcEpP6gvgHOqJtHSDKr1yHS0?></g></svg>