<svg xmlns="http://www.w3.org/2000/svg" xmlns:xlink="http://www.w3.org/1999/xlink" contentStyleType="text/css" data-diagram-type="ACTIVITY" height="468px" preserveAspectRatio="none" style="width:590px;height:468px;background:#FFFFFF;" version="1.1" viewBox="0 0 590 468" width="590px" zoomAndPan="magnify"><?plantuml 1.2026.4beta2?><defs/><g><g class="title" data-source-line="1"><text fill="#000000" font-family="sans-serif" font-size="14" font-weight="700" lengthAdjust="spacing" textLength="338.8096" x="124.6323" y="32.9951">CU-07 - Consultar coste total de IA en AWS</text></g><ellipse cx="304.4219" cy="62.2969" fill="#222222" rx="10" ry="10" style="stroke:#222222;stroke-width:1;"/><rect fill="#F1F1F1" height="33.9688" rx="12.5" ry="12.5" style="stroke:#181818;stroke-width:0.5;" width="210.3066" x="199.2686" y="92.2969"/><text fill="#000000" font-family="sans-serif" font-size="12" lengthAdjust="spacing" textLength="190.3066" x="209.2686" y="113.4355">Actor solicita revisar coste total</text><rect fill="#F1F1F1" height="33.9688" rx="12.5" ry="12.5" style="stroke:#181818;stroke-width:0.5;" width="240.0137" x="184.415" y="146.2656"/><text fill="#000000" font-family="sans-serif" font-size="12" lengthAdjust="spacing" textLength="220.0137" x="194.415" y="167.4043">Sistema presenta periodo disponible</text><polygon fill="#F1F1F1" points="214.4722,200.2344,394.3716,200.2344,406.3716,212.2344,394.3716,224.2344,214.4722,224.2344,202.4722,212.2344,214.4722,200.2344" style="stroke:#181818;stroke-width:0.5;"/><text fill="#000000" font-family="sans-serif" font-size="11" lengthAdjust="spacing" textLength="179.8994" x="214.4722" y="216.0425">Acceso a informacion de costes?</text><text fill="#000000" font-family="sans-serif" font-size="11" lengthAdjust="spacing" textLength="8.7871" x="193.6851" y="209.6401">si</text><text fill="#000000" font-family="sans-serif" font-size="11" lengthAdjust="spacing" textLength="13.7017" x="406.3716" y="209.6401">no</text><rect fill="#F1F1F1" height="33.9688" rx="12.5" ry="12.5" style="stroke:#181818;stroke-width:0.5;" width="181.6719" x="70.0674" y="234.2344"/><text fill="#000000" font-family="sans-serif" font-size="12" lengthAdjust="spacing" textLength="161.6719" x="80.0674" y="255.373">Sistema calcula coste total</text><rect fill="#F1F1F1" height="33.9688" rx="12.5" ry="12.5" style="stroke:#181818;stroke-width:0.5;" width="239.5684" x="41.1191" y="288.2031"/><text fill="#000000" font-family="sans-serif" font-size="12" lengthAdjust="spacing" textLength="219.5684" x="51.1191" y="309.3418">Sistema conserva gasto no asociado</text><rect fill="#F1F1F1" height="33.9688" rx="12.5" ry="12.5" style="stroke:#181818;stroke-width:0.5;" width="289.8066" x="16" y="342.1719"/><text fill="#000000" font-family="sans-serif" font-size="12" lengthAdjust="spacing" textLength="269.8066" x="26" y="363.3105">Sistema muestra importe, moneda y periodo</text><rect fill="#F1F1F1" height="33.9688" rx="12.5" ry="12.5" style="stroke:#181818;stroke-width:0.5;" width="244.2676" x="325.8066" y="234.2344"/><text fill="#000000" font-family="sans-serif" font-size="12" lengthAdjust="spacing" textLength="224.2676" x="335.8066" y="255.373">Sistema informa condicion pendiente</text><polygon fill="#F1F1F1" points="304.4219,382.1406,316.4219,394.1406,304.4219,406.1406,292.4219,394.1406,304.4219,382.1406" style="stroke:#181818;stroke-width:0.5;"/><ellipse cx="304.4219" cy="437.1406" fill="none" rx="11" ry="11" style="stroke:#222222;stroke-width:1;"/><ellipse cx="304.4219" cy="437.1406" fill="#222222" rx="6" ry="6" style="stroke:#222222;stroke-width:1;"/><line style="stroke:#181818;stroke-width:1;" x1="304.4219" x2="304.4219" y1="72.2969" y2="92.2969"/><polygon fill="#181818" points="300.4219,82.2969,304.4219,92.2969,308.4219,82.2969,304.4219,86.2969" style="stroke:#181818;stroke-width:1;"/><line style="stroke:#181818;stroke-width:1;" x1="304.4219" x2="304.4219" y1="126.2656" y2="146.2656"/><polygon fill="#181818" points="300.4219,136.2656,304.4219,146.2656,308.4219,136.2656,304.4219,140.2656" style="stroke:#181818;stroke-width:1;"/><line style="stroke:#181818;stroke-width:1;" x1="160.9033" x2="160.9033" y1="268.2031" y2="288.2031"/><polygon fill="#181818" points="156.9033,278.2031,160.9033,288.2031,164.9033,278.2031,160.9033,282.2031" style="stroke:#181818;stroke-width:1;"/><line style="stroke:#181818;stroke-width:1;" x1="160.9033" x2="160.9033" y1="322.1719" y2="342.1719"/><polygon fill="#181818" points="156.9033,332.1719,160.9033,342.1719,164.9033,332.1719,160.9033,336.1719" style="stroke:#181818;stroke-width:1;"/><line style="stroke:#181818;stroke-width:1;" x1="202.4722" x2="160.9033" y1="212.2344" y2="212.2344"/><line style="stroke:#181818;stroke-width:1;" x1="160.9033" x2="160.9033" y1="212.2344" y2="234.2344"/><polygon fill="#181818" points="156.9033,224.2344,160.9033,234.2344,164.9033,224.2344,160.9033,228.2344" style="stroke:#181818;stroke-width:1;"/><line style="stroke:#181818;stroke-width:1;" x1="406.3716" x2="447.9404" y1="212.2344" y2="212.2344"/><line style="stroke:#181818;stroke-width:1;" x1="447.9404" x2="447.9404" y1="212.2344" y2="234.2344"/><polygon fill="#181818" points="443.9404,224.2344,447.9404,234.2344,451.9404,224.2344,447.9404,228.2344" style="stroke:#181818;stroke-width:1;"/><line style="stroke:#181818;stroke-width:1;" x1="160.9033" x2="160.9033" y1="376.1406" y2="394.1406"/><line style="stroke:#181818;stroke-width:1;" x1="160.9033" x2="292.4219" y1="394.1406" y2="394.1406"/><polygon fill="#181818" points="282.4219,390.1406,292.4219,394.1406,282.4219,398.1406,286.4219,394.1406" style="stroke:#181818;stroke-width:1;"/><line style="stroke:#181818;stroke-width:1;" x1="447.9404" x2="447.9404" y1="268.2031" y2="394.1406"/><line style="stroke:#181818;stroke-width:1;" x1="447.9404" x2="316.4219" y1="394.1406" y2="394.1406"/><polygon fill="#181818" points="326.4219,390.1406,316.4219,394.1406,326.4219,398.1406,322.4219,394.1406" style="stroke:#181818;stroke-width:1;"/><line style="stroke:#181818;stroke-width:1;" x1="304.4219" x2="304.4219" y1="180.2344" y2="200.2344"/><polygon fill="#181818" points="300.4219,190.2344,304.4219,200.2344,308.4219,190.2344,304.4219,194.2344" style="stroke:#181818;stroke-width:1;"/><line style="stroke:#181818;stroke-width:1;" x1="304.4219" x2="304.4219" y1="406.1406" y2="426.1406"/><polygon fill="#181818" points="300.4219,416.1406,304.4219,426.1406,308.4219,416.1406,304.4219,420.1406" style="stroke:#181818;stroke-width:1;"/><?plantuml-src LP0nQmCn38Lt_uetNg21ReNSK8vCdKFfhDYwLk2pZAKBzD_75zhIsoJqfEyzkNXcdD-Fpoyuugp5rkpK4DMSuUgKaHXl4xXW-hY4O7tiuJH5rmRJB56SqFWcjjyRm-aYlLi8jR5nwRBAJJGfabZL8jVCOv0PmnGZcu8WPTQsK1Gj6_TnpbuFyA_E7qmE0VWx6od7DTCU-d_Uut2x4Jx9N54wm3GA9Tt9bfNDMsSlLPlp4nOjd0ZVltR7mDaOGz4T_iVhXadoS5ovLpreJxLLSt-MrZi0?></g></svg>