<svg xmlns="http://www.w3.org/2000/svg" xmlns:xlink="http://www.w3.org/1999/xlink" contentStyleType="text/css" data-diagram-type="ACTIVITY" height="1285px" preserveAspectRatio="none" style="width:398px;height:1285px;background:#FFFFFF;" version="1.1" viewBox="0 0 398 1285" width="398px" zoomAndPan="magnify"><?plantuml 1.2026.4beta2?><defs/><g><g class="title" data-source-line="1"><text fill="#000000" font-family="sans-serif" font-size="14" font-weight="700" lengthAdjust="spacing" textLength="284.3477" x="55.9658" y="32.9951">Actividad - Sincronizacion de costes</text></g><ellipse cx="196.1396" cy="62.2969" fill="#222222" rx="10" ry="10" style="stroke:#222222;stroke-width:1;"/><rect fill="#F1F1F1" height="33.9688" rx="12.5" ry="12.5" style="stroke:#181818;stroke-width:0.5;" width="240.3418" x="75.9688" y="92.2969"/><text fill="#000000" font-family="sans-serif" font-size="12" lengthAdjust="spacing" textLength="220.3418" x="85.9688" y="113.4355">Administrador solicita sincronizacion</text><rect fill="#F1F1F1" height="33.9688" rx="12.5" ry="12.5" style="stroke:#181818;stroke-width:0.5;" width="201.8223" x="95.2285" y="146.2656"/><text fill="#000000" font-family="sans-serif" font-size="12" lengthAdjust="spacing" textLength="181.8223" x="105.2285" y="167.4043">Validar usuario y organizacion</text><rect fill="#F1F1F1" height="33.9688" rx="12.5" ry="12.5" style="stroke:#181818;stroke-width:0.5;" width="198.043" x="97.1182" y="200.2344"/><text fill="#000000" font-family="sans-serif" font-size="12" lengthAdjust="spacing" textLength="178.043" x="107.1182" y="221.373">Recuperar credenciales cloud</text><rect fill="#F1F1F1" height="33.9688" rx="12.5" ry="12.5" style="stroke:#181818;stroke-width:0.5;" width="226.3262" x="82.9766" y="302.6055"/><text fill="#000000" font-family="sans-serif" font-size="12" lengthAdjust="spacing" textLength="206.3262" x="92.9766" y="323.7441">Finalizar sin sincronizar proveedor</text><ellipse cx="196.1396" cy="376.0898" fill="none" rx="11" ry="11" style="stroke:#222222;stroke-width:1;"/><ellipse cx="196.1396" cy="376.0898" fill="#222222" rx="6" ry="6" style="stroke:#222222;stroke-width:1;"/><polygon fill="#F1F1F1" points="124.9028,254.2031,267.3765,254.2031,279.3765,266.2031,267.3765,278.2031,124.9028,278.2031,112.9028,266.2031,124.9028,254.2031" style="stroke:#181818;stroke-width:0.5;"/><text fill="#000000" font-family="sans-serif" font-size="11" lengthAdjust="spacing" textLength="13.7017" x="200.1396" y="288.4136">no</text><text fill="#000000" font-family="sans-serif" font-size="11" lengthAdjust="spacing" textLength="142.4736" x="124.9028" y="270.0112">Credenciales disponibles?</text><text fill="#000000" font-family="sans-serif" font-size="11" lengthAdjust="spacing" textLength="8.7871" x="279.3765" y="263.6089">si</text><rect fill="#F1F1F1" height="33.9688" rx="12.5" ry="12.5" style="stroke:#181818;stroke-width:0.5;" width="230.1816" x="81.0488" y="429.0898"/><text fill="#000000" font-family="sans-serif" font-size="12" lengthAdjust="spacing" textLength="210.1816" x="91.0488" y="450.2285">Descifrar credenciales en memoria</text><rect fill="#F1F1F1" height="33.9688" rx="12.5" ry="12.5" style="stroke:#181818;stroke-width:0.5;" width="247.5898" x="72.3447" y="531.4609"/><text fill="#000000" font-family="sans-serif" font-size="12" lengthAdjust="spacing" textLength="227.5898" x="82.3447" y="552.5996">Registrar incidencia de sincronizacion</text><ellipse cx="196.1396" cy="604.9453" fill="none" rx="11" ry="11" style="stroke:#222222;stroke-width:1;"/><ellipse cx="196.1396" cy="604.9453" fill="#222222" rx="6" ry="6" style="stroke:#222222;stroke-width:1;"/><polygon fill="#F1F1F1" points="136.5178,483.0586,255.7615,483.0586,267.7615,495.0586,255.7615,507.0586,136.5178,507.0586,124.5178,495.0586,136.5178,483.0586" style="stroke:#181818;stroke-width:0.5;"/><text fill="#000000" font-family="sans-serif" font-size="11" lengthAdjust="spacing" textLength="13.7017" x="200.1396" y="517.269">no</text><text fill="#000000" font-family="sans-serif" font-size="11" lengthAdjust="spacing" textLength="119.2437" x="136.5178" y="498.8667">Credenciales validas?</text><text fill="#000000" font-family="sans-serif" font-size="11" lengthAdjust="spacing" textLength="8.7871" x="267.7615" y="492.4644">si</text><rect fill="#F1F1F1" height="33.9688" rx="12.5" ry="12.5" style="stroke:#181818;stroke-width:0.5;" width="193.5488" x="99.3652" y="657.9453"/><text fill="#000000" font-family="sans-serif" font-size="12" lengthAdjust="spacing" textLength="173.5488" x="109.3652" y="679.084">Consultar AWS Cost Explorer</text><rect fill="#F1F1F1" height="33.9688" rx="12.5" ry="12.5" style="stroke:#181818;stroke-width:0.5;" width="230.3047" x="80.9873" y="760.3164"/><text fill="#000000" font-family="sans-serif" font-size="12" lengthAdjust="spacing" textLength="210.3047" x="90.9873" y="781.4551">Guardar resultado con error visible</text><ellipse cx="196.1396" cy="833.8008" fill="none" rx="11" ry="11" style="stroke:#222222;stroke-width:1;"/><ellipse cx="196.1396" cy="833.8008" fill="#222222" rx="6" ry="6" style="stroke:#222222;stroke-width:1;"/><polygon fill="#F1F1F1" points="139.8022,711.9141,252.4771,711.9141,264.4771,723.9141,252.4771,735.9141,139.8022,735.9141,127.8022,723.9141,139.8022,711.9141" style="stroke:#181818;stroke-width:0.5;"/><text fill="#000000" font-family="sans-serif" font-size="11" lengthAdjust="spacing" textLength="13.7017" x="200.1396" y="746.1245">no</text><text fill="#000000" font-family="sans-serif" font-size="11" lengthAdjust="spacing" textLength="112.6748" x="139.8022" y="727.7222">Respuesta correcta?</text><text fill="#000000" font-family="sans-serif" font-size="11" lengthAdjust="spacing" textLength="8.7871" x="264.4771" y="721.3198">si</text><rect fill="#F1F1F1" height="33.9688" rx="12.5" ry="12.5" style="stroke:#181818;stroke-width:0.5;" width="249.8926" x="71.1934" y="886.8008"/><text fill="#000000" font-family="sans-serif" font-size="12" lengthAdjust="spacing" textLength="229.8926" x="81.1934" y="907.9395">Normalizar registros de coste Bedrock</text><rect fill="#F1F1F1" height="33.9688" rx="12.5" ry="12.5" style="stroke:#181818;stroke-width:0.5;" width="310.2793" x="41" y="996.48"/><text fill="#000000" font-family="sans-serif" font-size="12" lengthAdjust="spacing" textLength="290.2793" x="51" y="1017.6187">Asociar recurso con agente si existe senal fiable</text><rect fill="#F1F1F1" height="33.9688" rx="12.5" ry="12.5" style="stroke:#181818;stroke-width:0.5;" width="194.9668" x="98.6563" y="1059.5464"/><text fill="#000000" font-family="sans-serif" font-size="12" lengthAdjust="spacing" textLength="174.9668" x="108.6563" y="1080.6851">Persistir con update-or-insert</text><polygon fill="#F1F1F1" points="146.5859,940.7695,245.6934,940.7695,257.6934,952.7695,245.6934,964.7695,146.5859,964.7695,134.5859,952.7695,146.5859,940.7695" style="stroke:#181818;stroke-width:0.5;"/><text fill="#000000" font-family="sans-serif" font-size="11" lengthAdjust="spacing" textLength="8.7871" x="200.1396" y="974.98">si</text><text fill="#000000" font-family="sans-serif" font-size="11" lengthAdjust="spacing" textLength="99.1074" x="146.5859" y="956.5776">quedan registros?</text><text fill="#000000" font-family="sans-serif" font-size="11" lengthAdjust="spacing" textLength="13.7017" x="120.8843" y="950.1753">no</text><rect fill="#F1F1F1" height="33.9688" rx="12.5" ry="12.5" style="stroke:#181818;stroke-width:0.5;" width="132.2422" x="130.0186" y="1135.5151"/><text fill="#000000" font-family="sans-serif" font-size="12" lengthAdjust="spacing" textLength="112.2422" x="140.0186" y="1156.6538">Registrar auditoria</text><rect fill="#F1F1F1" height="33.9688" rx="12.5" ry="12.5" style="stroke:#181818;stroke-width:0.5;" width="238.6484" x="76.8154" y="1189.4839"/><text fill="#000000" font-family="sans-serif" font-size="12" lengthAdjust="spacing" textLength="218.6484" x="86.8154" y="1210.6226">Devolver resumen de sincronizacion</text><ellipse cx="196.1396" cy="1254.4526" fill="none" rx="11" ry="11" style="stroke:#222222;stroke-width:1;"/><ellipse cx="196.1396" cy="1254.4526" fill="#222222" rx="6" ry="6" style="stroke:#222222;stroke-width:1;"/><line style="stroke:#181818;stroke-width:1;" x1="196.1396" x2="196.1396" y1="72.2969" y2="92.2969"/><polygon fill="#181818" points="192.1396,82.2969,196.1396,92.2969,200.1396,82.2969,196.1396,86.2969" style="stroke:#181818;stroke-width:1;"/><line style="stroke:#181818;stroke-width:1;" x1="196.1396" x2="196.1396" y1="126.2656" y2="146.2656"/><polygon fill="#181818" points="192.1396,136.2656,196.1396,146.2656,200.1396,136.2656,196.1396,140.2656" style="stroke:#181818;stroke-width:1;"/><line style="stroke:#181818;stroke-width:1;" x1="196.1396" x2="196.1396" y1="180.2344" y2="200.2344"/><polygon fill="#181818" points="192.1396,190.2344,196.1396,200.2344,200.1396,190.2344,196.1396,194.2344" style="stroke:#181818;stroke-width:1;"/><line style="stroke:#181818;stroke-width:1;" x1="196.1396" x2="196.1396" y1="336.5742" y2="365.0898"/><polygon fill="#181818" points="192.1396,355.0898,196.1396,365.0898,200.1396,355.0898,196.1396,359.0898" style="stroke:#181818;stroke-width:1;"/><line style="stroke:#181818;stroke-width:1;" x1="196.1396" x2="196.1396" y1="278.2031" y2="302.6055"/><polygon fill="#181818" points="192.1396,292.6055,196.1396,302.6055,200.1396,292.6055,196.1396,296.6055" style="stroke:#181818;stroke-width:1;"/><line style="stroke:#181818;stroke-width:1;" x1="279.3765" x2="319.3027" y1="266.2031" y2="266.2031"/><polygon fill="#181818" points="315.3027,335.0898,319.3027,345.0898,323.3027,335.0898,319.3027,339.0898" style="stroke:#181818;stroke-width:1;"/><line style="stroke:#181818;stroke-width:1;" x1="319.3027" x2="319.3027" y1="266.2031" y2="409.0898"/><line style="stroke:#181818;stroke-width:1;" x1="319.3027" x2="196.1396" y1="409.0898" y2="409.0898"/><line style="stroke:#181818;stroke-width:1;" x1="196.1396" x2="196.1396" y1="409.0898" y2="429.0898"/><polygon fill="#181818" points="192.1396,419.0898,196.1396,429.0898,200.1396,419.0898,196.1396,423.0898" style="stroke:#181818;stroke-width:1;"/><line style="stroke:#181818;stroke-width:1;" x1="196.1396" x2="196.1396" y1="234.2031" y2="254.2031"/><polygon fill="#181818" points="192.1396,244.2031,196.1396,254.2031,200.1396,244.2031,196.1396,248.2031" style="stroke:#181818;stroke-width:1;"/><line style="stroke:#181818;stroke-width:1;" x1="196.1396" x2="196.1396" y1="565.4297" y2="593.9453"/><polygon fill="#181818" points="192.1396,583.9453,196.1396,593.9453,200.1396,583.9453,196.1396,587.9453" style="stroke:#181818;stroke-width:1;"/><line style="stroke:#181818;stroke-width:1;" x1="196.1396" x2="196.1396" y1="507.0586" y2="531.4609"/><polygon fill="#181818" points="192.1396,521.4609,196.1396,531.4609,200.1396,521.4609,196.1396,525.4609" style="stroke:#181818;stroke-width:1;"/><line style="stroke:#181818;stroke-width:1;" x1="267.7615" x2="329.9346" y1="495.0586" y2="495.0586"/><polygon fill="#181818" points="325.9346,563.9453,329.9346,573.9453,333.9346,563.9453,329.9346,567.9453" style="stroke:#181818;stroke-width:1;"/><line style="stroke:#181818;stroke-width:1;" x1="329.9346" x2="329.9346" y1="495.0586" y2="637.9453"/><line style="stroke:#181818;stroke-width:1;" x1="329.9346" x2="196.1396" y1="637.9453" y2="637.9453"/><line style="stroke:#181818;stroke-width:1;" x1="196.1396" x2="196.1396" y1="637.9453" y2="657.9453"/><polygon fill="#181818" points="192.1396,647.9453,196.1396,657.9453,200.1396,647.9453,196.1396,651.9453" style="stroke:#181818;stroke-width:1;"/><line style="stroke:#181818;stroke-width:1;" x1="196.1396" x2="196.1396" y1="463.0586" y2="483.0586"/><polygon fill="#181818" points="192.1396,473.0586,196.1396,483.0586,200.1396,473.0586,196.1396,477.0586" style="stroke:#181818;stroke-width:1;"/><line style="stroke:#181818;stroke-width:1;" x1="196.1396" x2="196.1396" y1="794.2852" y2="822.8008"/><polygon fill="#181818" points="192.1396,812.8008,196.1396,822.8008,200.1396,812.8008,196.1396,816.8008" style="stroke:#181818;stroke-width:1;"/><line style="stroke:#181818;stroke-width:1;" x1="196.1396" x2="196.1396" y1="735.9141" y2="760.3164"/><polygon fill="#181818" points="192.1396,750.3164,196.1396,760.3164,200.1396,750.3164,196.1396,754.3164" style="stroke:#181818;stroke-width:1;"/><line style="stroke:#181818;stroke-width:1;" x1="264.4771" x2="321.292" y1="723.9141" y2="723.9141"/><polygon fill="#181818" points="317.292,792.8008,321.292,802.8008,325.292,792.8008,321.292,796.8008" style="stroke:#181818;stroke-width:1;"/><line style="stroke:#181818;stroke-width:1;" x1="321.292" x2="321.292" y1="723.9141" y2="866.8008"/><line style="stroke:#181818;stroke-width:1;" x1="321.292" x2="196.1396" y1="866.8008" y2="866.8008"/><line style="stroke:#181818;stroke-width:1;" x1="196.1396" x2="196.1396" y1="866.8008" y2="886.8008"/><polygon fill="#181818" points="192.1396,876.8008,196.1396,886.8008,200.1396,876.8008,196.1396,880.8008" style="stroke:#181818;stroke-width:1;"/><line style="stroke:#181818;stroke-width:1;" x1="196.1396" x2="196.1396" y1="691.9141" y2="711.9141"/><polygon fill="#181818" points="192.1396,701.9141,196.1396,711.9141,200.1396,701.9141,196.1396,705.9141" style="stroke:#181818;stroke-width:1;"/><line style="stroke:#181818;stroke-width:1;" x1="196.1396" x2="196.1396" y1="1030.4487" y2="1059.5464"/><polygon fill="#181818" points="192.1396,1049.5464,196.1396,1059.5464,200.1396,1049.5464,196.1396,1053.5464" style="stroke:#181818;stroke-width:1;"/><line style="stroke:#181818;stroke-width:1;" x1="196.1396" x2="196.1396" y1="964.7695" y2="996.48"/><polygon fill="#181818" points="192.1396,986.48,196.1396,996.48,200.1396,986.48,196.1396,990.48" style="stroke:#181818;stroke-width:1;"/><line style="stroke:#181818;stroke-width:1;" x1="196.1396" x2="196.1396" y1="1093.5151" y2="1103.5151"/><line style="stroke:#181818;stroke-width:1;" x1="196.1396" x2="363.2793" y1="1103.5151" y2="1103.5151"/><polygon fill="#181818" points="359.2793,1039.5464,363.2793,1029.5464,367.2793,1039.5464,363.2793,1035.5464" style="stroke:#181818;stroke-width:1;"/><line style="stroke:#181818;stroke-width:1;" x1="363.2793" x2="363.2793" y1="952.7695" y2="1103.5151"/><line style="stroke:#181818;stroke-width:1;" x1="363.2793" x2="257.6934" y1="952.7695" y2="952.7695"/><polygon fill="#181818" points="267.6934,948.7695,257.6934,952.7695,267.6934,956.7695,263.6934,952.7695" style="stroke:#181818;stroke-width:1;"/><line style="stroke:#181818;stroke-width:1;" x1="134.5859" x2="29" y1="952.7695" y2="952.7695"/><polygon fill="#181818" points="25,1025.5464,29,1035.5464,33,1025.5464,29,1029.5464" style="stroke:#181818;stroke-width:1;"/><line style="stroke:#181818;stroke-width:1;" x1="29" x2="29" y1="952.7695" y2="1115.5151"/><line style="stroke:#181818;stroke-width:1;" x1="29" x2="196.1396" y1="1115.5151" y2="1115.5151"/><line style="stroke:#181818;stroke-width:1;" x1="196.1396" x2="196.1396" y1="1115.5151" y2="1135.5151"/><polygon fill="#181818" points="192.1396,1125.5151,196.1396,1135.5151,200.1396,1125.5151,196.1396,1129.5151" style="stroke:#181818;stroke-width:1;"/><line style="stroke:#181818;stroke-width:1;" x1="196.1396" x2="196.1396" y1="920.7695" y2="940.7695"/><polygon fill="#181818" points="192.1396,930.7695,196.1396,940.7695,200.1396,930.7695,196.1396,934.7695" style="stroke:#181818;stroke-width:1;"/><line style="stroke:#181818;stroke-width:1;" x1="196.1396" x2="196.1396" y1="1169.4839" y2="1189.4839"/><polygon fill="#181818" points="192.1396,1179.4839,196.1396,1189.4839,200.1396,1179.4839,196.1396,1183.4839" style="stroke:#181818;stroke-width:1;"/><line style="stroke:#181818;stroke-width:1;" x1="196.1396" x2="196.1396" y1="1223.4526" y2="1243.4526"/><polygon fill="#181818" points="192.1396,1233.4526,196.1396,1243.4526,200.1396,1233.4526,196.1396,1237.4526" style="stroke:#181818;stroke-width:1;"/><?plantuml-src VPBBJWCn34Nt-GelsqL_e5sWKXuxX8e4wv2unI8J3tOoGByUfrD1AO_TIF7S79-RGYKXB4EXWQAFC8Cxoa4uqyu7uWmH8R0MLEUqU2dEpPUneqnQn4SMK4uKg7ZGRpyktFpU9yiKg5gz4CCxi6pzqS0QG-rHR2G8Hio1V4A5aBZ6XNEqWSdg-22IzdR1etsVJQ4yOOP9vga3c5zHjjjs5cKOHoW2lV20QAGBczF2lSEa21EbgSCSQMCRNQ06slm0iVmEEnRolz4C-_L-aAnnktSZO10qZZUBfth-X5bnrfhCDImVxc1byk7ohKyiA0UCDMfVqUgmQaGm57yASMt6cth1VLHacyo08bROGDeK_aDmmz8TRCgu3UldGu1pZCBXsLXUdyWUp-IbOlJvQzHWICT4Gragcu6M5Ahe2EAtc4jJ0lX6BLFHweCD-GFO_1P5xOHaFr_xw0lEM6QK5QKi6khXzhQnExBkQwGoTcQz3fm673rqc7_hmJK97m00?></g></svg>