<svg xmlns="http://www.w3.org/2000/svg" xmlns:xlink="http://www.w3.org/1999/xlink" contentStyleType="text/css" data-diagram-type="ACTIVITY" height="1299px" preserveAspectRatio="none" style="width:349px;height:1299px;background:#FFFFFF;" version="1.1" viewBox="0 0 349 1299" width="349px" zoomAndPan="magnify"><?plantuml 1.2026.3beta6?><defs/><g><g class="title" data-source-line="1"><text fill="#000000" font-family="sans-serif" font-size="14" font-weight="700" lengthAdjust="spacing" textLength="284.3477" x="31.6494" y="32.9951">Actividad - Sincronizacion de costes</text></g><ellipse cx="171.8232" cy="62.2969" fill="#222222" rx="10" ry="10" style="stroke:#222222;stroke-width:1;"/><rect fill="#F1F1F1" height="33.9688" rx="12.5" ry="12.5" style="stroke:#181818;stroke-width:0.5;" width="240.3418" x="51.6523" y="92.2969"/><text fill="#000000" font-family="sans-serif" font-size="12" lengthAdjust="spacing" textLength="220.3418" x="61.6523" y="113.4355">Administrador solicita sincronizacion</text><rect fill="#F1F1F1" height="33.9688" rx="12.5" ry="12.5" style="stroke:#181818;stroke-width:0.5;" width="201.8223" x="70.9121" y="146.2656"/><text fill="#000000" font-family="sans-serif" font-size="12" lengthAdjust="spacing" textLength="181.8223" x="80.9121" y="167.4043">Validar usuario y organizacion</text><rect fill="#F1F1F1" height="33.9688" rx="12.5" ry="12.5" style="stroke:#181818;stroke-width:0.5;" width="198.043" x="72.8018" y="200.2344"/><text fill="#000000" font-family="sans-serif" font-size="12" lengthAdjust="spacing" textLength="178.043" x="82.8018" y="221.373">Recuperar credenciales cloud</text><rect fill="#F1F1F1" height="33.9688" rx="12.5" ry="12.5" style="stroke:#181818;stroke-width:0.5;" width="226.3262" x="58.6602" y="302.6055"/><text fill="#000000" font-family="sans-serif" font-size="12" lengthAdjust="spacing" textLength="206.3262" x="68.6602" y="323.7441">Finalizar sin sincronizar proveedor</text><ellipse cx="171.8232" cy="376.0898" fill="none" rx="11" ry="11" style="stroke:#222222;stroke-width:1;"/><ellipse cx="171.8232" cy="376.0898" fill="#222222" rx="6" ry="6" style="stroke:#222222;stroke-width:1;"/><polygon fill="#F1F1F1" points="100.5864,254.2031,243.0601,254.2031,255.0601,266.2031,243.0601,278.2031,100.5864,278.2031,88.5864,266.2031,100.5864,254.2031" style="stroke:#181818;stroke-width:0.5;"/><text fill="#000000" font-family="sans-serif" font-size="11" lengthAdjust="spacing" textLength="13.7017" x="175.8232" y="288.4136">no</text><text fill="#000000" font-family="sans-serif" font-size="11" lengthAdjust="spacing" textLength="142.4736" x="100.5864" y="270.0112">Credenciales disponibles?</text><text fill="#000000" font-family="sans-serif" font-size="11" lengthAdjust="spacing" textLength="8.7871" x="255.0601" y="263.6089">si</text><rect fill="#F1F1F1" height="33.9688" rx="12.5" ry="12.5" style="stroke:#181818;stroke-width:0.5;" width="230.1816" x="56.7324" y="429.0898"/><text fill="#000000" font-family="sans-serif" font-size="12" lengthAdjust="spacing" textLength="210.1816" x="66.7324" y="450.2285">Descifrar credenciales en memoria</text><rect fill="#F1F1F1" height="33.9688" rx="12.5" ry="12.5" style="stroke:#181818;stroke-width:0.5;" width="216.3535" x="63.6465" y="531.4609"/><text fill="#000000" font-family="sans-serif" font-size="12" lengthAdjust="spacing" textLength="196.3535" x="73.6465" y="552.5996">Registrar error de sincronizacion</text><ellipse cx="171.8232" cy="604.9453" fill="none" rx="11" ry="11" style="stroke:#222222;stroke-width:1;"/><ellipse cx="171.8232" cy="604.9453" fill="#222222" rx="6" ry="6" style="stroke:#222222;stroke-width:1;"/><polygon fill="#F1F1F1" points="112.2014,483.0586,231.4451,483.0586,243.4451,495.0586,231.4451,507.0586,112.2014,507.0586,100.2014,495.0586,112.2014,483.0586" style="stroke:#181818;stroke-width:0.5;"/><text fill="#000000" font-family="sans-serif" font-size="11" lengthAdjust="spacing" textLength="13.7017" x="175.8232" y="517.269">no</text><text fill="#000000" font-family="sans-serif" font-size="11" lengthAdjust="spacing" textLength="119.2437" x="112.2014" y="498.8667">Credenciales validas?</text><text fill="#000000" font-family="sans-serif" font-size="11" lengthAdjust="spacing" textLength="8.7871" x="243.4451" y="492.4644">si</text><rect fill="#F1F1F1" height="47.9375" rx="12.5" ry="12.5" style="stroke:#181818;stroke-width:0.5;" width="201.7813" x="70.9326" y="657.9453"/><text fill="#000000" font-family="sans-serif" font-size="12" lengthAdjust="spacing" textLength="181.7813" x="80.9326" y="679.084">Consultar proveedor de billing</text><text fill="#000000" font-family="sans-serif" font-size="12" lengthAdjust="spacing" textLength="172.5586" x="80.9326" y="693.0527">(Cost Explorer / equivalente)</text><rect fill="#F1F1F1" height="33.9688" rx="12.5" ry="12.5" style="stroke:#181818;stroke-width:0.5;" width="230.3047" x="56.6709" y="774.2852"/><text fill="#000000" font-family="sans-serif" font-size="12" lengthAdjust="spacing" textLength="210.3047" x="66.6709" y="795.4238">Guardar resultado con error visible</text><ellipse cx="171.8232" cy="847.7695" fill="none" rx="11" ry="11" style="stroke:#222222;stroke-width:1;"/><ellipse cx="171.8232" cy="847.7695" fill="#222222" rx="6" ry="6" style="stroke:#222222;stroke-width:1;"/><polygon fill="#F1F1F1" points="115.4858,725.8828,228.1606,725.8828,240.1606,737.8828,228.1606,749.8828,115.4858,749.8828,103.4858,737.8828,115.4858,725.8828" style="stroke:#181818;stroke-width:0.5;"/><text fill="#000000" font-family="sans-serif" font-size="11" lengthAdjust="spacing" textLength="13.7017" x="175.8232" y="760.0933">no</text><text fill="#000000" font-family="sans-serif" font-size="11" lengthAdjust="spacing" textLength="112.6748" x="115.4858" y="741.6909">Respuesta correcta?</text><text fill="#000000" font-family="sans-serif" font-size="11" lengthAdjust="spacing" textLength="8.7871" x="240.1606" y="735.2886">si</text><rect fill="#F1F1F1" height="33.9688" rx="12.5" ry="12.5" style="stroke:#181818;stroke-width:0.5;" width="197.0234" x="73.3115" y="900.7695"/><text fill="#000000" font-family="sans-serif" font-size="12" lengthAdjust="spacing" textLength="177.0234" x="83.3115" y="921.9082">Normalizar registros de coste</text><rect fill="#F1F1F1" height="33.9688" rx="12.5" ry="12.5" style="stroke:#181818;stroke-width:0.5;" width="261.6465" x="41" y="1010.4487"/><text fill="#000000" font-family="sans-serif" font-size="12" lengthAdjust="spacing" textLength="241.6465" x="51" y="1031.5874">Asociar recurso con agente si es posible</text><rect fill="#F1F1F1" height="33.9688" rx="12.5" ry="12.5" style="stroke:#181818;stroke-width:0.5;" width="194.9668" x="74.3398" y="1073.5151"/><text fill="#000000" font-family="sans-serif" font-size="12" lengthAdjust="spacing" textLength="174.9668" x="84.3398" y="1094.6538">Persistir con update-or-insert</text><polygon fill="#F1F1F1" points="122.2695,954.7383,221.377,954.7383,233.377,966.7383,221.377,978.7383,122.2695,978.7383,110.2695,966.7383,122.2695,954.7383" style="stroke:#181818;stroke-width:0.5;"/><text fill="#000000" font-family="sans-serif" font-size="11" lengthAdjust="spacing" textLength="8.7871" x="175.8232" y="988.9487">si</text><text fill="#000000" font-family="sans-serif" font-size="11" lengthAdjust="spacing" textLength="99.1074" x="122.2695" y="970.5464">quedan registros?</text><text fill="#000000" font-family="sans-serif" font-size="11" lengthAdjust="spacing" textLength="13.7017" x="96.5679" y="964.144">no</text><rect fill="#F1F1F1" height="33.9688" rx="12.5" ry="12.5" style="stroke:#181818;stroke-width:0.5;" width="132.2422" x="105.7021" y="1149.4839"/><text fill="#000000" font-family="sans-serif" font-size="12" lengthAdjust="spacing" textLength="112.2422" x="115.7021" y="1170.6226">Registrar auditoria</text><rect fill="#F1F1F1" height="33.9688" rx="12.5" ry="12.5" style="stroke:#181818;stroke-width:0.5;" width="238.6484" x="52.499" y="1203.4526"/><text fill="#000000" font-family="sans-serif" font-size="12" lengthAdjust="spacing" textLength="218.6484" x="62.499" y="1224.5913">Devolver resumen de sincronizacion</text><ellipse cx="171.8232" cy="1268.4214" fill="none" rx="11" ry="11" style="stroke:#222222;stroke-width:1;"/><ellipse cx="171.8232" cy="1268.4214" fill="#222222" rx="6" ry="6" style="stroke:#222222;stroke-width:1;"/><line style="stroke:#181818;stroke-width:1;" x1="171.8232" x2="171.8232" y1="72.2969" y2="92.2969"/><polygon fill="#181818" points="167.8232,82.2969,171.8232,92.2969,175.8232,82.2969,171.8232,86.2969" style="stroke:#181818;stroke-width:1;"/><line style="stroke:#181818;stroke-width:1;" x1="171.8232" x2="171.8232" y1="126.2656" y2="146.2656"/><polygon fill="#181818" points="167.8232,136.2656,171.8232,146.2656,175.8232,136.2656,171.8232,140.2656" style="stroke:#181818;stroke-width:1;"/><line style="stroke:#181818;stroke-width:1;" x1="171.8232" x2="171.8232" y1="180.2344" y2="200.2344"/><polygon fill="#181818" points="167.8232,190.2344,171.8232,200.2344,175.8232,190.2344,171.8232,194.2344" style="stroke:#181818;stroke-width:1;"/><line style="stroke:#181818;stroke-width:1;" x1="171.8232" x2="171.8232" y1="336.5742" y2="365.0898"/><polygon fill="#181818" points="167.8232,355.0898,171.8232,365.0898,175.8232,355.0898,171.8232,359.0898" style="stroke:#181818;stroke-width:1;"/><line style="stroke:#181818;stroke-width:1;" x1="171.8232" x2="171.8232" y1="278.2031" y2="302.6055"/><polygon fill="#181818" points="167.8232,292.6055,171.8232,302.6055,175.8232,292.6055,171.8232,296.6055" style="stroke:#181818;stroke-width:1;"/><line style="stroke:#181818;stroke-width:1;" x1="255.0601" x2="294.9863" y1="266.2031" y2="266.2031"/><polygon fill="#181818" points="290.9863,335.0898,294.9863,345.0898,298.9863,335.0898,294.9863,339.0898" style="stroke:#181818;stroke-width:1;"/><line style="stroke:#181818;stroke-width:1;" x1="294.9863" x2="294.9863" y1="266.2031" y2="409.0898"/><line style="stroke:#181818;stroke-width:1;" x1="294.9863" x2="171.8232" y1="409.0898" y2="409.0898"/><line style="stroke:#181818;stroke-width:1;" x1="171.8232" x2="171.8232" y1="409.0898" y2="429.0898"/><polygon fill="#181818" points="167.8232,419.0898,171.8232,429.0898,175.8232,419.0898,171.8232,423.0898" style="stroke:#181818;stroke-width:1;"/><line style="stroke:#181818;stroke-width:1;" x1="171.8232" x2="171.8232" y1="234.2031" y2="254.2031"/><polygon fill="#181818" points="167.8232,244.2031,171.8232,254.2031,175.8232,244.2031,171.8232,248.2031" style="stroke:#181818;stroke-width:1;"/><line style="stroke:#181818;stroke-width:1;" x1="171.8232" x2="171.8232" y1="565.4297" y2="593.9453"/><polygon fill="#181818" points="167.8232,583.9453,171.8232,593.9453,175.8232,583.9453,171.8232,587.9453" style="stroke:#181818;stroke-width:1;"/><line style="stroke:#181818;stroke-width:1;" x1="171.8232" x2="171.8232" y1="507.0586" y2="531.4609"/><polygon fill="#181818" points="167.8232,521.4609,171.8232,531.4609,175.8232,521.4609,171.8232,525.4609" style="stroke:#181818;stroke-width:1;"/><line style="stroke:#181818;stroke-width:1;" x1="243.4451" x2="290" y1="495.0586" y2="495.0586"/><polygon fill="#181818" points="286,563.9453,290,573.9453,294,563.9453,290,567.9453" style="stroke:#181818;stroke-width:1;"/><line style="stroke:#181818;stroke-width:1;" x1="290" x2="290" y1="495.0586" y2="637.9453"/><line style="stroke:#181818;stroke-width:1;" x1="290" x2="171.8232" y1="637.9453" y2="637.9453"/><line style="stroke:#181818;stroke-width:1;" x1="171.8232" x2="171.8232" y1="637.9453" y2="657.9453"/><polygon fill="#181818" points="167.8232,647.9453,171.8232,657.9453,175.8232,647.9453,171.8232,651.9453" style="stroke:#181818;stroke-width:1;"/><line style="stroke:#181818;stroke-width:1;" x1="171.8232" x2="171.8232" y1="463.0586" y2="483.0586"/><polygon fill="#181818" points="167.8232,473.0586,171.8232,483.0586,175.8232,473.0586,171.8232,477.0586" style="stroke:#181818;stroke-width:1;"/><line style="stroke:#181818;stroke-width:1;" x1="171.8232" x2="171.8232" y1="808.2539" y2="836.7695"/><polygon fill="#181818" points="167.8232,826.7695,171.8232,836.7695,175.8232,826.7695,171.8232,830.7695" style="stroke:#181818;stroke-width:1;"/><line style="stroke:#181818;stroke-width:1;" x1="171.8232" x2="171.8232" y1="749.8828" y2="774.2852"/><polygon fill="#181818" points="167.8232,764.2852,171.8232,774.2852,175.8232,764.2852,171.8232,768.2852" style="stroke:#181818;stroke-width:1;"/><line style="stroke:#181818;stroke-width:1;" x1="240.1606" x2="296.9756" y1="737.8828" y2="737.8828"/><polygon fill="#181818" points="292.9756,806.7695,296.9756,816.7695,300.9756,806.7695,296.9756,810.7695" style="stroke:#181818;stroke-width:1;"/><line style="stroke:#181818;stroke-width:1;" x1="296.9756" x2="296.9756" y1="737.8828" y2="880.7695"/><line style="stroke:#181818;stroke-width:1;" x1="296.9756" x2="171.8232" y1="880.7695" y2="880.7695"/><line style="stroke:#181818;stroke-width:1;" x1="171.8232" x2="171.8232" y1="880.7695" y2="900.7695"/><polygon fill="#181818" points="167.8232,890.7695,171.8232,900.7695,175.8232,890.7695,171.8232,894.7695" style="stroke:#181818;stroke-width:1;"/><line style="stroke:#181818;stroke-width:1;" x1="171.8232" x2="171.8232" y1="705.8828" y2="725.8828"/><polygon fill="#181818" points="167.8232,715.8828,171.8232,725.8828,175.8232,715.8828,171.8232,719.8828" style="stroke:#181818;stroke-width:1;"/><line style="stroke:#181818;stroke-width:1;" x1="171.8232" x2="171.8232" y1="1044.4175" y2="1073.5151"/><polygon fill="#181818" points="167.8232,1063.5151,171.8232,1073.5151,175.8232,1063.5151,171.8232,1067.5151" style="stroke:#181818;stroke-width:1;"/><line style="stroke:#181818;stroke-width:1;" x1="171.8232" x2="171.8232" y1="978.7383" y2="1010.4487"/><polygon fill="#181818" points="167.8232,1000.4487,171.8232,1010.4487,175.8232,1000.4487,171.8232,1004.4487" style="stroke:#181818;stroke-width:1;"/><line style="stroke:#181818;stroke-width:1;" x1="171.8232" x2="171.8232" y1="1107.4839" y2="1117.4839"/><line style="stroke:#181818;stroke-width:1;" x1="171.8232" x2="314.6465" y1="1117.4839" y2="1117.4839"/><polygon fill="#181818" points="310.6465,1053.5151,314.6465,1043.5151,318.6465,1053.5151,314.6465,1049.5151" style="stroke:#181818;stroke-width:1;"/><line style="stroke:#181818;stroke-width:1;" x1="314.6465" x2="314.6465" y1="966.7383" y2="1117.4839"/><line style="stroke:#181818;stroke-width:1;" x1="314.6465" x2="233.377" y1="966.7383" y2="966.7383"/><polygon fill="#181818" points="243.377,962.7383,233.377,966.7383,243.377,970.7383,239.377,966.7383" style="stroke:#181818;stroke-width:1;"/><line style="stroke:#181818;stroke-width:1;" x1="110.2695" x2="29" y1="966.7383" y2="966.7383"/><polygon fill="#181818" points="25,1039.5151,29,1049.5151,33,1039.5151,29,1043.5151" style="stroke:#181818;stroke-width:1;"/><line style="stroke:#181818;stroke-width:1;" x1="29" x2="29" y1="966.7383" y2="1129.4839"/><line style="stroke:#181818;stroke-width:1;" x1="29" x2="171.8232" y1="1129.4839" y2="1129.4839"/><line style="stroke:#181818;stroke-width:1;" x1="171.8232" x2="171.8232" y1="1129.4839" y2="1149.4839"/><polygon fill="#181818" points="167.8232,1139.4839,171.8232,1149.4839,175.8232,1139.4839,171.8232,1143.4839" style="stroke:#181818;stroke-width:1;"/><line style="stroke:#181818;stroke-width:1;" x1="171.8232" x2="171.8232" y1="934.7383" y2="954.7383"/><polygon fill="#181818" points="167.8232,944.7383,171.8232,954.7383,175.8232,944.7383,171.8232,948.7383" style="stroke:#181818;stroke-width:1;"/><line style="stroke:#181818;stroke-width:1;" x1="171.8232" x2="171.8232" y1="1183.4526" y2="1203.4526"/><polygon fill="#181818" points="167.8232,1193.4526,171.8232,1203.4526,175.8232,1193.4526,171.8232,1197.4526" style="stroke:#181818;stroke-width:1;"/><line style="stroke:#181818;stroke-width:1;" x1="171.8232" x2="171.8232" y1="1237.4214" y2="1257.4214"/><polygon fill="#181818" points="167.8232,1247.4214,171.8232,1257.4214,175.8232,1247.4214,171.8232,1251.4214" style="stroke:#181818;stroke-width:1;"/><?plantuml-src VP8_Rnin3CLtVGgEvy78RW-5uIRPWi85EdLH9DeXe2FFf7Hjy-dByndfDVys0Q8UV-yzLQe5OPSgZPHZXZLy9qugJCynaJ1aX2HMqKAm6hM6iDdbdfYiQioYO58eKOrW_ptSXisFM5nJeLcBIW9_GFGK5mC7J6r0zP6ac94JnO86gKZBsn3e2Dr-UP791b_mwESlAwXFoD2nh0B0vexOjpsxb6CiK1G6bH7HIRS-PrM6WCKGEgDLGCvqT4TVqH8Ttu2uVe-zACNtQCQBlJSa1pnTib50LS_70toTp8SSUs5hfIwff_UFL0hnwITtUwy2RdyFHHGLRW3FZPm3kUBgodX06nfwLzwRAgOQNnFUUnrJBugNPLbyag-q8zcKxoUC3wBzDMgThOgz_19d-FL4_gEwSyCS-T-8Gv3DIewmC_4K9uNKr6Q0U9fiU5ZWuGxomh7vXcekGdePQqEE5TUYQs93hTk9xBfqCXWM3SIMgSxzUSUZb15dsptoUyM4oVDV?></g></svg>