<svg xmlns="http://www.w3.org/2000/svg" xmlns:xlink="http://www.w3.org/1999/xlink" contentStyleType="text/css" data-diagram-type="DESCRIPTION" height="625px" preserveAspectRatio="none" style="width:802px;height:625px;background:#FFFFFF;" version="1.1" viewBox="0 0 802 625" width="802px" zoomAndPan="magnify"><?plantuml 1.2026.3beta6?><defs/><g><g class="title" data-source-line="3"><text fill="#000000" font-family="sans-serif" font-size="14" font-weight="700" lengthAdjust="spacing" textLength="278.1201" x="258.4399" y="22.9951">Paquetes backend - Modulo FinOps</text></g><!--cluster api/v1--><g class="cluster" data-qualified-name="api.v1" data-source-line="5" id="ent0002"><rect fill="none" height="97.29" rx="2.5" ry="2.5" style="stroke:#181818;stroke-width:1;" width="136" x="184" y="44.2969"/><text fill="#000000" font-family="sans-serif" font-size="14" font-weight="700" lengthAdjust="spacing" textLength="48.248" x="227.876" y="59.292">api/v1</text></g><!--cluster services--><g class="cluster" data-qualified-name="services" data-source-line="9" id="ent0004"><rect fill="none" height="218.6" rx="2.5" ry="2.5" style="stroke:#181818;stroke-width:1;" width="321" x="7" y="165.5869"/><text fill="#000000" font-family="sans-serif" font-size="14" font-weight="700" lengthAdjust="spacing" textLength="64.7842" x="135.1079" y="180.582">services</text></g><!--cluster repositories--><g class="cluster" data-qualified-name="repositories" data-source-line="15" id="ent0008"><rect fill="none" height="97.3" rx="2.5" ry="2.5" style="stroke:#181818;stroke-width:1;" width="190" x="352" y="286.8869"/><text fill="#000000" font-family="sans-serif" font-size="14" font-weight="700" lengthAdjust="spacing" textLength="95.0127" x="399.4937" y="301.882">repositories</text></g><!--cluster models--><g class="cluster" data-qualified-name="models" data-source-line="19" id="ent0010"><rect fill="none" height="203.59" rx="2.5" ry="2.5" style="stroke:#181818;stroke-width:1;" width="432" x="356" y="408.1869"/><text fill="#000000" font-family="sans-serif" font-size="14" font-weight="700" lengthAdjust="spacing" textLength="56.8545" x="543.5728" y="423.182">models</text></g><!--cluster schemas--><g class="cluster" data-qualified-name="schemas" data-source-line="26" id="ent0015"><rect fill="none" height="97.3" rx="2.5" ry="2.5" style="stroke:#181818;stroke-width:1;" width="182" x="352" y="165.5869"/><text fill="#000000" font-family="sans-serif" font-size="14" font-weight="700" lengthAdjust="spacing" textLength="68.4619" x="408.769" y="180.582">schemas</text></g><!--entity API--><g class="entity" data-qualified-name="api.v1.API" data-source-line="6" id="ent0003"><rect fill="#F1F1F1" height="46.2969" rx="2.5" ry="2.5" style="stroke:#181818;stroke-width:0.5;" width="103.8271" x="200.09" y="79.2969"/><rect fill="#F1F1F1" height="10" style="stroke:#181818;stroke-width:0.5;" width="15" x="283.9171" y="84.2969"/><rect fill="#F1F1F1" height="2" style="stroke:#181818;stroke-width:0.5;" width="4" x="281.9171" y="86.2969"/><rect fill="#F1F1F1" height="2" style="stroke:#181818;stroke-width:0.5;" width="4" x="281.9171" y="90.2969"/><text fill="#000000" font-family="sans-serif" font-size="14" lengthAdjust="spacing" textLength="63.8271" x="215.09" y="112.292">billing.py</text></g><!--entity Service--><g class="entity" data-qualified-name="services.Service" data-source-line="10" id="ent0005"><rect fill="#F1F1F1" height="46.2969" rx="2.5" ry="2.5" style="stroke:#181818;stroke-width:0.5;" width="134.6641" x="22.67" y="200.5869"/><rect fill="#F1F1F1" height="10" style="stroke:#181818;stroke-width:0.5;" width="15" x="137.3341" y="205.5869"/><rect fill="#F1F1F1" height="2" style="stroke:#181818;stroke-width:0.5;" width="4" x="135.3341" y="207.5869"/><rect fill="#F1F1F1" height="2" style="stroke:#181818;stroke-width:0.5;" width="4" x="135.3341" y="211.5869"/><text fill="#000000" font-family="sans-serif" font-size="14" lengthAdjust="spacing" textLength="94.6641" x="37.67" y="233.582">BillingService</text></g><!--entity AWS--><g class="entity" data-qualified-name="services.AWS" data-source-line="11" id="ent0006"><rect fill="#F1F1F1" height="46.2969" rx="2.5" ry="2.5" style="stroke:#181818;stroke-width:0.5;" width="166.9707" x="22.51" y="321.8869"/><rect fill="#F1F1F1" height="10" style="stroke:#181818;stroke-width:0.5;" width="15" x="169.4807" y="326.8869"/><rect fill="#F1F1F1" height="2" style="stroke:#181818;stroke-width:0.5;" width="4" x="167.4807" y="328.8869"/><rect fill="#F1F1F1" height="2" style="stroke:#181818;stroke-width:0.5;" width="4" x="167.4807" y="332.8869"/><text fill="#000000" font-family="sans-serif" font-size="14" lengthAdjust="spacing" textLength="126.9707" x="37.51" y="354.882">AWSBillingService</text></g><!--entity LLM--><g class="entity" data-qualified-name="services.LLM" data-source-line="12" id="ent0007"><rect fill="#F1F1F1" height="46.2969" rx="2.5" ry="2.5" style="stroke:#181818;stroke-width:0.5;" width="119.4199" x="192.29" y="200.5869"/><rect fill="#F1F1F1" height="10" style="stroke:#181818;stroke-width:0.5;" width="15" x="291.7099" y="205.5869"/><rect fill="#F1F1F1" height="2" style="stroke:#181818;stroke-width:0.5;" width="4" x="289.7099" y="207.5869"/><rect fill="#F1F1F1" height="2" style="stroke:#181818;stroke-width:0.5;" width="4" x="289.7099" y="211.5869"/><text fill="#000000" font-family="sans-serif" font-size="14" lengthAdjust="spacing" textLength="79.4199" x="207.29" y="233.582">LLMService</text></g><!--entity Repo--><g class="entity" data-qualified-name="repositories.Repo" data-source-line="16" id="ent0009"><rect fill="#F1F1F1" height="46.2969" rx="2.5" ry="2.5" style="stroke:#181818;stroke-width:0.5;" width="157.9951" x="368" y="321.8869"/><rect fill="#F1F1F1" height="10" style="stroke:#181818;stroke-width:0.5;" width="15" x="505.9951" y="326.8869"/><rect fill="#F1F1F1" height="2" style="stroke:#181818;stroke-width:0.5;" width="4" x="503.9951" y="328.8869"/><rect fill="#F1F1F1" height="2" style="stroke:#181818;stroke-width:0.5;" width="4" x="503.9951" y="332.8869"/><text fill="#000000" font-family="sans-serif" font-size="14" lengthAdjust="spacing" textLength="117.9951" x="383" y="354.882">BillingRepository</text></g><!--entity Model--><g class="entity" data-qualified-name="models.Model" data-source-line="20" id="ent0011"><rect fill="#F1F1F1" height="46.2969" rx="2.5" ry="2.5" style="stroke:#181818;stroke-width:0.5;" width="116.3506" x="371.82" y="443.1869"/><rect fill="#F1F1F1" height="10" style="stroke:#181818;stroke-width:0.5;" width="15" x="468.1706" y="448.1869"/><rect fill="#F1F1F1" height="2" style="stroke:#181818;stroke-width:0.5;" width="4" x="466.1706" y="450.1869"/><rect fill="#F1F1F1" height="2" style="stroke:#181818;stroke-width:0.5;" width="4" x="466.1706" y="454.1869"/><text fill="#000000" font-family="sans-serif" font-size="14" lengthAdjust="spacing" textLength="76.3506" x="386.82" y="476.182">BillingData</text></g><!--entity Agent--><g class="entity" data-qualified-name="models.Agent" data-source-line="21" id="ent0012"><rect fill="#F1F1F1" height="46.2969" rx="2.5" ry="2.5" style="stroke:#181818;stroke-width:0.5;" width="81.4395" x="389.28" y="549.4769"/><rect fill="#F1F1F1" height="10" style="stroke:#181818;stroke-width:0.5;" width="15" x="450.7195" y="554.4769"/><rect fill="#F1F1F1" height="2" style="stroke:#181818;stroke-width:0.5;" width="4" x="448.7195" y="556.4769"/><rect fill="#F1F1F1" height="2" style="stroke:#181818;stroke-width:0.5;" width="4" x="448.7195" y="560.4769"/><text fill="#000000" font-family="sans-serif" font-size="14" lengthAdjust="spacing" textLength="41.4395" x="404.28" y="582.472">Agent</text></g><!--entity Credential--><g class="entity" data-qualified-name="models.Credential" data-source-line="22" id="ent0013"><rect fill="#F1F1F1" height="46.2969" rx="2.5" ry="2.5" style="stroke:#181818;stroke-width:0.5;" width="112.3652" x="522.82" y="443.1869"/><rect fill="#F1F1F1" height="10" style="stroke:#181818;stroke-width:0.5;" width="15" x="615.1852" y="448.1869"/><rect fill="#F1F1F1" height="2" style="stroke:#181818;stroke-width:0.5;" width="4" x="613.1852" y="450.1869"/><rect fill="#F1F1F1" height="2" style="stroke:#181818;stroke-width:0.5;" width="4" x="613.1852" y="454.1869"/><text fill="#000000" font-family="sans-serif" font-size="14" lengthAdjust="spacing" textLength="72.3652" x="537.82" y="476.182">Credential</text></g><!--entity Audit--><g class="entity" data-qualified-name="models.Audit" data-source-line="23" id="ent0014"><rect fill="#F1F1F1" height="46.2969" rx="2.5" ry="2.5" style="stroke:#181818;stroke-width:0.5;" width="101.9678" x="670.02" y="443.1869"/><rect fill="#F1F1F1" height="10" style="stroke:#181818;stroke-width:0.5;" width="15" x="751.9878" y="448.1869"/><rect fill="#F1F1F1" height="2" style="stroke:#181818;stroke-width:0.5;" width="4" x="749.9878" y="450.1869"/><rect fill="#F1F1F1" height="2" style="stroke:#181818;stroke-width:0.5;" width="4" x="749.9878" y="454.1869"/><text fill="#000000" font-family="sans-serif" font-size="14" lengthAdjust="spacing" textLength="61.9678" x="685.02" y="476.182">AuditLog</text></g><!--entity Schemas--><g class="entity" data-qualified-name="schemas.Schemas" data-source-line="27" id="ent0016"><rect fill="#F1F1F1" height="46.2969" rx="2.5" ry="2.5" style="stroke:#181818;stroke-width:0.5;" width="149.3613" x="368.32" y="200.5869"/><rect fill="#F1F1F1" height="10" style="stroke:#181818;stroke-width:0.5;" width="15" x="497.6813" y="205.5869"/><rect fill="#F1F1F1" height="2" style="stroke:#181818;stroke-width:0.5;" width="4" x="495.6813" y="207.5869"/><rect fill="#F1F1F1" height="2" style="stroke:#181818;stroke-width:0.5;" width="4" x="495.6813" y="211.5869"/><text fill="#000000" font-family="sans-serif" font-size="14" lengthAdjust="spacing" textLength="109.3613" x="383.32" y="233.582">Billing schemas</text></g><!--link API to Service--><g class="link" data-entity-1="ent0003" data-entity-2="ent0005" data-link-type="dependency" data-source-line="30" id="lnk17"><path d="M219.19,126.0669 C205.45,135.6669 189.36,147.0469 175,157.5869 C156.12,171.4569 139.9716,183.7803 123.6316,196.4503" fill="none" id="API-to-Service" style="stroke:#181818;stroke-width:1;"/><polygon fill="#181818" points="118.89,200.1269,128.4534,197.773,122.8413,197.063,123.5513,191.4509,118.89,200.1269" style="stroke:#181818;stroke-width:1;"/></g><!--link API to LLM--><g class="link" data-entity-1="ent0003" data-entity-2="ent0007" data-link-type="dependency" data-source-line="31" id="lnk18"><path d="M252,125.8769 C252,147.2069 252,173.1069 252,194.3969" fill="none" id="API-to-LLM" style="stroke:#181818;stroke-width:1;"/><polygon fill="#181818" points="252,200.3969,256,191.3969,252,195.3969,248,191.3969,252,200.3969" style="stroke:#181818;stroke-width:1;"/></g><!--link API to Schemas--><g class="link" data-entity-1="ent0003" data-entity-2="ent0016" data-link-type="dependency" data-source-line="32" id="lnk19"><path d="M287.93,125.8769 C321.97,147.1369 367.7309,175.7286 401.8209,197.0186" fill="none" id="API-to-Schemas" style="stroke:#181818;stroke-width:1;"/><polygon fill="#181818" points="406.91,200.1969,401.3952,192.0368,402.6691,197.5483,397.1575,198.8222,406.91,200.1969" style="stroke:#181818;stroke-width:1;"/></g><!--link Service to Repo--><g class="link" data-entity-1="ent0005" data-entity-2="ent0009" data-link-type="dependency" data-source-line="34" id="lnk20"><path d="M123.25,247.2669 C138.37,256.3069 156.9,265.7869 175,270.8869 C240.54,289.3669 262.49,260.2969 328,278.8869 C359.72,287.8869 387.3167,303.2456 410.3567,318.2956" fill="none" id="Service-to-Repo" style="stroke:#181818;stroke-width:1;"/><polygon fill="#181818" points="415.38,321.5769,410.0326,313.3061,411.1939,318.8425,405.6576,320.0038,415.38,321.5769" style="stroke:#181818;stroke-width:1;"/></g><!--link Service to AWS--><g class="link" data-entity-1="ent0005" data-entity-2="ent0006" data-link-type="dependency" data-source-line="35" id="lnk21"><path d="M93.01,247.1769 C95.87,268.5069 99.3543,294.4499 102.2043,315.7499" fill="none" id="Service-to-AWS" style="stroke:#181818;stroke-width:1;"/><polygon fill="#181818" points="103,321.6969,105.7711,312.2459,102.3369,316.741,97.8417,313.3069,103,321.6969" style="stroke:#181818;stroke-width:1;"/></g><!--link Repo to Model--><g class="link" data-entity-1="ent0009" data-entity-2="ent0011" data-link-type="dependency" data-source-line="36" id="lnk22"><path d="M443.8,368.4769 C440.76,389.8069 437.0677,415.7571 434.0277,437.0571" fill="none" id="Repo-to-Model" style="stroke:#181818;stroke-width:1;"/><polygon fill="#181818" points="433.18,442.9969,438.4115,434.6523,433.8865,438.047,430.4917,433.522,433.18,442.9969" style="stroke:#181818;stroke-width:1;"/></g><!--link Model to Agent--><g class="link" data-entity-1="ent0011" data-entity-2="ent0012" data-link-type="dependency" data-source-line="37" id="lnk23"><path d="M430,489.9669 C430,507.4569 430,525.5569 430,543.0369" fill="none" id="Model-to-Agent" style="stroke:#181818;stroke-width:1;"/><polygon fill="#181818" points="430,549.0369,434,540.0369,430,544.0369,426,540.0369,430,549.0369" style="stroke:#181818;stroke-width:1;"/></g><!--link Service to Credential--><g class="link" data-entity-1="ent0005" data-entity-2="ent0013" data-link-type="dependency" data-source-line="38" id="lnk24"><path d="M122.77,247.2869 C137.95,256.4569 156.66,266.0169 175,270.8869 C194.71,276.1169 526.38,265.7769 542,278.8869 C590.15,319.3069 587.8288,396.8577 583.1288,436.9377" fill="none" id="Service-to-Credential" style="stroke:#181818;stroke-width:1;"/><polygon fill="#181818" points="582.43,442.8969,587.451,434.424,583.0123,437.9309,579.5054,433.4923,582.43,442.8969" style="stroke:#181818;stroke-width:1;"/></g><!--link Service to Audit--><g class="link" data-entity-1="ent0005" data-entity-2="ent0014" data-link-type="dependency" data-source-line="39" id="lnk25"><path d="M122.76,247.3169 C137.94,256.4769 156.66,266.0369 175,270.8869 C197.29,276.7769 569.64,268.0569 590,278.8869 C657.06,314.5569 695.065,395.9972 710.955,437.2872" fill="none" id="Service-to-Audit" style="stroke:#181818;stroke-width:1;"/><polygon fill="#181818" points="713.11,442.8869,713.6107,433.0508,711.3142,438.2205,706.1444,435.924,713.11,442.8869" style="stroke:#181818;stroke-width:1;"/></g><?plantuml-src TL5DIyGm4BtdLmozL_4F2AiY22qkzk1vjXbgs3I9IRgmYF_TV7HhizfBEs_UUyFCYpiAPT3Y20Rx8mxK-RCaiDHxL8CanhpmeR77puayEJW46IaEDRIQJrB3ir2lnZ4s-w528svFTnLyCO1UZqOhKXwgWv1IgE76d2j01xlz2_jUkHpPa-Z9_V4zP5-N-UITwrAtU-_-aOPkAMkQTiq7MAnXoMWdlBPYUvMtYoPV4c4nOzISvARx2JqcNnjbLpSCuPVtZbL9FbhYeH0ea-8NNisOkF2D7lAO2CgS-myQSNCxMFYOSwwZFpmNrFNz4lq5n_mMRfQpMPIQAPrr8xv8R2QGCqZVJAQpr_BLcSMKUDWF?></g></svg>