<svg xmlns="http://www.w3.org/2000/svg" xmlns:xlink="http://www.w3.org/1999/xlink" contentStyleType="text/css" data-diagram-type="DESCRIPTION" height="625px" preserveAspectRatio="none" style="width:1370px;height:625px;background:#FFFFFF;" version="1.1" viewBox="0 0 1370 625" width="1370px" zoomAndPan="magnify"><?plantuml 1.2026.4beta2?><defs/><g><g class="title" data-source-line="3"><text fill="#000000" font-family="sans-serif" font-size="14" font-weight="700" lengthAdjust="spacing" textLength="278.1201" x="542.4399" y="22.9951">Paquetes backend - Modulo FinOps</text></g><!--cluster api/v1--><g class="cluster" data-qualified-name="api.v1" data-source-line="5" id="ent0002"><rect fill="none" height="97.29" rx="2.5" ry="2.5" style="stroke:#181818;stroke-width:1;" width="399" x="480" y="44.2969"/><text fill="#000000" font-family="sans-serif" font-size="14" font-weight="700" lengthAdjust="spacing" textLength="48.248" x="655.376" y="59.292">api/v1</text></g><!--cluster services--><g class="cluster" data-qualified-name="services" data-source-line="11" id="ent0006"><rect fill="none" height="218.6" rx="2.5" ry="2.5" style="stroke:#181818;stroke-width:1;" width="666" x="7" y="165.5869"/><text fill="#000000" font-family="sans-serif" font-size="14" font-weight="700" lengthAdjust="spacing" textLength="64.7842" x="307.6079" y="180.582">services</text></g><!--cluster repositories--><g class="cluster" data-qualified-name="repositories" data-source-line="18" id="ent0011"><rect fill="none" height="97.3" rx="2.5" ry="2.5" style="stroke:#181818;stroke-width:1;" width="628" x="697" y="286.8869"/><text fill="#000000" font-family="sans-serif" font-size="14" font-weight="700" lengthAdjust="spacing" textLength="95.0127" x="963.4937" y="301.882">repositories</text></g><!--cluster models--><g class="cluster" data-qualified-name="models" data-source-line="24" id="ent0015"><rect fill="none" height="203.59" rx="2.5" ry="2.5" style="stroke:#181818;stroke-width:1;" width="810" x="140" y="408.1869"/><text fill="#000000" font-family="sans-serif" font-size="14" font-weight="700" lengthAdjust="spacing" textLength="56.8545" x="516.5728" y="423.182">models</text></g><!--cluster schemas--><g class="cluster" data-qualified-name="schemas" data-source-line="33" id="ent0022"><rect fill="none" height="97.3" rx="2.5" ry="2.5" style="stroke:#181818;stroke-width:1;" width="659" x="697" y="165.5869"/><text fill="#000000" font-family="sans-serif" font-size="14" font-weight="700" lengthAdjust="spacing" textLength="68.4619" x="992.269" y="180.582">schemas</text></g><!--entity API--><g class="entity" data-qualified-name="api.v1.API" data-source-line="6" id="ent0003"><rect fill="#F1F1F1" height="46.2969" rx="2.5" ry="2.5" style="stroke:#181818;stroke-width:0.5;" width="103.8271" x="496.09" y="79.2969"/><rect fill="#F1F1F1" height="10" style="stroke:#181818;stroke-width:0.5;" width="15" x="579.9171" y="84.2969"/><rect fill="#F1F1F1" height="2" style="stroke:#181818;stroke-width:0.5;" width="4" x="577.9171" y="86.2969"/><rect fill="#F1F1F1" height="2" style="stroke:#181818;stroke-width:0.5;" width="4" x="577.9171" y="90.2969"/><text fill="#000000" font-family="sans-serif" font-size="14" lengthAdjust="spacing" textLength="63.8271" x="511.09" y="112.292">billing.py</text></g><!--entity LLMAPI--><g class="entity" data-qualified-name="api.v1.LLMAPI" data-source-line="7" id="ent0004"><rect fill="#F1F1F1" height="46.2969" rx="2.5" ry="2.5" style="stroke:#181818;stroke-width:0.5;" width="83.0391" x="779.48" y="79.2969"/><rect fill="#F1F1F1" height="10" style="stroke:#181818;stroke-width:0.5;" width="15" x="842.5191" y="84.2969"/><rect fill="#F1F1F1" height="2" style="stroke:#181818;stroke-width:0.5;" width="4" x="840.5191" y="86.2969"/><rect fill="#F1F1F1" height="2" style="stroke:#181818;stroke-width:0.5;" width="4" x="840.5191" y="90.2969"/><text fill="#000000" font-family="sans-serif" font-size="14" lengthAdjust="spacing" textLength="43.0391" x="794.48" y="112.292">llm.py</text></g><!--entity AgentsAPI--><g class="entity" data-qualified-name="api.v1.AgentsAPI" data-source-line="8" id="ent0005"><rect fill="#F1F1F1" height="46.2969" rx="2.5" ry="2.5" style="stroke:#181818;stroke-width:0.5;" width="109.3574" x="635.32" y="79.2969"/><rect fill="#F1F1F1" height="10" style="stroke:#181818;stroke-width:0.5;" width="15" x="724.6774" y="84.2969"/><rect fill="#F1F1F1" height="2" style="stroke:#181818;stroke-width:0.5;" width="4" x="722.6774" y="86.2969"/><rect fill="#F1F1F1" height="2" style="stroke:#181818;stroke-width:0.5;" width="4" x="722.6774" y="90.2969"/><text fill="#000000" font-family="sans-serif" font-size="14" lengthAdjust="spacing" textLength="69.3574" x="650.32" y="112.292">agents.py</text></g><!--entity Service--><g class="entity" data-qualified-name="services.Service" data-source-line="12" id="ent0007"><rect fill="#F1F1F1" height="46.2969" rx="2.5" ry="2.5" style="stroke:#181818;stroke-width:0.5;" width="134.6641" x="22.67" y="200.5869"/><rect fill="#F1F1F1" height="10" style="stroke:#181818;stroke-width:0.5;" width="15" x="137.3341" y="205.5869"/><rect fill="#F1F1F1" height="2" style="stroke:#181818;stroke-width:0.5;" width="4" x="135.3341" y="207.5869"/><rect fill="#F1F1F1" height="2" style="stroke:#181818;stroke-width:0.5;" width="4" x="135.3341" y="211.5869"/><text fill="#000000" font-family="sans-serif" font-size="14" lengthAdjust="spacing" textLength="94.6641" x="37.67" y="233.582">BillingService</text></g><!--entity AWS--><g class="entity" data-qualified-name="services.AWS" data-source-line="13" id="ent0008"><rect fill="#F1F1F1" height="46.2969" rx="2.5" ry="2.5" style="stroke:#181818;stroke-width:0.5;" width="166.9707" x="22.51" y="321.8869"/><rect fill="#F1F1F1" height="10" style="stroke:#181818;stroke-width:0.5;" width="15" x="169.4807" y="326.8869"/><rect fill="#F1F1F1" height="2" style="stroke:#181818;stroke-width:0.5;" width="4" x="167.4807" y="328.8869"/><rect fill="#F1F1F1" height="2" style="stroke:#181818;stroke-width:0.5;" width="4" x="167.4807" y="332.8869"/><text fill="#000000" font-family="sans-serif" font-size="14" lengthAdjust="spacing" textLength="126.9707" x="37.51" y="354.882">AWSBillingService</text></g><!--entity LLMCost--><g class="entity" data-qualified-name="services.LLMCost" data-source-line="14" id="ent0009"><rect fill="#F1F1F1" height="46.2969" rx="2.5" ry="2.5" style="stroke:#181818;stroke-width:0.5;" width="150.5439" x="506.73" y="200.5869"/><rect fill="#F1F1F1" height="10" style="stroke:#181818;stroke-width:0.5;" width="15" x="637.2739" y="205.5869"/><rect fill="#F1F1F1" height="2" style="stroke:#181818;stroke-width:0.5;" width="4" x="635.2739" y="207.5869"/><rect fill="#F1F1F1" height="2" style="stroke:#181818;stroke-width:0.5;" width="4" x="635.2739" y="211.5869"/><text fill="#000000" font-family="sans-serif" font-size="14" lengthAdjust="spacing" textLength="110.5439" x="521.73" y="233.582">LLMCostService</text></g><!--entity Optimization--><g class="entity" data-qualified-name="services.Optimization" data-source-line="15" id="ent0010"><rect fill="#F1F1F1" height="46.2969" rx="2.5" ry="2.5" style="stroke:#181818;stroke-width:0.5;" width="279.9688" x="192.02" y="200.5869"/><rect fill="#F1F1F1" height="10" style="stroke:#181818;stroke-width:0.5;" width="15" x="451.9888" y="205.5869"/><rect fill="#F1F1F1" height="2" style="stroke:#181818;stroke-width:0.5;" width="4" x="449.9888" y="207.5869"/><rect fill="#F1F1F1" height="2" style="stroke:#181818;stroke-width:0.5;" width="4" x="449.9888" y="211.5869"/><text fill="#000000" font-family="sans-serif" font-size="14" lengthAdjust="spacing" textLength="239.9688" x="207.02" y="233.582">BedrockAgentOptimizationService</text></g><!--entity Repo--><g class="entity" data-qualified-name="repositories.Repo" data-source-line="19" id="ent0012"><rect fill="#F1F1F1" height="46.2969" rx="2.5" ry="2.5" style="stroke:#181818;stroke-width:0.5;" width="157.9951" x="713" y="321.8869"/><rect fill="#F1F1F1" height="10" style="stroke:#181818;stroke-width:0.5;" width="15" x="850.9951" y="326.8869"/><rect fill="#F1F1F1" height="2" style="stroke:#181818;stroke-width:0.5;" width="4" x="848.9951" y="328.8869"/><rect fill="#F1F1F1" height="2" style="stroke:#181818;stroke-width:0.5;" width="4" x="848.9951" y="332.8869"/><text fill="#000000" font-family="sans-serif" font-size="14" lengthAdjust="spacing" textLength="117.9951" x="728" y="354.882">BillingRepository</text></g><!--entity LLMRepo--><g class="entity" data-qualified-name="repositories.LLMRepo" data-source-line="20" id="ent0013"><rect fill="#F1F1F1" height="46.2969" rx="2.5" ry="2.5" style="stroke:#181818;stroke-width:0.5;" width="211.623" x="906.19" y="321.8869"/><rect fill="#F1F1F1" height="10" style="stroke:#181818;stroke-width:0.5;" width="15" x="1097.813" y="326.8869"/><rect fill="#F1F1F1" height="2" style="stroke:#181818;stroke-width:0.5;" width="4" x="1095.813" y="328.8869"/><rect fill="#F1F1F1" height="2" style="stroke:#181818;stroke-width:0.5;" width="4" x="1095.813" y="332.8869"/><text fill="#000000" font-family="sans-serif" font-size="14" lengthAdjust="spacing" textLength="171.623" x="921.19" y="354.882">LLMUsageLogRepository</text></g><!--entity AgentRepo--><g class="entity" data-qualified-name="repositories.AgentRepo" data-source-line="21" id="ent0014"><rect fill="#F1F1F1" height="46.2969" rx="2.5" ry="2.5" style="stroke:#181818;stroke-width:0.5;" width="156.5117" x="1152.74" y="321.8869"/><rect fill="#F1F1F1" height="10" style="stroke:#181818;stroke-width:0.5;" width="15" x="1289.2517" y="326.8869"/><rect fill="#F1F1F1" height="2" style="stroke:#181818;stroke-width:0.5;" width="4" x="1287.2517" y="328.8869"/><rect fill="#F1F1F1" height="2" style="stroke:#181818;stroke-width:0.5;" width="4" x="1287.2517" y="332.8869"/><text fill="#000000" font-family="sans-serif" font-size="14" lengthAdjust="spacing" textLength="116.5117" x="1167.74" y="354.882">AgentRepository</text></g><!--entity Model--><g class="entity" data-qualified-name="models.Model" data-source-line="25" id="ent0016"><rect fill="#F1F1F1" height="46.2969" rx="2.5" ry="2.5" style="stroke:#181818;stroke-width:0.5;" width="116.3506" x="646.82" y="443.1869"/><rect fill="#F1F1F1" height="10" style="stroke:#181818;stroke-width:0.5;" width="15" x="743.1706" y="448.1869"/><rect fill="#F1F1F1" height="2" style="stroke:#181818;stroke-width:0.5;" width="4" x="741.1706" y="450.1869"/><rect fill="#F1F1F1" height="2" style="stroke:#181818;stroke-width:0.5;" width="4" x="741.1706" y="454.1869"/><text fill="#000000" font-family="sans-serif" font-size="14" lengthAdjust="spacing" textLength="76.3506" x="661.82" y="476.182">BillingData</text></g><!--entity Run--><g class="entity" data-qualified-name="models.Run" data-source-line="26" id="ent0017"><rect fill="#F1F1F1" height="46.2969" rx="2.5" ry="2.5" style="stroke:#181818;stroke-width:0.5;" width="171.8037" x="156.1" y="443.1869"/><rect fill="#F1F1F1" height="10" style="stroke:#181818;stroke-width:0.5;" width="15" x="307.9037" y="448.1869"/><rect fill="#F1F1F1" height="2" style="stroke:#181818;stroke-width:0.5;" width="4" x="305.9037" y="450.1869"/><rect fill="#F1F1F1" height="2" style="stroke:#181818;stroke-width:0.5;" width="4" x="305.9037" y="454.1869"/><text fill="#000000" font-family="sans-serif" font-size="14" lengthAdjust="spacing" textLength="131.8037" x="171.1" y="476.182">BillingAnomalyRun</text></g><!--entity LLMLog--><g class="entity" data-qualified-name="models.LLMLog" data-source-line="27" id="ent0018"><rect fill="#F1F1F1" height="46.2969" rx="2.5" ry="2.5" style="stroke:#181818;stroke-width:0.5;" width="136.5508" x="797.72" y="443.1869"/><rect fill="#F1F1F1" height="10" style="stroke:#181818;stroke-width:0.5;" width="15" x="914.2708" y="448.1869"/><rect fill="#F1F1F1" height="2" style="stroke:#181818;stroke-width:0.5;" width="4" x="912.2708" y="450.1869"/><rect fill="#F1F1F1" height="2" style="stroke:#181818;stroke-width:0.5;" width="4" x="912.2708" y="454.1869"/><text fill="#000000" font-family="sans-serif" font-size="14" lengthAdjust="spacing" textLength="96.5508" x="812.72" y="476.182">LLMUsageLog</text></g><!--entity Agent--><g class="entity" data-qualified-name="models.Agent" data-source-line="28" id="ent0019"><rect fill="#F1F1F1" height="46.2969" rx="2.5" ry="2.5" style="stroke:#181818;stroke-width:0.5;" width="81.4395" x="758.28" y="549.4769"/><rect fill="#F1F1F1" height="10" style="stroke:#181818;stroke-width:0.5;" width="15" x="819.7195" y="554.4769"/><rect fill="#F1F1F1" height="2" style="stroke:#181818;stroke-width:0.5;" width="4" x="817.7195" y="556.4769"/><rect fill="#F1F1F1" height="2" style="stroke:#181818;stroke-width:0.5;" width="4" x="817.7195" y="560.4769"/><text fill="#000000" font-family="sans-serif" font-size="14" lengthAdjust="spacing" textLength="41.4395" x="773.28" y="582.472">Agent</text></g><!--entity Credential--><g class="entity" data-qualified-name="models.Credential" data-source-line="29" id="ent0020"><rect fill="#F1F1F1" height="46.2969" rx="2.5" ry="2.5" style="stroke:#181818;stroke-width:0.5;" width="112.3652" x="499.82" y="443.1869"/><rect fill="#F1F1F1" height="10" style="stroke:#181818;stroke-width:0.5;" width="15" x="592.1852" y="448.1869"/><rect fill="#F1F1F1" height="2" style="stroke:#181818;stroke-width:0.5;" width="4" x="590.1852" y="450.1869"/><rect fill="#F1F1F1" height="2" style="stroke:#181818;stroke-width:0.5;" width="4" x="590.1852" y="454.1869"/><text fill="#000000" font-family="sans-serif" font-size="14" lengthAdjust="spacing" textLength="72.3652" x="514.82" y="476.182">Credential</text></g><!--entity Audit--><g class="entity" data-qualified-name="models.Audit" data-source-line="30" id="ent0021"><rect fill="#F1F1F1" height="46.2969" rx="2.5" ry="2.5" style="stroke:#181818;stroke-width:0.5;" width="101.9678" x="363.02" y="443.1869"/><rect fill="#F1F1F1" height="10" style="stroke:#181818;stroke-width:0.5;" width="15" x="444.9878" y="448.1869"/><rect fill="#F1F1F1" height="2" style="stroke:#181818;stroke-width:0.5;" width="4" x="442.9878" y="450.1869"/><rect fill="#F1F1F1" height="2" style="stroke:#181818;stroke-width:0.5;" width="4" x="442.9878" y="454.1869"/><text fill="#000000" font-family="sans-serif" font-size="14" lengthAdjust="spacing" textLength="61.9678" x="378.02" y="476.182">AuditLog</text></g><!--entity Schemas--><g class="entity" data-qualified-name="schemas.Schemas" data-source-line="34" id="ent0023"><rect fill="#F1F1F1" height="46.2969" rx="2.5" ry="2.5" style="stroke:#181818;stroke-width:0.5;" width="149.3613" x="713.32" y="200.5869"/><rect fill="#F1F1F1" height="10" style="stroke:#181818;stroke-width:0.5;" width="15" x="842.6813" y="205.5869"/><rect fill="#F1F1F1" height="2" style="stroke:#181818;stroke-width:0.5;" width="4" x="840.6813" y="207.5869"/><rect fill="#F1F1F1" height="2" style="stroke:#181818;stroke-width:0.5;" width="4" x="840.6813" y="211.5869"/><text fill="#000000" font-family="sans-serif" font-size="14" lengthAdjust="spacing" textLength="109.3613" x="728.32" y="233.582">Billing schemas</text></g><!--entity LLMSchemas--><g class="entity" data-qualified-name="schemas.LLMSchemas" data-source-line="35" id="ent0024"><rect fill="#F1F1F1" height="46.2969" rx="2.5" ry="2.5" style="stroke:#181818;stroke-width:0.5;" width="167.6133" x="1172.19" y="200.5869"/><rect fill="#F1F1F1" height="10" style="stroke:#181818;stroke-width:0.5;" width="15" x="1319.8033" y="205.5869"/><rect fill="#F1F1F1" height="2" style="stroke:#181818;stroke-width:0.5;" width="4" x="1317.8033" y="207.5869"/><rect fill="#F1F1F1" height="2" style="stroke:#181818;stroke-width:0.5;" width="4" x="1317.8033" y="211.5869"/><text fill="#000000" font-family="sans-serif" font-size="14" lengthAdjust="spacing" textLength="127.6133" x="1187.19" y="233.582">LLM cost schemas</text></g><!--entity AgentSchemas--><g class="entity" data-qualified-name="schemas.AgentSchemas" data-source-line="36" id="ent0025"><rect fill="#F1F1F1" height="46.2969" rx="2.5" ry="2.5" style="stroke:#181818;stroke-width:0.5;" width="239.4316" x="897.28" y="200.5869"/><rect fill="#F1F1F1" height="10" style="stroke:#181818;stroke-width:0.5;" width="15" x="1116.7116" y="205.5869"/><rect fill="#F1F1F1" height="2" style="stroke:#181818;stroke-width:0.5;" width="4" x="1114.7116" y="207.5869"/><rect fill="#F1F1F1" height="2" style="stroke:#181818;stroke-width:0.5;" width="4" x="1114.7116" y="211.5869"/><text fill="#000000" font-family="sans-serif" font-size="14" lengthAdjust="spacing" textLength="199.4316" x="912.28" y="233.582">Agent optimization schemas</text></g><!--link API to Service--><g class="link" data-entity-1="ent0003" data-entity-2="ent0007" data-link-type="dependency" data-source-line="39" id="lnk26"><path d="M495.73,102.8469 C421.51,103.7869 282.63,112.2069 175,157.5869 C151.36,167.5569 132.9344,181.6651 116.8944,196.2851" fill="none" id="API-to-Service" style="stroke:#181818;stroke-width:1;"/><polygon fill="#181818" points="112.46,200.3269,121.8061,197.2204,116.1553,196.9587,116.417,191.3079,112.46,200.3269" style="stroke:#181818;stroke-width:1;"/></g><!--link API to Schemas--><g class="link" data-entity-1="ent0003" data-entity-2="ent0023" data-link-type="dependency" data-source-line="40" id="lnk27"><path d="M576.07,126.0369 C588.28,134.7469 603.17,143.9469 618,149.5869 C641.09,158.3769 649.63,149.5869 673,157.5869 C702.74,167.7769 728.5511,182.4442 750.8011,196.9242" fill="none" id="API-to-Schemas" style="stroke:#181818;stroke-width:1;"/><polygon fill="#181818" points="755.83,200.1969,750.4685,191.9352,751.6393,197.4696,746.1049,198.6404,755.83,200.1969" style="stroke:#181818;stroke-width:1;"/></g><!--link LLMAPI to LLMCost--><g class="link" data-entity-1="ent0004" data-entity-2="ent0009" data-link-type="dependency" data-source-line="41" id="lnk28"><path d="M798.21,126.0069 C787.96,134.8169 775.21,144.1069 762,149.5869 C735.11,160.7369 724.64,148.4669 697,157.5869 C666.93,167.5169 640.8733,182.3805 618.6233,197.0105" fill="none" id="LLMAPI-to-LLMCost" style="stroke:#181818;stroke-width:1;"/><polygon fill="#181818" points="613.61,200.3069,623.3276,198.7045,617.7878,197.5599,618.9324,192.02,613.61,200.3069" style="stroke:#181818;stroke-width:1;"/></g><!--link LLMAPI to LLMSchemas--><g class="link" data-entity-1="ent0004" data-entity-2="ent0024" data-link-type="dependency" data-source-line="42" id="lnk29"><path d="M862.89,104.8369 C927.42,108.1769 1054.14,119.4569 1154,157.5869 C1180.89,167.8569 1203.3815,182.2352 1222.9715,196.6852" fill="none" id="LLMAPI-to-LLMSchemas" style="stroke:#181818;stroke-width:1;"/><polygon fill="#181818" points="1227.8,200.2469,1222.9316,191.6854,1223.7762,197.2788,1218.1828,198.1235,1227.8,200.2469" style="stroke:#181818;stroke-width:1;"/></g><!--link AgentsAPI to Optimization--><g class="link" data-entity-1="ent0005" data-entity-2="ent0010" data-link-type="dependency" data-source-line="43" id="lnk30"><path d="M661.86,125.9069 C648.95,134.9369 632.98,144.4169 617,149.5869 C562.77,167.1469 544.53,144.7169 489,157.5869 C449.04,166.8569 411.5925,182.6568 380.7725,197.5468" fill="none" id="AgentsAPI-to-Optimization" style="stroke:#181818;stroke-width:1;"/><polygon fill="#181818" points="375.37,200.1569,385.2139,199.8434,379.8721,197.9818,381.7337,192.64,375.37,200.1569" style="stroke:#181818;stroke-width:1;"/></g><!--link AgentsAPI to AgentSchemas--><g class="link" data-entity-1="ent0005" data-entity-2="ent0025" data-link-type="dependency" data-source-line="44" id="lnk31"><path d="M717.73,125.8669 C730.45,134.8969 746.21,144.3769 762,149.5869 C811.92,166.0669 829.15,144.2869 880,157.5869 C915.42,166.8469 947.5179,182.3479 974.2579,197.2379" fill="none" id="AgentsAPI-to-AgentSchemas" style="stroke:#181818;stroke-width:1;"/><polygon fill="#181818" points="979.5,200.1569,973.5829,192.2836,975.1316,197.7244,969.6909,199.2731,979.5,200.1569" style="stroke:#181818;stroke-width:1;"/></g><!--link Service to Repo--><g class="link" data-entity-1="ent0007" data-entity-2="ent0012" data-link-type="dependency" data-source-line="46" id="lnk32"><path d="M122.76,247.3369 C137.94,256.5169 156.65,266.0669 175,270.8869 C228.53,284.9369 619.5,264.7369 673,278.8869 C705.11,287.3769 732.95,302.9602 755.97,318.2302" fill="none" id="Service-to-Repo" style="stroke:#181818;stroke-width:1;"/><polygon fill="#181818" points="760.97,321.5469,755.6811,313.2386,756.8034,318.783,751.2589,319.9052,760.97,321.5469" style="stroke:#181818;stroke-width:1;"/></g><!--link Service to AWS--><g class="link" data-entity-1="ent0007" data-entity-2="ent0008" data-link-type="dependency" data-source-line="47" id="lnk33"><path d="M93.01,247.1769 C95.87,268.5069 99.3543,294.4499 102.2043,315.7499" fill="none" id="Service-to-AWS" style="stroke:#181818;stroke-width:1;"/><polygon fill="#181818" points="103,321.6969,105.7711,312.2459,102.3369,316.741,97.8417,313.3069,103,321.6969" style="stroke:#181818;stroke-width:1;"/></g><!--link Service to Run--><g class="link" data-entity-1="ent0007" data-entity-2="ent0017" data-link-type="dependency" data-source-line="48" id="lnk34"><path d="M126.68,247.2869 C141.32,255.5769 158.57,264.4869 175,270.8869 C188.66,276.2069 196.95,268.2169 207,278.8869 C249.57,324.0669 248.9782,397.822 245.4082,436.732" fill="none" id="Service-to-Run" style="stroke:#181818;stroke-width:1;"/><polygon fill="#181818" points="244.86,442.7069,249.6656,434.11,245.3168,437.7278,241.699,433.3791,244.86,442.7069" style="stroke:#181818;stroke-width:1;"/></g><!--link Service to Audit--><g class="link" data-entity-1="ent0007" data-entity-2="ent0021" data-link-type="dependency" data-source-line="49" id="lnk35"><path d="M124.19,247.3269 C139.18,256.1469 157.35,265.4269 175,270.8869 C208.29,281.1769 222.43,262.1569 253,278.8869 C309.41,309.7669 300.55,343.8769 343,392.1869 C358.42,409.7369 372.5659,424.3857 386.7759,438.5857" fill="none" id="Service-to-Audit" style="stroke:#181818;stroke-width:1;"/><polygon fill="#181818" points="391.02,442.8269,387.4812,433.6357,387.4832,439.2926,381.8264,439.2946,391.02,442.8269" style="stroke:#181818;stroke-width:1;"/></g><!--link Repo to Model--><g class="link" data-entity-1="ent0012" data-entity-2="ent0016" data-link-type="dependency" data-source-line="50" id="lnk36"><path d="M775.64,368.4769 C760.08,389.8069 740.3548,416.8487 724.8248,438.1487" fill="none" id="Repo-to-Model" style="stroke:#181818;stroke-width:1;"/><polygon fill="#181818" points="721.29,442.9969,729.8244,438.0812,724.2357,438.9567,723.3602,433.368,721.29,442.9969" style="stroke:#181818;stroke-width:1;"/></g><!--link Model to Agent--><g class="link" data-entity-1="ent0016" data-entity-2="ent0019" data-link-type="dependency" data-source-line="51" id="lnk37"><path d="M725.4,489.9669 C741.16,507.4569 758.8737,527.0994 774.6237,544.5794" fill="none" id="Model-to-Agent" style="stroke:#181818;stroke-width:1;"/><polygon fill="#181818" points="778.64,549.0369,775.5872,539.6731,775.2931,545.3223,769.6439,545.0282,778.64,549.0369" style="stroke:#181818;stroke-width:1;"/></g><!--link LLMCost to LLMRepo--><g class="link" data-entity-1="ent0009" data-entity-2="ent0013" data-link-type="dependency" data-source-line="53" id="lnk38"><path d="M627.87,247.3069 C648.49,256.3569 673.44,265.8269 697,270.8869 C738.53,279.8169 846.98,267.8469 888,278.8869 C920.88,287.7269 949.797,303.1989 973.857,318.2889" fill="none" id="LLMCost-to-LLMRepo" style="stroke:#181818;stroke-width:1;"/><polygon fill="#181818" points="978.94,321.4769,973.4408,313.3063,974.7042,318.8202,969.1902,320.0836,978.94,321.4769" style="stroke:#181818;stroke-width:1;"/></g><!--link LLMRepo to LLMLog--><g class="link" data-entity-1="ent0013" data-entity-2="ent0018" data-link-type="dependency" data-source-line="54" id="lnk39"><path d="M984.54,368.4769 C958.44,389.8069 924.0456,417.8998 897.9856,439.1998" fill="none" id="LLMRepo-to-LLMLog" style="stroke:#181818;stroke-width:1;"/><polygon fill="#181818" points="893.34,442.9969,902.8399,440.3983,897.2114,439.8326,897.7771,434.2041,893.34,442.9969" style="stroke:#181818;stroke-width:1;"/></g><!--link Optimization to AgentRepo--><g class="link" data-entity-1="ent0010" data-entity-2="ent0014" data-link-type="dependency" data-source-line="56" id="lnk40"><path d="M394.52,247.3869 C422.94,256.5669 457.25,266.1169 489,270.8869 C524.49,276.2169 1100.76,268.1269 1135,278.8869 C1162.1,287.3969 1183.8702,302.4444 1202.0902,317.7044" fill="none" id="Optimization-to-AgentRepo" style="stroke:#181818;stroke-width:1;"/><polygon fill="#181818" points="1206.69,321.5569,1202.3587,312.7116,1202.8568,318.3464,1197.222,318.8446,1206.69,321.5569" style="stroke:#181818;stroke-width:1;"/></g><!--link Optimization to Credential--><g class="link" data-entity-1="ent0010" data-entity-2="ent0020" data-link-type="dependency" data-source-line="57" id="lnk41"><path d="M360.08,247.3369 C371.28,256.7369 384.08,267.9869 395,278.8869 C450.86,334.6169 506.1,402.1572 534.68,438.1672" fill="none" id="Optimization-to-Credential" style="stroke:#181818;stroke-width:1;"/><polygon fill="#181818" points="538.41,442.8669,535.9481,433.3307,535.3017,438.9505,529.6819,438.304,538.41,442.8669" style="stroke:#181818;stroke-width:1;"/></g><!--link Optimization to Audit--><g class="link" data-entity-1="ent0010" data-entity-2="ent0021" data-link-type="dependency" data-source-line="58" id="lnk42"><path d="M339.71,247.3769 C355.38,293.3469 388.8347,391.4776 404.4347,437.2576" fill="none" id="Optimization-to-Audit" style="stroke:#181818;stroke-width:1;"/><polygon fill="#181818" points="406.37,442.9369,407.2533,433.1277,404.7573,438.2041,399.6809,435.7081,406.37,442.9369" style="stroke:#181818;stroke-width:1;"/></g><!--link AgentRepo to Agent--><g class="link" data-entity-1="ent0014" data-entity-2="ent0019" data-link-type="dependency" data-source-line="59" id="lnk43"><path d="M1188,368.4869 C1104.55,412.0669 927.0185,504.7796 845.2485,547.4796" fill="none" id="AgentRepo-to-Agent" style="stroke:#181818;stroke-width:1;"/><polygon fill="#181818" points="839.93,550.2569,849.7593,549.6366,844.3621,547.9425,846.0562,542.5452,839.93,550.2569" style="stroke:#181818;stroke-width:1;"/></g><?plantuml-src TLFRQiCm37ttLuYyTsC_CEWw1eEMbfQnPpSHdQbZUx5JwCR-VOuI9tOkBucbSoGT9SVsAfJX5I_1yFpABtXoTubGOUwukaXap0dd4mV-NQD32sTFGrN02dQwgAM6Dw7snZBMrKF6ZNYyFMNmom1oNHgjK3d8pa9AeIuFvfu1jx0-lAUub6N0jjlT1FQjbRDzDKKDwI-QRB6wYHpjPFPBE_lKujIXEwUyzUTfXkgpASthssZhOawN6et5ejBvbSJkZHEb-E5EQ1KNnlbacGgDjiBfIYmlT0oSzgiquKJfX_NjjdhCzSYKJaf7n3wNg2jrWN9Hrojtd8ft3MsMibQwvF9-h5KhlLQBoeDUVvoHEuXCmKs5XJy8BeanXACUTI5S6491Qgdy2qk-k2ZqU6EfzZpPmuVM9KoVd2NJ6g0ZIoHb18T2hzBx7rQhvzxBVTnHsdj4gU3FD1M8_NKY8B5a2YKAM3UN4798d6XkJKBmVpZ1wLitPHIsJg7dC8cnJdSGJ5EwTyWrjc2nvg6Uw1CeiiAqZ5JrnKEhVm00?></g></svg>