<svg xmlns="http://www.w3.org/2000/svg" xmlns:xlink="http://www.w3.org/1999/xlink" contentStyleType="text/css" data-diagram-type="CLASS" height="615px" preserveAspectRatio="none" style="width:677px;height:615px;background:#FFFFFF;" version="1.1" viewBox="0 0 677 615" width="677px" zoomAndPan="magnify"><?plantuml 1.2026.3beta6?><defs/><g><g class="title" data-source-line="4"><text fill="#000000" font-family="sans-serif" font-size="14" font-weight="700" lengthAdjust="spacing" textLength="263.833" x="203.2591" y="22.9951">Modelo de datos - Modulo FinOps</text></g><!--class Org--><g class="entity" data-qualified-name="Org" data-source-line="6" id="ent0002"><rect fill="#F1F1F1" height="74.8906" rx="2.5" ry="2.5" style="stroke:#181818;stroke-width:0.5;" width="100.5889" x="285.52" y="44.2969"/><text fill="#000000" font-family="sans-serif" font-size="14" lengthAdjust="spacing" textLength="94.5889" x="288.52" y="62.292">organizations</text><line style="stroke:#181818;stroke-width:0.5;" x1="286.52" x2="385.1089" y1="70.5938" y2="70.5938"/><g data-visibility-modifier="IE_MANDATORY"><ellipse cx="296.52" cy="84.2422" fill="#000000" rx="3" ry="3" style="stroke:#000000;stroke-width:1;"/></g><text fill="#000000" font-family="sans-serif" font-size="14" lengthAdjust="spacing" textLength="12.7764" x="305.52" y="87.5889">id</text><line style="stroke:#181818;stroke-width:1;" x1="286.52" x2="385.1089" y1="94.8906" y2="94.8906"/><text fill="#000000" font-family="sans-serif" font-size="14" lengthAdjust="spacing" textLength="39.7031" x="291.52" y="111.8857">name</text></g><!--class Cred--><g class="entity" data-qualified-name="Cred" data-source-line="12" id="ent0003"><rect fill="#F1F1F1" height="107.4844" rx="2.5" ry="2.5" style="stroke:#181818;stroke-width:0.5;" width="121.6348" x="7" y="187.3369"/><text fill="#000000" font-family="sans-serif" font-size="14" lengthAdjust="spacing" textLength="77.5811" x="29.0269" y="205.332">credentials</text><line style="stroke:#181818;stroke-width:0.5;" x1="8" x2="127.6348" y1="213.6337" y2="213.6337"/><g data-visibility-modifier="IE_MANDATORY"><ellipse cx="18" cy="227.2822" fill="#000000" rx="3" ry="3" style="stroke:#000000;stroke-width:1;"/></g><text fill="#000000" font-family="sans-serif" font-size="14" lengthAdjust="spacing" textLength="12.7764" x="27" y="230.6289">id</text><line style="stroke:#181818;stroke-width:1;" x1="8" x2="127.6348" y1="237.9306" y2="237.9306"/><text fill="#000000" font-family="sans-serif" font-size="14" lengthAdjust="spacing" textLength="107.0713" x="13" y="254.9257">organization_id</text><text fill="#000000" font-family="sans-serif" font-size="14" lengthAdjust="spacing" textLength="58.6387" x="13" y="271.2226">provider</text><text fill="#000000" font-family="sans-serif" font-size="14" lengthAdjust="spacing" textLength="109.6348" x="13" y="287.5195">encrypted_data</text></g><!--class Agent--><g class="entity" data-qualified-name="Agent" data-source-line="20" id="ent0004"><rect fill="#F1F1F1" height="123.7813" rx="2.5" ry="2.5" style="stroke:#181818;stroke-width:0.5;" width="119.0713" x="163.28" y="179.1869"/><text fill="#000000" font-family="sans-serif" font-size="14" lengthAdjust="spacing" textLength="47.7354" x="198.948" y="197.182">agents</text><line style="stroke:#181818;stroke-width:0.5;" x1="164.28" x2="281.3513" y1="205.4838" y2="205.4838"/><g data-visibility-modifier="IE_MANDATORY"><ellipse cx="174.28" cy="219.1322" fill="#000000" rx="3" ry="3" style="stroke:#000000;stroke-width:1;"/></g><text fill="#000000" font-family="sans-serif" font-size="14" lengthAdjust="spacing" textLength="12.7764" x="183.28" y="222.4789">id</text><line style="stroke:#181818;stroke-width:1;" x1="164.28" x2="281.3513" y1="229.7806" y2="229.7806"/><text fill="#000000" font-family="sans-serif" font-size="14" lengthAdjust="spacing" textLength="107.0713" x="169.28" y="246.7757">organization_id</text><text fill="#000000" font-family="sans-serif" font-size="14" lengthAdjust="spacing" textLength="58.6387" x="169.28" y="263.0726">provider</text><text fill="#000000" font-family="sans-serif" font-size="14" lengthAdjust="spacing" textLength="78.415" x="169.28" y="279.3695">provider_id</text><text fill="#000000" font-family="sans-serif" font-size="14" lengthAdjust="spacing" textLength="39.7031" x="169.28" y="295.6664">name</text></g><!--class Billing--><g class="entity" data-qualified-name="Billing" data-source-line="29" id="ent0005"><rect fill="#F1F1F1" height="237.8594" rx="2.5" ry="2.5" style="stroke:#181818;stroke-width:0.5;" width="119.0713" x="219.28" y="362.9669"/><text fill="#000000" font-family="sans-serif" font-size="14" lengthAdjust="spacing" textLength="80.7393" x="238.446" y="380.962">billing_data</text><line style="stroke:#181818;stroke-width:0.5;" x1="220.28" x2="337.3513" y1="389.2637" y2="389.2637"/><g data-visibility-modifier="IE_MANDATORY"><ellipse cx="230.28" cy="402.9122" fill="#000000" rx="3" ry="3" style="stroke:#000000;stroke-width:1;"/></g><text fill="#000000" font-family="sans-serif" font-size="14" lengthAdjust="spacing" textLength="12.7764" x="239.28" y="406.2589">id</text><line style="stroke:#181818;stroke-width:1;" x1="220.28" x2="337.3513" y1="413.5606" y2="413.5606"/><text fill="#000000" font-family="sans-serif" font-size="14" lengthAdjust="spacing" textLength="107.0713" x="225.28" y="430.5557">organization_id</text><text fill="#000000" font-family="sans-serif" font-size="14" lengthAdjust="spacing" textLength="60.2178" x="225.28" y="446.8526">agent_id</text><text fill="#000000" font-family="sans-serif" font-size="14" lengthAdjust="spacing" textLength="58.6387" x="225.28" y="463.1495">provider</text><text fill="#000000" font-family="sans-serif" font-size="14" lengthAdjust="spacing" textLength="80.9443" x="225.28" y="479.4464">resource_id</text><text fill="#000000" font-family="sans-serif" font-size="14" lengthAdjust="spacing" textLength="84.2051" x="225.28" y="495.7432">period_start</text><text fill="#000000" font-family="sans-serif" font-size="14" lengthAdjust="spacing" textLength="77.9707" x="225.28" y="512.0401">period_end</text><text fill="#000000" font-family="sans-serif" font-size="14" lengthAdjust="spacing" textLength="29.0459" x="225.28" y="528.337">cost</text><text fill="#000000" font-family="sans-serif" font-size="14" lengthAdjust="spacing" textLength="61.5508" x="225.28" y="544.6339">currency</text><text fill="#000000" font-family="sans-serif" font-size="14" lengthAdjust="spacing" textLength="96.8516" x="225.28" y="560.9307">service_name</text><text fill="#000000" font-family="sans-serif" font-size="14" lengthAdjust="spacing" textLength="80.5205" x="225.28" y="577.2276">usage_type</text><text fill="#000000" font-family="sans-serif" font-size="14" lengthAdjust="spacing" textLength="70.7178" x="225.28" y="593.5245">synced_at</text></g><!--class LLM--><g class="entity" data-qualified-name="LLM" data-source-line="45" id="ent0006"><rect fill="#F1F1F1" height="123.7813" rx="2.5" ry="2.5" style="stroke:#181818;stroke-width:0.5;" width="119.0713" x="389.28" y="179.1869"/><text fill="#000000" font-family="sans-serif" font-size="14" lengthAdjust="spacing" textLength="106.2988" x="395.6662" y="197.182">llm_usage_logs</text><line style="stroke:#181818;stroke-width:0.5;" x1="390.28" x2="507.3513" y1="205.4838" y2="205.4838"/><g data-visibility-modifier="IE_MANDATORY"><ellipse cx="400.28" cy="219.1322" fill="#000000" rx="3" ry="3" style="stroke:#000000;stroke-width:1;"/></g><text fill="#000000" font-family="sans-serif" font-size="14" lengthAdjust="spacing" textLength="12.7764" x="409.28" y="222.4789">id</text><line style="stroke:#181818;stroke-width:1;" x1="390.28" x2="507.3513" y1="229.7806" y2="229.7806"/><text fill="#000000" font-family="sans-serif" font-size="14" lengthAdjust="spacing" textLength="107.0713" x="395.28" y="246.7757">organization_id</text><text fill="#000000" font-family="sans-serif" font-size="14" lengthAdjust="spacing" textLength="58.6387" x="395.28" y="263.0726">provider</text><text fill="#000000" font-family="sans-serif" font-size="14" lengthAdjust="spacing" textLength="43.5928" x="395.28" y="279.3695">model</text><text fill="#000000" font-family="sans-serif" font-size="14" lengthAdjust="spacing" textLength="61.0996" x="395.28" y="295.6664">cost_usd</text></g><!--class Audit--><g class="entity" data-qualified-name="Audit" data-source-line="54" id="ent0007"><rect fill="#F1F1F1" height="107.4844" rx="2.5" ry="2.5" style="stroke:#181818;stroke-width:0.5;" width="119.0713" x="543.28" y="187.3369"/><text fill="#000000" font-family="sans-serif" font-size="14" lengthAdjust="spacing" textLength="71.3535" x="567.1389" y="205.332">audit_logs</text><line style="stroke:#181818;stroke-width:0.5;" x1="544.28" x2="661.3513" y1="213.6337" y2="213.6337"/><g data-visibility-modifier="IE_MANDATORY"><ellipse cx="554.28" cy="227.2822" fill="#000000" rx="3" ry="3" style="stroke:#000000;stroke-width:1;"/></g><text fill="#000000" font-family="sans-serif" font-size="14" lengthAdjust="spacing" textLength="12.7764" x="563.28" y="230.6289">id</text><line style="stroke:#181818;stroke-width:1;" x1="544.28" x2="661.3513" y1="237.9306" y2="237.9306"/><text fill="#000000" font-family="sans-serif" font-size="14" lengthAdjust="spacing" textLength="107.0713" x="549.28" y="254.9257">organization_id</text><text fill="#000000" font-family="sans-serif" font-size="14" lengthAdjust="spacing" textLength="43.0938" x="549.28" y="271.2226">action</text><text fill="#000000" font-family="sans-serif" font-size="14" lengthAdjust="spacing" textLength="46.6416" x="549.28" y="287.5195">details</text></g><!--link Org to Cred--><g class="link" data-entity-1="ent0002" data-entity-2="ent0003" data-link-type="crowfoot" data-source-line="62" id="lnk8"><path codeLine="62" d="M277.09,81.8269 C199.4,81.8269 67.82,81.8269 67.82,81.8269 C67.82,81.8269 67.82,122.9669 67.82,169.1669" fill="none" id="Org-Cred" style="stroke:#181818;stroke-width:1;"/><line style="stroke:#181818;stroke-width:1;" x1="281.09" x2="281.09" y1="77.8269" y2="85.8269"/><line style="stroke:#181818;stroke-width:1;" x1="278.09" x2="278.09" y1="77.8269" y2="85.8269"/><line style="stroke:#181818;stroke-width:1;" x1="277.09" x2="285.09" y1="81.8269" y2="81.8269"/><line style="stroke:#181818;stroke-width:1;" x1="67.82" x2="73.82" y1="179.1669" y2="187.1669"/><line style="stroke:#181818;stroke-width:1;" x1="67.82" x2="61.82" y1="179.1669" y2="187.1669"/><line style="stroke:#181818;stroke-width:1;" x1="67.82" x2="67.82" y1="179.1669" y2="187.1669"/><ellipse cx="67.82" cy="173.1669" fill="none" rx="4" ry="4" style="stroke:#181818;stroke-width:1;"/></g><!--link Org to Agent--><g class="link" data-entity-1="ent0002" data-entity-2="ent0004" data-link-type="crowfoot" data-source-line="63" id="lnk9"><path codeLine="63" d="M303.13,127.4969 C303.13,180.2969 303.13,261.8269 303.13,261.8269 C303.13,261.8269 312.28,261.8269 300.45,261.8269" fill="none" id="Org-Agent" style="stroke:#181818;stroke-width:1;"/><line style="stroke:#181818;stroke-width:1;" x1="299.13" x2="307.13" y1="123.4969" y2="123.4969"/><line style="stroke:#181818;stroke-width:1;" x1="299.13" x2="307.13" y1="126.4969" y2="126.4969"/><line style="stroke:#181818;stroke-width:1;" x1="303.13" x2="303.13" y1="127.4969" y2="119.4969"/><line style="stroke:#181818;stroke-width:1;" x1="290.45" x2="282.45" y1="261.8269" y2="267.8269"/><line style="stroke:#181818;stroke-width:1;" x1="290.45" x2="282.45" y1="261.8269" y2="255.8269"/><line style="stroke:#181818;stroke-width:1;" x1="290.45" x2="282.45" y1="261.8269" y2="261.8269"/><ellipse cx="296.45" cy="261.8269" fill="none" rx="4" ry="4" style="stroke:#181818;stroke-width:1;"/></g><!--link Org to Billing--><g class="link" data-entity-1="ent0002" data-entity-2="ent0005" data-link-type="crowfoot" data-source-line="64" id="lnk10"><path codeLine="64" d="M320.74,127.3869 C320.74,182.5469 320.74,261.7669 320.74,344.6969" fill="none" id="Org-Billing" style="stroke:#181818;stroke-width:1;"/><line style="stroke:#181818;stroke-width:1;" x1="316.74" x2="324.74" y1="123.3869" y2="123.3869"/><line style="stroke:#181818;stroke-width:1;" x1="316.74" x2="324.74" y1="126.3869" y2="126.3869"/><line style="stroke:#181818;stroke-width:1;" x1="320.74" x2="320.74" y1="127.3869" y2="119.3869"/><line style="stroke:#181818;stroke-width:1;" x1="320.74" x2="326.74" y1="354.6969" y2="362.6969"/><line style="stroke:#181818;stroke-width:1;" x1="320.74" x2="314.74" y1="354.6969" y2="362.6969"/><line style="stroke:#181818;stroke-width:1;" x1="320.74" x2="320.74" y1="354.6969" y2="362.6969"/><ellipse cx="320.74" cy="348.6969" fill="none" rx="4" ry="4" style="stroke:#181818;stroke-width:1;"/></g><!--link Org to LLM--><g class="link" data-entity-1="ent0002" data-entity-2="ent0006" data-link-type="crowfoot" data-source-line="65" id="lnk11"><path codeLine="65" d="M362.23,127.3769 C362.23,168.5669 362.23,220.8269 362.23,220.8269 C362.23,220.8269 356.16,220.8269 371.15,220.8269" fill="none" id="Org-LLM" style="stroke:#181818;stroke-width:1;"/><line style="stroke:#181818;stroke-width:1;" x1="358.23" x2="366.23" y1="123.3769" y2="123.3769"/><line style="stroke:#181818;stroke-width:1;" x1="358.23" x2="366.23" y1="126.3769" y2="126.3769"/><line style="stroke:#181818;stroke-width:1;" x1="362.23" x2="362.23" y1="127.3769" y2="119.3769"/><line style="stroke:#181818;stroke-width:1;" x1="381.15" x2="389.15" y1="220.8269" y2="214.8269"/><line style="stroke:#181818;stroke-width:1;" x1="381.15" x2="389.15" y1="220.8269" y2="226.8269"/><line style="stroke:#181818;stroke-width:1;" x1="381.15" x2="389.15" y1="220.8269" y2="220.8269"/><ellipse cx="375.15" cy="220.8269" fill="none" rx="4" ry="4" style="stroke:#181818;stroke-width:1;"/></g><!--link Org to Audit--><g class="link" data-entity-1="ent0002" data-entity-2="ent0007" data-link-type="crowfoot" data-source-line="66" id="lnk12"><path codeLine="66" d="M394.35,81.8269 C471.76,81.8269 602.82,81.8269 602.82,81.8269 C602.82,81.8269 602.82,122.9669 602.82,169.1669" fill="none" id="Org-Audit" style="stroke:#181818;stroke-width:1;"/><line style="stroke:#181818;stroke-width:1;" x1="390.35" x2="390.35" y1="85.8269" y2="77.8269"/><line style="stroke:#181818;stroke-width:1;" x1="393.35" x2="393.35" y1="85.8269" y2="77.8269"/><line style="stroke:#181818;stroke-width:1;" x1="394.35" x2="386.35" y1="81.8269" y2="81.8269"/><line style="stroke:#181818;stroke-width:1;" x1="602.82" x2="608.82" y1="179.1669" y2="187.1669"/><line style="stroke:#181818;stroke-width:1;" x1="602.82" x2="596.82" y1="179.1669" y2="187.1669"/><line style="stroke:#181818;stroke-width:1;" x1="602.82" x2="602.82" y1="179.1669" y2="187.1669"/><ellipse cx="602.82" cy="173.1669" fill="none" rx="4" ry="4" style="stroke:#181818;stroke-width:1;"/></g><!--link Agent to Billing--><g class="link" data-entity-1="ent0004" data-entity-2="ent0005" data-link-type="crowfoot" data-source-line="68" id="lnk13"><path codeLine="68" d="M250.82,318.4069 C250.82,336.6669 250.82,324.2669 250.82,344.8069" fill="none" id="Agent-Billing" style="stroke:#181818;stroke-width:1;"/><line style="stroke:#181818;stroke-width:1;" x1="250.82" x2="250.82" y1="314.4069" y2="303.4069"/><ellipse cx="250.82" cy="314.4069" fill="none" rx="4" ry="4" style="stroke:#181818;stroke-width:1;"/><line style="stroke:#181818;stroke-width:1;" x1="246.82" x2="254.82" y1="307.4069" y2="307.4069"/><line style="stroke:#181818;stroke-width:1;" x1="250.82" x2="256.82" y1="354.8069" y2="362.8069"/><line style="stroke:#181818;stroke-width:1;" x1="250.82" x2="244.82" y1="354.8069" y2="362.8069"/><line style="stroke:#181818;stroke-width:1;" x1="250.82" x2="250.82" y1="354.8069" y2="362.8069"/><ellipse cx="250.82" cy="348.8069" fill="none" rx="4" ry="4" style="stroke:#181818;stroke-width:1;"/></g><?plantuml-src bL91RWCX3Bpp2gl7Ilk8j59FYVA45GLhOvN5AyD6sYRzUmsaoYOzjBcWyHYF1-C3UGH7uWAQz45nic9721GnBnC2IpwmCPboGDYnny2W1TvcJj0LPbRcZU9-IiPWr8iBFB4CDjAdpSGnFO5Di9S1JWRWcRoUNQT7j2EQhskH4_G5sz1ANZM-hraBzvMUX8_w1568qSaoPVIzshDhQJieQggR0X-I_O4jSU_wdO8EQwWjQuENHlpTefhwrKqmyImEBmaKOj-dR2LVGumbvpWLpiqY-l95OK8vafPMZm1pqXPz-SQIMwBJoTYyDX_2sBTRWOSsd-rszz1qnh8J5pUgvM_6FdlAL-bD2Vyn5rUm0e_PKaX5iQpF-TnrVAfhiOxhXww9omUiANtKJKanOanRXJElgxu1?></g></svg>