<svg xmlns="http://www.w3.org/2000/svg" xmlns:xlink="http://www.w3.org/1999/xlink" contentStyleType="text/css" data-diagram-type="SEQUENCE" height="1110px" preserveAspectRatio="none" style="width:1691px;height:1110px;background:#FFFFFF;" version="1.1" viewBox="0 0 1691 1110" width="1691px" zoomAndPan="magnify"><?plantuml 1.2026.3?><defs/><g><g class="title" data-source-line="1"><text fill="#000000" font-family="sans-serif" font-size="14" font-weight="700" lengthAdjust="spacing" textLength="459.6689" x="612.6174" y="27.9951">DS-CU12 - Prompt caching controlado en agentes Bedrock</text></g><rect fill="none" height="425.6641" style="stroke:#000000;stroke-width:1.5;" width="1532.7173" x="143.1865" y="585.5859"/><rect fill="none" height="248.8672" style="stroke:#000000;stroke-width:1.5;" width="995.5762" x="670.3276" y="726.25"/><g class="participant-lifeline" data-entity-uid="part1" data-qualified-name="Usuario" data-source-line="3" id="part1-lifeline"><g><title>Usuario autorizado</title><rect fill="#000000" fill-opacity="0.00000" height="909.6563" width="8" x="70.0933" y="118.5938"/><line style="stroke:#181818;stroke-width:0.5;stroke-dasharray:5,5;" x1="74" x2="74" y1="118.5938" y2="1028.25"/></g></g><g class="participant-lifeline" data-entity-uid="part2" data-qualified-name="Administrador" data-source-line="4" id="part2-lifeline"><g><title>Administrador</title><rect fill="#000000" fill-opacity="0.00000" height="909.6563" width="8" x="201.7266" y="118.5938"/><line style="stroke:#181818;stroke-width:0.5;stroke-dasharray:5,5;" x1="205.1865" x2="205.1865" y1="118.5938" y2="1028.25"/></g></g><g class="participant-lifeline" data-entity-uid="part3" data-qualified-name="FE" data-source-line="5" id="part3-lifeline"><g><title>Frontend .costs</title><rect fill="#000000" fill-opacity="0.00000" height="909.6563" width="8" x="333.0254" y="118.5938"/><line style="stroke:#181818;stroke-width:0.5;stroke-dasharray:5,5;" x1="336.7173" x2="336.7173" y1="118.5938" y2="1028.25"/></g></g><g class="participant-lifeline" data-entity-uid="part4" data-qualified-name="API" data-source-line="6" id="part4-lifeline"><g><title>Agents API</title><rect fill="#000000" fill-opacity="0.00000" height="909.6563" width="8" x="720.9937" y="118.5938"/><line style="stroke:#181818;stroke-width:0.5;stroke-dasharray:5,5;" x1="724.3276" x2="724.3276" y1="118.5938" y2="1028.25"/></g></g><g class="participant-lifeline" data-entity-uid="part5" data-qualified-name="Service" data-source-line="7" id="part5-lifeline"><g><title>BedrockAgentOptimizationService</title><rect fill="#000000" fill-opacity="0.00000" height="909.6563" width="8" x="1007.7231" y="118.5938"/><line style="stroke:#181818;stroke-width:0.5;stroke-dasharray:5,5;" x1="1010.7388" x2="1010.7388" y1="118.5938" y2="1028.25"/></g></g><g class="participant-lifeline" data-entity-uid="part6" data-qualified-name="Agent" data-source-line="8" id="part6-lifeline"><g><title>Agent</title><rect fill="#000000" fill-opacity="0.00000" height="909.6563" width="8" x="1379.0454" y="118.5938"/><line style="stroke:#181818;stroke-width:0.5;stroke-dasharray:5,5;" x1="1382.3257" x2="1382.3257" y1="118.5938" y2="1028.25"/></g></g><g class="participant-lifeline" data-entity-uid="part7" data-qualified-name="Audit" data-source-line="9" id="part7-lifeline"><g><title>AuditLog</title><rect fill="#000000" fill-opacity="0.00000" height="909.6563" width="8" x="1446.749" y="118.5938"/><line style="stroke:#181818;stroke-width:0.5;stroke-dasharray:5,5;" x1="1449.7651" x2="1449.7651" y1="118.5938" y2="1028.25"/></g></g><g class="participant-lifeline" data-entity-uid="part8" data-qualified-name="AWS" data-source-line="10" id="part8-lifeline"><g><title>AWS Bedrock Agents</title><rect fill="#000000" fill-opacity="0.00000" height="909.6563" width="8" x="1571.3184" y="118.5938"/><line style="stroke:#181818;stroke-width:0.5;stroke-dasharray:5,5;" x1="1574.7329" x2="1574.7329" y1="118.5938" y2="1028.25"/></g></g><g class="participant participant-head" data-entity-uid="part1" data-qualified-name="Usuario" data-source-line="3" id="part1-head"><text fill="#000000" font-family="sans-serif" font-size="14" lengthAdjust="spacing" textLength="132.1865" x="5" y="115.292">Usuario autorizado</text><ellipse cx="74.0933" cy="50.7969" fill="#E2E2F0" rx="8" ry="8" style="stroke:#181818;stroke-width:0.5;"/><path d="M74.0933,58.7969 L74.0933,85.7969 M61.0933,66.7969 L87.0933,66.7969 M74.0933,85.7969 L61.0933,100.7969 M74.0933,85.7969 L87.0933,100.7969" fill="none" style="stroke:#181818;stroke-width:0.5;"/></g><g class="participant participant-tail" data-entity-uid="part1" data-qualified-name="Usuario" data-source-line="3" id="part1-tail"><text fill="#000000" font-family="sans-serif" font-size="14" lengthAdjust="spacing" textLength="132.1865" x="5" y="1040.2451">Usuario autorizado</text><ellipse cx="74.0933" cy="1052.0469" fill="#E2E2F0" rx="8" ry="8" style="stroke:#181818;stroke-width:0.5;"/><path d="M74.0933,1060.0469 L74.0933,1087.0469 M61.0933,1068.0469 L87.0933,1068.0469 M74.0933,1087.0469 L61.0933,1102.0469 M74.0933,1087.0469 L87.0933,1102.0469" fill="none" style="stroke:#181818;stroke-width:0.5;"/></g><g class="participant participant-head" data-entity-uid="part2" data-qualified-name="Administrador" data-source-line="4" id="part2-head"><text fill="#000000" font-family="sans-serif" font-size="14" lengthAdjust="spacing" textLength="99.0801" x="153.1865" y="115.292">Administrador</text><ellipse cx="205.7266" cy="50.7969" fill="#E2E2F0" rx="8" ry="8" style="stroke:#181818;stroke-width:0.5;"/><path d="M205.7266,58.7969 L205.7266,85.7969 M192.7266,66.7969 L218.7266,66.7969 M205.7266,85.7969 L192.7266,100.7969 M205.7266,85.7969 L218.7266,100.7969" fill="none" style="stroke:#181818;stroke-width:0.5;"/></g><g class="participant participant-tail" data-entity-uid="part2" data-qualified-name="Administrador" data-source-line="4" id="part2-tail"><text fill="#000000" font-family="sans-serif" font-size="14" lengthAdjust="spacing" textLength="99.0801" x="153.1865" y="1040.2451">Administrador</text><ellipse cx="205.7266" cy="1052.0469" fill="#E2E2F0" rx="8" ry="8" style="stroke:#181818;stroke-width:0.5;"/><path d="M205.7266,1060.0469 L205.7266,1087.0469 M192.7266,1068.0469 L218.7266,1068.0469 M205.7266,1087.0469 L192.7266,1102.0469 M205.7266,1087.0469 L218.7266,1102.0469" fill="none" style="stroke:#181818;stroke-width:0.5;"/></g><g class="participant participant-head" data-entity-uid="part3" data-qualified-name="FE" data-source-line="5" id="part3-head"><rect fill="#E2E2F0" height="30.2969" rx="2.5" ry="2.5" style="stroke:#181818;stroke-width:0.5;" width="122.6162" x="275.7173" y="87.2969"/><text fill="#000000" font-family="sans-serif" font-size="14" lengthAdjust="spacing" textLength="108.6162" x="282.7173" y="107.292">Frontend /costs</text></g><g class="participant participant-tail" data-entity-uid="part3" data-qualified-name="FE" data-source-line="5" id="part3-tail"><rect fill="#E2E2F0" height="30.2969" rx="2.5" ry="2.5" style="stroke:#181818;stroke-width:0.5;" width="122.6162" x="275.7173" y="1027.25"/><text fill="#000000" font-family="sans-serif" font-size="14" lengthAdjust="spacing" textLength="108.6162" x="282.7173" y="1047.2451">Frontend /costs</text></g><g class="participant participant-head" data-entity-uid="part4" data-qualified-name="API" data-source-line="6" id="part4-head"><rect fill="#E2E2F0" height="30.2969" rx="2.5" ry="2.5" style="stroke:#181818;stroke-width:0.5;" width="89.332" x="680.3276" y="87.2969"/><text fill="#000000" font-family="sans-serif" font-size="14" lengthAdjust="spacing" textLength="75.332" x="687.3276" y="107.292">Agents API</text></g><g class="participant participant-tail" data-entity-uid="part4" data-qualified-name="API" data-source-line="6" id="part4-tail"><rect fill="#E2E2F0" height="30.2969" rx="2.5" ry="2.5" style="stroke:#181818;stroke-width:0.5;" width="89.332" x="680.3276" y="1027.25"/><text fill="#000000" font-family="sans-serif" font-size="14" lengthAdjust="spacing" textLength="75.332" x="687.3276" y="1047.2451">Agents API</text></g><g class="participant participant-head" data-entity-uid="part5" data-qualified-name="Service" data-source-line="7" id="part5-head"><rect fill="#E2E2F0" height="30.2969" rx="2.5" ry="2.5" style="stroke:#181818;stroke-width:0.5;" width="253.9688" x="884.7388" y="87.2969"/><text fill="#000000" font-family="sans-serif" font-size="14" lengthAdjust="spacing" textLength="239.9688" x="891.7388" y="107.292">BedrockAgentOptimizationService</text></g><g class="participant participant-tail" data-entity-uid="part5" data-qualified-name="Service" data-source-line="7" id="part5-tail"><rect fill="#E2E2F0" height="30.2969" rx="2.5" ry="2.5" style="stroke:#181818;stroke-width:0.5;" width="253.9688" x="884.7388" y="1027.25"/><text fill="#000000" font-family="sans-serif" font-size="14" lengthAdjust="spacing" textLength="239.9688" x="891.7388" y="1047.2451">BedrockAgentOptimizationService</text></g><g class="participant participant-head" data-entity-uid="part6" data-qualified-name="Agent" data-source-line="8" id="part6-head"><text fill="#000000" font-family="sans-serif" font-size="14" lengthAdjust="spacing" textLength="41.4395" x="1359.3257" y="115.292">Agent</text><path d="M1365.0454,66.2969 C1365.0454,56.2969 1383.0454,56.2969 1383.0454,56.2969 C1383.0454,56.2969 1401.0454,56.2969 1401.0454,66.2969 L1401.0454,92.2969 C1401.0454,102.2969 1383.0454,102.2969 1383.0454,102.2969 C1383.0454,102.2969 1365.0454,102.2969 1365.0454,92.2969 L1365.0454,66.2969" fill="#E2E2F0" style="stroke:#181818;stroke-width:0.5;"/><path d="M1365.0454,66.2969 C1365.0454,76.2969 1383.0454,76.2969 1383.0454,76.2969 C1383.0454,76.2969 1401.0454,76.2969 1401.0454,66.2969" fill="none" style="stroke:#181818;stroke-width:0.5;"/></g><g class="participant participant-tail" data-entity-uid="part6" data-qualified-name="Agent" data-source-line="8" id="part6-tail"><text fill="#000000" font-family="sans-serif" font-size="14" lengthAdjust="spacing" textLength="41.4395" x="1359.3257" y="1040.2451">Agent</text><path d="M1365.0454,1053.5469 C1365.0454,1043.5469 1383.0454,1043.5469 1383.0454,1043.5469 C1383.0454,1043.5469 1401.0454,1043.5469 1401.0454,1053.5469 L1401.0454,1079.5469 C1401.0454,1089.5469 1383.0454,1089.5469 1383.0454,1089.5469 C1383.0454,1089.5469 1365.0454,1089.5469 1365.0454,1079.5469 L1365.0454,1053.5469" fill="#E2E2F0" style="stroke:#181818;stroke-width:0.5;"/><path d="M1365.0454,1053.5469 C1365.0454,1063.5469 1383.0454,1063.5469 1383.0454,1063.5469 C1383.0454,1063.5469 1401.0454,1063.5469 1401.0454,1053.5469" fill="none" style="stroke:#181818;stroke-width:0.5;"/></g><g class="participant participant-head" data-entity-uid="part7" data-qualified-name="Audit" data-source-line="9" id="part7-head"><text fill="#000000" font-family="sans-serif" font-size="14" lengthAdjust="spacing" textLength="61.9678" x="1416.7651" y="115.292">AuditLog</text><path d="M1432.749,66.2969 C1432.749,56.2969 1450.749,56.2969 1450.749,56.2969 C1450.749,56.2969 1468.749,56.2969 1468.749,66.2969 L1468.749,92.2969 C1468.749,102.2969 1450.749,102.2969 1450.749,102.2969 C1450.749,102.2969 1432.749,102.2969 1432.749,92.2969 L1432.749,66.2969" fill="#E2E2F0" style="stroke:#181818;stroke-width:0.5;"/><path d="M1432.749,66.2969 C1432.749,76.2969 1450.749,76.2969 1450.749,76.2969 C1450.749,76.2969 1468.749,76.2969 1468.749,66.2969" fill="none" style="stroke:#181818;stroke-width:0.5;"/></g><g class="participant participant-tail" data-entity-uid="part7" data-qualified-name="Audit" data-source-line="9" id="part7-tail"><text fill="#000000" font-family="sans-serif" font-size="14" lengthAdjust="spacing" textLength="61.9678" x="1416.7651" y="1040.2451">AuditLog</text><path d="M1432.749,1053.5469 C1432.749,1043.5469 1450.749,1043.5469 1450.749,1043.5469 C1450.749,1043.5469 1468.749,1043.5469 1468.749,1053.5469 L1468.749,1079.5469 C1468.749,1089.5469 1450.749,1089.5469 1450.749,1089.5469 C1450.749,1089.5469 1432.749,1089.5469 1432.749,1079.5469 L1432.749,1053.5469" fill="#E2E2F0" style="stroke:#181818;stroke-width:0.5;"/><path d="M1432.749,1053.5469 C1432.749,1063.5469 1450.749,1063.5469 1450.749,1063.5469 C1450.749,1063.5469 1468.749,1063.5469 1468.749,1053.5469" fill="none" style="stroke:#181818;stroke-width:0.5;"/></g><g class="participant participant-head" data-entity-uid="part8" data-qualified-name="AWS" data-source-line="10" id="part8-head"><rect fill="#E2E2F0" height="30.2969" rx="2.5" ry="2.5" style="stroke:#181818;stroke-width:0.5;" width="161.1709" x="1494.7329" y="87.2969"/><text fill="#000000" font-family="sans-serif" font-size="14" lengthAdjust="spacing" textLength="147.1709" x="1501.7329" y="107.292">AWS Bedrock Agents</text></g><g class="participant participant-tail" data-entity-uid="part8" data-qualified-name="AWS" data-source-line="10" id="part8-tail"><rect fill="#E2E2F0" height="30.2969" rx="2.5" ry="2.5" style="stroke:#181818;stroke-width:0.5;" width="161.1709" x="1494.7329" y="1027.25"/><text fill="#000000" font-family="sans-serif" font-size="14" lengthAdjust="spacing" textLength="147.1709" x="1501.7329" y="1047.2451">AWS Bedrock Agents</text></g><g class="message" data-entity-1="part1" data-entity-2="part3" data-source-line="12" id="msg1"><polygon fill="#181818" points="325.0254,145.7266,335.0254,149.7266,325.0254,153.7266,329.0254,149.7266" style="stroke:#181818;stroke-width:1;"/><line style="stroke:#181818;stroke-width:1;" x1="74.0933" x2="331.0254" y1="149.7266" y2="149.7266"/><text fill="#000000" font-family="sans-serif" font-size="13" lengthAdjust="spacing" textLength="238.9321" x="81.0933" y="144.6606">Selecciona agente y estado deseado</text></g><g class="message" data-entity-1="part3" data-entity-2="part4" data-source-line="13" id="msg2"><polygon fill="#181818" points="712.9937,174.8594,722.9937,178.8594,712.9937,182.8594,716.9937,178.8594" style="stroke:#181818;stroke-width:1;"/><line style="stroke:#181818;stroke-width:1;" x1="337.0254" x2="718.9937" y1="178.8594" y2="178.8594"/><text fill="#000000" font-family="sans-serif" font-size="13" lengthAdjust="spacing" textLength="295.5913" x="344.0254" y="173.7935">GET /api/v1/agents/{agent_id}/prompt-cache</text></g><g class="message" data-entity-1="part4" data-entity-2="part5" data-source-line="14" id="msg3"><polygon fill="#181818" points="999.7231,203.9922,1009.7231,207.9922,999.7231,211.9922,1003.7231,207.9922" style="stroke:#181818;stroke-width:1;"/><line style="stroke:#181818;stroke-width:1;" x1="724.9937" x2="1005.7231" y1="207.9922" y2="207.9922"/><text fill="#000000" font-family="sans-serif" font-size="13" lengthAdjust="spacing" textLength="262.7295" x="731.9937" y="202.9263">get_prompt_cache_status(agent_id, org)</text></g><g class="message" data-entity-1="part5" data-entity-2="part6" data-source-line="15" id="msg4"><polygon fill="#181818" points="1371.0454,233.125,1381.0454,237.125,1371.0454,241.125,1375.0454,237.125" style="stroke:#181818;stroke-width:1;"/><line style="stroke:#181818;stroke-width:1;" x1="1011.7231" x2="1377.0454" y1="237.125" y2="237.125"/><text fill="#000000" font-family="sans-serif" font-size="13" lengthAdjust="spacing" textLength="215.0396" x="1018.7231" y="232.0591">cargar agente de la organizacion</text></g><g class="message" data-entity-1="part5" data-entity-2="part8" data-source-line="16" id="msg5"><polygon fill="#181818" points="1563.3184,262.2578,1573.3184,266.2578,1563.3184,270.2578,1567.3184,266.2578" style="stroke:#181818;stroke-width:1;"/><line style="stroke:#181818;stroke-width:1;" x1="1011.7231" x2="1569.3184" y1="266.2578" y2="266.2578"/><text fill="#000000" font-family="sans-serif" font-size="13" lengthAdjust="spacing" textLength="61.6484" x="1018.7231" y="261.1919">GetAgent</text></g><g class="message" data-entity-1="part8" data-entity-2="part5" data-source-line="17" id="msg6"><polygon fill="#181818" points="1022.7231,291.3906,1012.7231,295.3906,1022.7231,299.3906,1018.7231,295.3906" style="stroke:#181818;stroke-width:1;"/><line style="stroke:#181818;stroke-width:1;stroke-dasharray:2,2;" x1="1016.7231" x2="1574.3184" y1="295.3906" y2="295.3906"/><text fill="#000000" font-family="sans-serif" font-size="13" lengthAdjust="spacing" textLength="132.4438" x="1028.7231" y="290.3247">configuracion actual</text></g><g class="message" data-entity-1="part5" data-entity-2="part4" data-source-line="18" id="msg7"><polygon fill="#181818" points="735.9937,320.5234,725.9937,324.5234,735.9937,328.5234,731.9937,324.5234" style="stroke:#181818;stroke-width:1;"/><line style="stroke:#181818;stroke-width:1;stroke-dasharray:2,2;" x1="729.9937" x2="1010.7231" y1="324.5234" y2="324.5234"/><text fill="#000000" font-family="sans-serif" font-size="13" lengthAdjust="spacing" textLength="221.5776" x="741.9937" y="319.4575">elegibilidad, estado y limitaciones</text></g><g class="message" data-entity-1="part4" data-entity-2="part3" data-source-line="19" id="msg8"><polygon fill="#181818" points="348.0254,349.6563,338.0254,353.6563,348.0254,357.6563,344.0254,353.6563" style="stroke:#181818;stroke-width:1;"/><line style="stroke:#181818;stroke-width:1;stroke-dasharray:2,2;" x1="342.0254" x2="723.9937" y1="353.6563" y2="353.6563"/><text fill="#000000" font-family="sans-serif" font-size="13" lengthAdjust="spacing" textLength="87.9976" x="354.0254" y="348.5903">estado CU-12</text></g><g class="message" data-entity-1="part1" data-entity-2="part3" data-source-line="21" id="msg9"><polygon fill="#181818" points="325.0254,378.7891,335.0254,382.7891,325.0254,386.7891,329.0254,382.7891" style="stroke:#181818;stroke-width:1;"/><line style="stroke:#181818;stroke-width:1;" x1="74.0933" x2="331.0254" y1="382.7891" y2="382.7891"/><text fill="#000000" font-family="sans-serif" font-size="13" lengthAdjust="spacing" textLength="105.5552" x="81.0933" y="377.7231">Ejecutar dry-run</text></g><g class="message" data-entity-1="part3" data-entity-2="part4" data-source-line="22" id="msg10"><polygon fill="#181818" points="712.9937,407.9219,722.9937,411.9219,712.9937,415.9219,716.9937,411.9219" style="stroke:#181818;stroke-width:1;"/><line style="stroke:#181818;stroke-width:1;" x1="337.0254" x2="718.9937" y1="411.9219" y2="411.9219"/><text fill="#000000" font-family="sans-serif" font-size="13" lengthAdjust="spacing" textLength="363.9683" x="344.0254" y="406.856">POST /api/v1/agents/{agent_id}/prompt-cache/simulate</text></g><g class="message" data-entity-1="part4" data-entity-2="part5" data-source-line="23" id="msg11"><polygon fill="#181818" points="999.7231,437.0547,1009.7231,441.0547,999.7231,445.0547,1003.7231,441.0547" style="stroke:#181818;stroke-width:1;"/><line style="stroke:#181818;stroke-width:1;" x1="724.9937" x2="1005.7231" y1="441.0547" y2="441.0547"/><text fill="#000000" font-family="sans-serif" font-size="13" lengthAdjust="spacing" textLength="252.8271" x="731.9937" y="435.9888">simulate_prompt_cache(desired_state)</text></g><g class="message" data-entity-1="part5" data-entity-2="part5" data-source-line="24" id="msg12"><line style="stroke:#181818;stroke-width:1;" x1="1011.7231" x2="1053.7231" y1="470.1875" y2="470.1875"/><line style="stroke:#181818;stroke-width:1;" x1="1053.7231" x2="1053.7231" y1="470.1875" y2="483.1875"/><line style="stroke:#181818;stroke-width:1;" x1="1012.7231" x2="1053.7231" y1="483.1875" y2="483.1875"/><polygon fill="#181818" points="1022.7231,479.1875,1012.7231,483.1875,1022.7231,487.1875,1018.7231,483.1875" style="stroke:#181818;stroke-width:1;"/><text fill="#000000" font-family="sans-serif" font-size="13" lengthAdjust="spacing" textLength="213.3955" x="1018.7231" y="465.1216">validar candidato sin mutar AWS</text></g><g class="message" data-entity-1="part5" data-entity-2="part7" data-source-line="25" id="msg13"><polygon fill="#181818" points="1438.749,508.3203,1448.749,512.3203,1438.749,516.3203,1442.749,512.3203" style="stroke:#181818;stroke-width:1;"/><line style="stroke:#181818;stroke-width:1;" x1="1011.7231" x2="1444.749" y1="512.3203" y2="512.3203"/><text fill="#000000" font-family="sans-serif" font-size="13" lengthAdjust="spacing" textLength="148.6748" x="1018.7231" y="507.2544">prompt_cache_dry_run</text></g><g class="message" data-entity-1="part5" data-entity-2="part4" data-source-line="26" id="msg14"><polygon fill="#181818" points="735.9937,537.4531,725.9937,541.4531,735.9937,545.4531,731.9937,541.4531" style="stroke:#181818;stroke-width:1;"/><line style="stroke:#181818;stroke-width:1;stroke-dasharray:2,2;" x1="729.9937" x2="1010.7231" y1="541.4531" y2="541.4531"/><text fill="#000000" font-family="sans-serif" font-size="13" lengthAdjust="spacing" textLength="142.981" x="741.9937" y="536.3872">would_update y notas</text></g><g class="message" data-entity-1="part4" data-entity-2="part3" data-source-line="27" id="msg15"><polygon fill="#181818" points="348.0254,566.5859,338.0254,570.5859,348.0254,574.5859,344.0254,570.5859" style="stroke:#181818;stroke-width:1;"/><line style="stroke:#181818;stroke-width:1;stroke-dasharray:2,2;" x1="342.0254" x2="723.9937" y1="570.5859" y2="570.5859"/><text fill="#000000" font-family="sans-serif" font-size="13" lengthAdjust="spacing" textLength="69.8179" x="354.0254" y="565.52">simulacion</text></g><path d="M143.1865,585.5859 L212.6377,585.5859 L212.6377,592.7188 L202.6377,602.7188 L143.1865,602.7188 L143.1865,585.5859" fill="#EEEEEE" style="stroke:#000000;stroke-width:1.5;"/><rect fill="none" height="425.6641" style="stroke:#000000;stroke-width:1.5;" width="1532.7173" x="143.1865" y="585.5859"/><text fill="#000000" font-family="sans-serif" font-size="13" font-weight="700" lengthAdjust="spacing" textLength="24.4512" x="158.1865" y="598.6528">opt</text><text fill="#000000" font-family="sans-serif" font-size="11" font-weight="700" lengthAdjust="spacing" textLength="184.7441" x="227.6377" y="597.7964">[confirmacion administrativa]</text><g class="message" data-entity-1="part2" data-entity-2="part3" data-source-line="30" id="msg16"><polygon fill="#181818" points="325.0254,619.8516,335.0254,623.8516,325.0254,627.8516,329.0254,623.8516" style="stroke:#181818;stroke-width:1;"/><line style="stroke:#181818;stroke-width:1;" x1="205.7266" x2="331.0254" y1="623.8516" y2="623.8516"/><text fill="#000000" font-family="sans-serif" font-size="13" lengthAdjust="spacing" textLength="104.6855" x="212.7266" y="618.7856">Confirmar apply</text></g><g class="message" data-entity-1="part3" data-entity-2="part4" data-source-line="31" id="msg17"><polygon fill="#181818" points="712.9937,648.9844,722.9937,652.9844,712.9937,656.9844,716.9937,652.9844" style="stroke:#181818;stroke-width:1;"/><line style="stroke:#181818;stroke-width:1;" x1="337.0254" x2="718.9937" y1="652.9844" y2="652.9844"/><text fill="#000000" font-family="sans-serif" font-size="13" lengthAdjust="spacing" textLength="343.7827" x="344.0254" y="647.9185">POST /api/v1/agents/{agent_id}/prompt-cache/apply</text></g><g class="message" data-entity-1="part4" data-entity-2="part5" data-source-line="32" id="msg18"><polygon fill="#181818" points="999.7231,678.1172,1009.7231,682.1172,999.7231,686.1172,1003.7231,682.1172" style="stroke:#181818;stroke-width:1;"/><line style="stroke:#181818;stroke-width:1;" x1="724.9937" x2="1005.7231" y1="682.1172" y2="682.1172"/><text fill="#000000" font-family="sans-serif" font-size="13" lengthAdjust="spacing" textLength="232.0894" x="731.9937" y="677.0513">apply_prompt_cache(confirm=true)</text></g><g class="message" data-entity-1="part5" data-entity-2="part8" data-source-line="33" id="msg19"><polygon fill="#181818" points="1563.3184,707.25,1573.3184,711.25,1563.3184,715.25,1567.3184,711.25" style="stroke:#181818;stroke-width:1;"/><line style="stroke:#181818;stroke-width:1;" x1="1011.7231" x2="1569.3184" y1="711.25" y2="711.25"/><text fill="#000000" font-family="sans-serif" font-size="13" lengthAdjust="spacing" textLength="61.6484" x="1018.7231" y="706.1841">GetAgent</text></g><path d="M670.3276,726.25 L734.7705,726.25 L734.7705,733.3828 L724.7705,743.3828 L670.3276,743.3828 L670.3276,726.25" fill="#EEEEEE" style="stroke:#000000;stroke-width:1.5;"/><rect fill="none" height="248.8672" style="stroke:#000000;stroke-width:1.5;" width="995.5762" x="670.3276" y="726.25"/><text fill="#000000" font-family="sans-serif" font-size="13" font-weight="700" lengthAdjust="spacing" textLength="19.4429" x="685.3276" y="739.3169">alt</text><text fill="#000000" font-family="sans-serif" font-size="11" font-weight="700" lengthAdjust="spacing" textLength="188.4609" x="749.7705" y="738.4604">[promptConfigurations existe]</text><g class="message" data-entity-1="part5" data-entity-2="part5" data-source-line="35" id="msg20"><line style="stroke:#181818;stroke-width:1;" x1="1011.7231" x2="1053.7231" y1="764.5156" y2="764.5156"/><line style="stroke:#181818;stroke-width:1;" x1="1053.7231" x2="1053.7231" y1="764.5156" y2="777.5156"/><line style="stroke:#181818;stroke-width:1;" x1="1012.7231" x2="1053.7231" y1="777.5156" y2="777.5156"/><polygon fill="#181818" points="1022.7231,773.5156,1012.7231,777.5156,1022.7231,781.5156,1018.7231,777.5156" style="stroke:#181818;stroke-width:1;"/><text fill="#000000" font-family="sans-serif" font-size="13" lengthAdjust="spacing" textLength="357.3223" x="1018.7231" y="759.4497">conservar campos y cambiar solo promptCachingState</text></g><g class="message" data-entity-1="part5" data-entity-2="part8" data-source-line="36" id="msg21"><polygon fill="#181818" points="1563.3184,802.6484,1573.3184,806.6484,1563.3184,810.6484,1567.3184,806.6484" style="stroke:#181818;stroke-width:1;"/><line style="stroke:#181818;stroke-width:1;" x1="1011.7231" x2="1569.3184" y1="806.6484" y2="806.6484"/><text fill="#000000" font-family="sans-serif" font-size="13" lengthAdjust="spacing" textLength="85.5601" x="1018.7231" y="801.5825">UpdateAgent</text></g><g class="message" data-entity-1="part5" data-entity-2="part8" data-source-line="37" id="msg22"><polygon fill="#181818" points="1563.3184,831.7813,1573.3184,835.7813,1563.3184,839.7813,1567.3184,835.7813" style="stroke:#181818;stroke-width:1;"/><line style="stroke:#181818;stroke-width:1;" x1="1011.7231" x2="1569.3184" y1="835.7813" y2="835.7813"/><text fill="#000000" font-family="sans-serif" font-size="13" lengthAdjust="spacing" textLength="89.2227" x="1018.7231" y="830.7153">PrepareAgent</text></g><g class="message" data-entity-1="part5" data-entity-2="part7" data-source-line="38" id="msg23"><polygon fill="#181818" points="1438.749,860.9141,1448.749,864.9141,1438.749,868.9141,1442.749,864.9141" style="stroke:#181818;stroke-width:1;"/><line style="stroke:#181818;stroke-width:1;" x1="1011.7231" x2="1444.749" y1="864.9141" y2="864.9141"/><text fill="#000000" font-family="sans-serif" font-size="13" lengthAdjust="spacing" textLength="160.272" x="1018.7231" y="859.8481">activacion/desactivacion</text></g><g class="message" data-entity-1="part5" data-entity-2="part4" data-source-line="39" id="msg24"><polygon fill="#181818" points="735.9937,890.0469,725.9937,894.0469,735.9937,898.0469,731.9937,894.0469" style="stroke:#181818;stroke-width:1;"/><line style="stroke:#181818;stroke-width:1;stroke-dasharray:2,2;" x1="729.9937" x2="1010.7231" y1="894.0469" y2="894.0469"/><text fill="#000000" font-family="sans-serif" font-size="13" lengthAdjust="spacing" textLength="76.1782" x="741.9937" y="888.981">estado final</text></g><line style="stroke:#000000;stroke-width:1;stroke-dasharray:2,2;" x1="670.3276" x2="1665.9038" y1="903.0469" y2="903.0469"/><text fill="#000000" font-family="sans-serif" font-size="11" font-weight="700" lengthAdjust="spacing" textLength="190.04" x="675.3276" y="913.2573">[falta configuracion avanzada]</text><g class="message" data-entity-1="part5" data-entity-2="part7" data-source-line="41" id="msg25"><polygon fill="#181818" points="1438.749,933.9844,1448.749,937.9844,1438.749,941.9844,1442.749,937.9844" style="stroke:#181818;stroke-width:1;"/><line style="stroke:#181818;stroke-width:1;" x1="1011.7231" x2="1444.749" y1="937.9844" y2="937.9844"/><text fill="#000000" font-family="sans-serif" font-size="13" lengthAdjust="spacing" textLength="193.7876" x="1018.7231" y="932.9185">error auditado sin mutar AWS</text></g><g class="message" data-entity-1="part5" data-entity-2="part4" data-source-line="42" id="msg26"><polygon fill="#181818" points="735.9937,963.1172,725.9937,967.1172,735.9937,971.1172,731.9937,967.1172" style="stroke:#181818;stroke-width:1;"/><line style="stroke:#181818;stroke-width:1;stroke-dasharray:2,2;" x1="729.9937" x2="1010.7231" y1="967.1172" y2="967.1172"/><text fill="#000000" font-family="sans-serif" font-size="13" lengthAdjust="spacing" textLength="162.665" x="741.9937" y="962.0513">prerequisito no cumplido</text></g><g class="message" data-entity-1="part4" data-entity-2="part3" data-source-line="44" id="msg27"><polygon fill="#181818" points="348.0254,999.25,338.0254,1003.25,348.0254,1007.25,344.0254,1003.25" style="stroke:#181818;stroke-width:1;"/><line style="stroke:#181818;stroke-width:1;stroke-dasharray:2,2;" x1="342.0254" x2="723.9937" y1="1003.25" y2="1003.25"/><text fill="#000000" font-family="sans-serif" font-size="13" lengthAdjust="spacing" textLength="122.7065" x="354.0254" y="998.1841">resultado auditado</text></g><?plantuml-src dLHDRnCn4BtlhnZrL2IYLNj40gc45Y4XDLA8E4RJjRiOTkt57u60-EyyU-saJbi9SLfxvxtvU3DZh_mWwTrwiTnSNDA2LjQCawUEkozAzzGPxQqPM1YIchYNsaj7RwMmfllMDDnvO-bium9RPOW3hkeNq6V4ZlBlZBeIezBAUGkpRIQsNdLgOktfxCOYZDI2siuuxnBvvhh6NCNOZgvM7v8PtzgUSqgmsych4NbuPVHQsftgP2BbSoFOynqxcRtE3kFfeIK8vJ-QVZR6oqa-dzT5XvaxfutVJLFqMBn16VGASGVPTKY6iuIq9-byL5L89_5jW0CQLG7-_leJjJofTdVH9hnhVwVlLea_xPGwj8WTaaqaW9SB0xUNVZiZjWcnHHWVt7dXloHZ-nTD8SIOqG9cnxPdMn8KaWQEMDOGCkPUSL0yyfH-LYrU5rKQc9jxrGURc8G123mS7HmgXIwzkbE34epCiYHx6j0zdwZIpIKM9JDakLbSN3xM-Vghx8974SBk5pReIjNLxVfVPMsT6iF0_WbzYwKI-HnTL5QA9BQir3qoTnpBjD1P2noyWIzDOyetJir3UUEuWL8r4ZLjOqsFLVnXmY2sOOBJE5dQU3wHRSuwTR4nSRrZU-oOktDOJAzst52zgGTnbvc34PccOG_S_wfR-8_4JOPQsPpfQsy3X2LwVWY9UF1PicKPl_W2E98_KOq4ek9Nq-fmISqP9-CW8Wvt2Z-S6KnnEh-9wzZZKrzpBflKWfBE4u2LbNX4da7afcDPq8ROcHPZTRpL-ECApHjnhpGsZB1HUBpkeGIVxk2EDLvcVYwij1RDvdYB_khPV3hqPAMLtuDo2iEi3NLXd33Z9gQXHMbmcHyhNHYIxnAaYQY_?></g></svg>