<svg xmlns="http://www.w3.org/2000/svg" xmlns:xlink="http://www.w3.org/1999/xlink" contentStyleType="text/css" data-diagram-type="CLASS" height="496px" preserveAspectRatio="none" style="width:1574px;height:496px;background:#FFFFFF;" version="1.1" viewBox="0 0 1574 496" width="1574px" zoomAndPan="magnify"><?plantuml 1.2026.3beta6?><defs/><g><g class="title" data-source-line="4"><text fill="#000000" font-family="sans-serif" font-size="14" font-weight="700" lengthAdjust="spacing" textLength="272.8428" x="647.1336" y="22.9951">Clases de analisis - Modulo FinOps</text></g><!--cluster Modelo--><g class="cluster" data-qualified-name="Modelo" data-source-line="6" id="ent0002"><rect fill="none" height="315" rx="2.5" ry="2.5" style="stroke:#000000;stroke-width:1.5;" width="714" x="22.11" y="167.2969"/><text fill="#000000" font-family="sans-serif" font-size="14" font-weight="700" lengthAdjust="spacing" textLength="57.4834" x="350.3683" y="182.292">Modelo</text></g><!--cluster Vista--><g class="cluster" data-qualified-name="Vista" data-source-line="15" id="ent0009"><rect fill="none" height="99" rx="2.5" ry="2.5" style="stroke:#000000;stroke-width:1.5;" width="853" x="707.11" y="44.2969"/><text fill="#000000" font-family="sans-serif" font-size="14" font-weight="700" lengthAdjust="spacing" textLength="40.1064" x="1113.5568" y="59.292">Vista</text></g><!--cluster Controlador--><g class="cluster" data-qualified-name="Controlador" data-source-line="23" id="ent0015"><rect fill="none" height="99" rx="2.5" ry="2.5" style="stroke:#000000;stroke-width:1.5;" width="678" x="760.11" y="167.2969"/><text fill="#000000" font-family="sans-serif" font-size="14" font-weight="700" lengthAdjust="spacing" textLength="93.8643" x="1052.1779" y="182.292">Controlador</text></g><!--class Organizacion--><g class="entity" data-qualified-name="Modelo.Organizacion" data-source-line="7" id="ent0003"><rect fill="#F1F1F1" height="48" rx="2.5" ry="2.5" style="stroke:#181818;stroke-width:0.5;" width="123.957" x="216.13" y="202.2969"/><ellipse cx="231.13" cy="218.2969" fill="#ADD1B2" rx="11" ry="11" style="stroke:#181818;stroke-width:1;"/><path d="M234.0988,223.9375 Q233.5206,224.2344 232.88,224.375 Q232.2394,224.5313 231.5363,224.5313 Q229.0363,224.5313 227.7081,222.8906 Q226.3956,221.2344 226.3956,218.1094 Q226.3956,214.9844 227.7081,213.3281 Q229.0363,211.6719 231.5363,211.6719 Q232.2394,211.6719 232.88,211.8281 Q233.5363,211.9844 234.0988,212.2813 L234.0988,215 Q233.4738,214.4219 232.88,214.1563 Q232.2863,213.875 231.6613,213.875 Q230.3175,213.875 229.63,214.9531 Q228.9425,216.0156 228.9425,218.1094 Q228.9425,220.2031 229.63,221.2813 Q230.3175,222.3438 231.6613,222.3438 Q232.2863,222.3438 232.88,222.0781 Q233.4738,221.7969 234.0988,221.2188 L234.0988,223.9375 Z " fill="#000000"/><text fill="#000000" font-family="sans-serif" font-size="14" lengthAdjust="spacing" textLength="91.957" x="245.13" y="223.1436">Organizacion</text><line style="stroke:#181818;stroke-width:0.5;" x1="217.13" x2="339.087" y1="234.2969" y2="234.2969"/><line style="stroke:#181818;stroke-width:0.5;" x1="217.13" x2="339.087" y1="242.2969" y2="242.2969"/></g><!--class CredencialCloud--><g class="entity" data-qualified-name="Modelo.CredencialCloud" data-source-line="8" id="ent0004"><rect fill="#F1F1F1" height="48" rx="2.5" ry="2.5" style="stroke:#181818;stroke-width:0.5;" width="146.5635" x="573.83" y="310.2969"/><ellipse cx="588.83" cy="326.2969" fill="#ADD1B2" rx="11" ry="11" style="stroke:#181818;stroke-width:1;"/><path d="M591.7988,331.9375 Q591.2206,332.2344 590.58,332.375 Q589.9394,332.5313 589.2363,332.5313 Q586.7363,332.5313 585.4081,330.8906 Q584.0956,329.2344 584.0956,326.1094 Q584.0956,322.9844 585.4081,321.3281 Q586.7363,319.6719 589.2363,319.6719 Q589.9394,319.6719 590.58,319.8281 Q591.2363,319.9844 591.7988,320.2813 L591.7988,323 Q591.1738,322.4219 590.58,322.1563 Q589.9863,321.875 589.3613,321.875 Q588.0175,321.875 587.33,322.9531 Q586.6425,324.0156 586.6425,326.1094 Q586.6425,328.2031 587.33,329.2813 Q588.0175,330.3438 589.3613,330.3438 Q589.9863,330.3438 590.58,330.0781 Q591.1738,329.7969 591.7988,329.2188 L591.7988,331.9375 Z " fill="#000000"/><text fill="#000000" font-family="sans-serif" font-size="14" lengthAdjust="spacing" textLength="114.5635" x="602.83" y="331.1436">CredencialCloud</text><line style="stroke:#181818;stroke-width:0.5;" x1="574.83" x2="719.3935" y1="342.2969" y2="342.2969"/><line style="stroke:#181818;stroke-width:0.5;" x1="574.83" x2="719.3935" y1="350.2969" y2="350.2969"/></g><!--class AgenteIA--><g class="entity" data-qualified-name="Modelo.AgenteIA" data-source-line="9" id="ent0005"><rect fill="#F1F1F1" height="48" rx="2.5" ry="2.5" style="stroke:#181818;stroke-width:0.5;" width="95.7588" x="75.23" y="310.2969"/><ellipse cx="90.23" cy="326.2969" fill="#ADD1B2" rx="11" ry="11" style="stroke:#181818;stroke-width:1;"/><path d="M93.1988,331.9375 Q92.6206,332.2344 91.98,332.375 Q91.3394,332.5313 90.6363,332.5313 Q88.1363,332.5313 86.8081,330.8906 Q85.4956,329.2344 85.4956,326.1094 Q85.4956,322.9844 86.8081,321.3281 Q88.1363,319.6719 90.6363,319.6719 Q91.3394,319.6719 91.98,319.8281 Q92.6363,319.9844 93.1988,320.2813 L93.1988,323 Q92.5738,322.4219 91.98,322.1563 Q91.3863,321.875 90.7613,321.875 Q89.4175,321.875 88.73,322.9531 Q88.0425,324.0156 88.0425,326.1094 Q88.0425,328.2031 88.73,329.2813 Q89.4175,330.3438 90.7613,330.3438 Q91.3863,330.3438 91.98,330.0781 Q92.5738,329.7969 93.1988,329.2188 L93.1988,331.9375 Z " fill="#000000"/><text fill="#000000" font-family="sans-serif" font-size="14" lengthAdjust="spacing" textLength="63.7588" x="104.23" y="331.1436">AgenteIA</text><line style="stroke:#181818;stroke-width:0.5;" x1="76.23" x2="169.9888" y1="342.2969" y2="342.2969"/><line style="stroke:#181818;stroke-width:0.5;" x1="76.23" x2="169.9888" y1="350.2969" y2="350.2969"/></g><!--class DatoFacturacion--><g class="entity" data-qualified-name="Modelo.DatoFacturacion" data-source-line="10" id="ent0006"><rect fill="#F1F1F1" height="48" rx="2.5" ry="2.5" style="stroke:#181818;stroke-width:0.5;" width="147.4658" x="572.38" y="418.2969"/><ellipse cx="587.38" cy="434.2969" fill="#ADD1B2" rx="11" ry="11" style="stroke:#181818;stroke-width:1;"/><path d="M590.3488,439.9375 Q589.7706,440.2344 589.13,440.375 Q588.4894,440.5313 587.7863,440.5313 Q585.2863,440.5313 583.9581,438.8906 Q582.6456,437.2344 582.6456,434.1094 Q582.6456,430.9844 583.9581,429.3281 Q585.2863,427.6719 587.7863,427.6719 Q588.4894,427.6719 589.13,427.8281 Q589.7863,427.9844 590.3488,428.2813 L590.3488,431 Q589.7238,430.4219 589.13,430.1563 Q588.5363,429.875 587.9113,429.875 Q586.5675,429.875 585.88,430.9531 Q585.1925,432.0156 585.1925,434.1094 Q585.1925,436.2031 585.88,437.2813 Q586.5675,438.3438 587.9113,438.3438 Q588.5363,438.3438 589.13,438.0781 Q589.7238,437.7969 590.3488,437.2188 L590.3488,439.9375 Z " fill="#000000"/><text fill="#000000" font-family="sans-serif" font-size="14" lengthAdjust="spacing" textLength="115.4658" x="601.38" y="439.1436">DatoFacturacion</text><line style="stroke:#181818;stroke-width:0.5;" x1="573.38" x2="718.8458" y1="450.2969" y2="450.2969"/><line style="stroke:#181818;stroke-width:0.5;" x1="573.38" x2="718.8458" y1="458.2969" y2="458.2969"/></g><!--class RegistroUsoLLM--><g class="entity" data-qualified-name="Modelo.RegistroUsoLLM" data-source-line="11" id="ent0007"><rect fill="#F1F1F1" height="48" rx="2.5" ry="2.5" style="stroke:#181818;stroke-width:0.5;" width="144.0068" x="206.11" y="310.2969"/><ellipse cx="221.11" cy="326.2969" fill="#ADD1B2" rx="11" ry="11" style="stroke:#181818;stroke-width:1;"/><path d="M224.0788,331.9375 Q223.5006,332.2344 222.86,332.375 Q222.2194,332.5313 221.5163,332.5313 Q219.0163,332.5313 217.6881,330.8906 Q216.3756,329.2344 216.3756,326.1094 Q216.3756,322.9844 217.6881,321.3281 Q219.0163,319.6719 221.5163,319.6719 Q222.2194,319.6719 222.86,319.8281 Q223.5163,319.9844 224.0788,320.2813 L224.0788,323 Q223.4538,322.4219 222.86,322.1563 Q222.2663,321.875 221.6413,321.875 Q220.2975,321.875 219.61,322.9531 Q218.9225,324.0156 218.9225,326.1094 Q218.9225,328.2031 219.61,329.2813 Q220.2975,330.3438 221.6413,330.3438 Q222.2663,330.3438 222.86,330.0781 Q223.4538,329.7969 224.0788,329.2188 L224.0788,331.9375 Z " fill="#000000"/><text fill="#000000" font-family="sans-serif" font-size="14" lengthAdjust="spacing" textLength="112.0068" x="235.11" y="331.1436">RegistroUsoLLM</text><line style="stroke:#181818;stroke-width:0.5;" x1="207.11" x2="349.1168" y1="342.2969" y2="342.2969"/><line style="stroke:#181818;stroke-width:0.5;" x1="207.11" x2="349.1168" y1="350.2969" y2="350.2969"/></g><!--class RegistroAuditoria--><g class="entity" data-qualified-name="Modelo.RegistroAuditoria" data-source-line="12" id="ent0008"><rect fill="#F1F1F1" height="48" rx="2.5" ry="2.5" style="stroke:#181818;stroke-width:0.5;" width="153.7275" x="385.25" y="310.2969"/><ellipse cx="400.25" cy="326.2969" fill="#ADD1B2" rx="11" ry="11" style="stroke:#181818;stroke-width:1;"/><path d="M403.2188,331.9375 Q402.6406,332.2344 402,332.375 Q401.3594,332.5313 400.6563,332.5313 Q398.1563,332.5313 396.8281,330.8906 Q395.5156,329.2344 395.5156,326.1094 Q395.5156,322.9844 396.8281,321.3281 Q398.1563,319.6719 400.6563,319.6719 Q401.3594,319.6719 402,319.8281 Q402.6563,319.9844 403.2188,320.2813 L403.2188,323 Q402.5938,322.4219 402,322.1563 Q401.4063,321.875 400.7813,321.875 Q399.4375,321.875 398.75,322.9531 Q398.0625,324.0156 398.0625,326.1094 Q398.0625,328.2031 398.75,329.2813 Q399.4375,330.3438 400.7813,330.3438 Q401.4063,330.3438 402,330.0781 Q402.5938,329.7969 403.2188,329.2188 L403.2188,331.9375 Z " fill="#000000"/><text fill="#000000" font-family="sans-serif" font-size="14" lengthAdjust="spacing" textLength="121.7275" x="414.25" y="331.1436">RegistroAuditoria</text><line style="stroke:#181818;stroke-width:0.5;" x1="386.25" x2="537.9775" y1="342.2969" y2="342.2969"/><line style="stroke:#181818;stroke-width:0.5;" x1="386.25" x2="537.9775" y1="350.2969" y2="350.2969"/></g><!--class DashboardCostes--><g class="entity" data-qualified-name="Vista.DashboardCostes" data-source-line="16" id="ent0010"><rect fill="#F1F1F1" height="48" rx="2.5" ry="2.5" style="stroke:#181818;stroke-width:0.5;" width="155.2314" x="1082.49" y="79.2969"/><ellipse cx="1097.49" cy="95.2969" fill="#ADD1B2" rx="11" ry="11" style="stroke:#181818;stroke-width:1;"/><path d="M1100.4588,100.9375 Q1099.8806,101.2344 1099.24,101.375 Q1098.5994,101.5313 1097.8963,101.5313 Q1095.3963,101.5313 1094.0681,99.8906 Q1092.7556,98.2344 1092.7556,95.1094 Q1092.7556,91.9844 1094.0681,90.3281 Q1095.3963,88.6719 1097.8963,88.6719 Q1098.5994,88.6719 1099.24,88.8281 Q1099.8963,88.9844 1100.4588,89.2813 L1100.4588,92 Q1099.8338,91.4219 1099.24,91.1563 Q1098.6463,90.875 1098.0213,90.875 Q1096.6775,90.875 1095.99,91.9531 Q1095.3025,93.0156 1095.3025,95.1094 Q1095.3025,97.2031 1095.99,98.2813 Q1096.6775,99.3438 1098.0213,99.3438 Q1098.6463,99.3438 1099.24,99.0781 Q1099.8338,98.7969 1100.4588,98.2188 L1100.4588,100.9375 Z " fill="#000000"/><text fill="#000000" font-family="sans-serif" font-size="14" lengthAdjust="spacing" textLength="123.2314" x="1111.49" y="100.1436">DashboardCostes</text><line style="stroke:#181818;stroke-width:0.5;" x1="1083.49" x2="1236.7214" y1="111.2969" y2="111.2969"/><line style="stroke:#181818;stroke-width:0.5;" x1="1083.49" x2="1236.7214" y1="119.2969" y2="119.2969"/></g><!--class VistaKPIs--><g class="entity" data-qualified-name="Vista.VistaKPIs" data-source-line="17" id="ent0011"><rect fill="#F1F1F1" height="48" rx="2.5" ry="2.5" style="stroke:#181818;stroke-width:0.5;" width="95.875" x="1273.17" y="79.2969"/><ellipse cx="1288.17" cy="95.2969" fill="#ADD1B2" rx="11" ry="11" style="stroke:#181818;stroke-width:1;"/><path d="M1291.1387,100.9375 Q1290.5606,101.2344 1289.92,101.375 Q1289.2794,101.5313 1288.5762,101.5313 Q1286.0762,101.5313 1284.7481,99.8906 Q1283.4356,98.2344 1283.4356,95.1094 Q1283.4356,91.9844 1284.7481,90.3281 Q1286.0762,88.6719 1288.5762,88.6719 Q1289.2794,88.6719 1289.92,88.8281 Q1290.5762,88.9844 1291.1387,89.2813 L1291.1387,92 Q1290.5137,91.4219 1289.92,91.1563 Q1289.3262,90.875 1288.7012,90.875 Q1287.3575,90.875 1286.67,91.9531 Q1285.9825,93.0156 1285.9825,95.1094 Q1285.9825,97.2031 1286.67,98.2813 Q1287.3575,99.3438 1288.7012,99.3438 Q1289.3262,99.3438 1289.92,99.0781 Q1290.5137,98.7969 1291.1387,98.2188 L1291.1387,100.9375 Z " fill="#000000"/><text fill="#000000" font-family="sans-serif" font-size="14" lengthAdjust="spacing" textLength="63.875" x="1302.17" y="100.1436">VistaKPIs</text><line style="stroke:#181818;stroke-width:0.5;" x1="1274.17" x2="1368.045" y1="111.2969" y2="111.2969"/><line style="stroke:#181818;stroke-width:0.5;" x1="1274.17" x2="1368.045" y1="119.2969" y2="119.2969"/></g><!--class VistaTendencia--><g class="entity" data-qualified-name="Vista.VistaTendencia" data-source-line="18" id="ent0012"><rect fill="#F1F1F1" height="48" rx="2.5" ry="2.5" style="stroke:#181818;stroke-width:0.5;" width="139.4063" x="1404.41" y="79.2969"/><ellipse cx="1419.41" cy="95.2969" fill="#ADD1B2" rx="11" ry="11" style="stroke:#181818;stroke-width:1;"/><path d="M1422.3787,100.9375 Q1421.8006,101.2344 1421.16,101.375 Q1420.5194,101.5313 1419.8162,101.5313 Q1417.3162,101.5313 1415.9881,99.8906 Q1414.6756,98.2344 1414.6756,95.1094 Q1414.6756,91.9844 1415.9881,90.3281 Q1417.3162,88.6719 1419.8162,88.6719 Q1420.5194,88.6719 1421.16,88.8281 Q1421.8162,88.9844 1422.3787,89.2813 L1422.3787,92 Q1421.7537,91.4219 1421.16,91.1563 Q1420.5662,90.875 1419.9412,90.875 Q1418.5975,90.875 1417.91,91.9531 Q1417.2225,93.0156 1417.2225,95.1094 Q1417.2225,97.2031 1417.91,98.2813 Q1418.5975,99.3438 1419.9412,99.3438 Q1420.5662,99.3438 1421.16,99.0781 Q1421.7537,98.7969 1422.3787,98.2188 L1422.3787,100.9375 Z " fill="#000000"/><text fill="#000000" font-family="sans-serif" font-size="14" lengthAdjust="spacing" textLength="107.4063" x="1433.41" y="100.1436">VistaTendencia</text><line style="stroke:#181818;stroke-width:0.5;" x1="1405.41" x2="1542.8162" y1="111.2969" y2="111.2969"/><line style="stroke:#181818;stroke-width:0.5;" x1="1405.41" x2="1542.8162" y1="119.2969" y2="119.2969"/></g><!--class TablaCostesAgente--><g class="entity" data-qualified-name="Vista.TablaCostesAgente" data-source-line="19" id="ent0013"><rect fill="#F1F1F1" height="48" rx="2.5" ry="2.5" style="stroke:#181818;stroke-width:0.5;" width="167.5703" x="723.32" y="79.2969"/><ellipse cx="738.32" cy="95.2969" fill="#ADD1B2" rx="11" ry="11" style="stroke:#181818;stroke-width:1;"/><path d="M741.2888,100.9375 Q740.7106,101.2344 740.07,101.375 Q739.4294,101.5313 738.7263,101.5313 Q736.2263,101.5313 734.8981,99.8906 Q733.5856,98.2344 733.5856,95.1094 Q733.5856,91.9844 734.8981,90.3281 Q736.2263,88.6719 738.7263,88.6719 Q739.4294,88.6719 740.07,88.8281 Q740.7263,88.9844 741.2888,89.2813 L741.2888,92 Q740.6638,91.4219 740.07,91.1563 Q739.4763,90.875 738.8513,90.875 Q737.5075,90.875 736.82,91.9531 Q736.1325,93.0156 736.1325,95.1094 Q736.1325,97.2031 736.82,98.2813 Q737.5075,99.3438 738.8513,99.3438 Q739.4763,99.3438 740.07,99.0781 Q740.6638,98.7969 741.2888,98.2188 L741.2888,100.9375 Z " fill="#000000"/><text fill="#000000" font-family="sans-serif" font-size="14" lengthAdjust="spacing" textLength="135.5703" x="752.32" y="100.1436">TablaCostesAgente</text><line style="stroke:#181818;stroke-width:0.5;" x1="724.32" x2="889.8903" y1="111.2969" y2="111.2969"/><line style="stroke:#181818;stroke-width:0.5;" x1="724.32" x2="889.8903" y1="119.2969" y2="119.2969"/></g><!--class VistaInsights--><g class="entity" data-qualified-name="Vista.VistaInsights" data-source-line="20" id="ent0014"><rect fill="#F1F1F1" height="48" rx="2.5" ry="2.5" style="stroke:#181818;stroke-width:0.5;" width="121.5576" x="926.33" y="79.2969"/><ellipse cx="941.33" cy="95.2969" fill="#ADD1B2" rx="11" ry="11" style="stroke:#181818;stroke-width:1;"/><path d="M944.2988,100.9375 Q943.7206,101.2344 943.08,101.375 Q942.4394,101.5313 941.7363,101.5313 Q939.2363,101.5313 937.9081,99.8906 Q936.5956,98.2344 936.5956,95.1094 Q936.5956,91.9844 937.9081,90.3281 Q939.2363,88.6719 941.7363,88.6719 Q942.4394,88.6719 943.08,88.8281 Q943.7363,88.9844 944.2988,89.2813 L944.2988,92 Q943.6738,91.4219 943.08,91.1563 Q942.4863,90.875 941.8613,90.875 Q940.5175,90.875 939.83,91.9531 Q939.1425,93.0156 939.1425,95.1094 Q939.1425,97.2031 939.83,98.2813 Q940.5175,99.3438 941.8613,99.3438 Q942.4863,99.3438 943.08,99.0781 Q943.6738,98.7969 944.2988,98.2188 L944.2988,100.9375 Z " fill="#000000"/><text fill="#000000" font-family="sans-serif" font-size="14" lengthAdjust="spacing" textLength="89.5576" x="955.33" y="100.1436">VistaInsights</text><line style="stroke:#181818;stroke-width:0.5;" x1="927.33" x2="1046.8876" y1="111.2969" y2="111.2969"/><line style="stroke:#181818;stroke-width:0.5;" x1="927.33" x2="1046.8876" y1="119.2969" y2="119.2969"/></g><!--class ControladorDashboard--><g class="entity" data-qualified-name="Controlador.ControladorDashboard" data-source-line="24" id="ent0016"><rect fill="#F1F1F1" height="48" rx="2.5" ry="2.5" style="stroke:#181818;stroke-width:0.5;" width="190.9014" x="1231.66" y="202.2969"/><ellipse cx="1246.66" cy="218.2969" fill="#ADD1B2" rx="11" ry="11" style="stroke:#181818;stroke-width:1;"/><path d="M1249.6287,223.9375 Q1249.0506,224.2344 1248.41,224.375 Q1247.7694,224.5313 1247.0662,224.5313 Q1244.5662,224.5313 1243.2381,222.8906 Q1241.9256,221.2344 1241.9256,218.1094 Q1241.9256,214.9844 1243.2381,213.3281 Q1244.5662,211.6719 1247.0662,211.6719 Q1247.7694,211.6719 1248.41,211.8281 Q1249.0662,211.9844 1249.6287,212.2813 L1249.6287,215 Q1249.0037,214.4219 1248.41,214.1563 Q1247.8162,213.875 1247.1912,213.875 Q1245.8475,213.875 1245.16,214.9531 Q1244.4725,216.0156 1244.4725,218.1094 Q1244.4725,220.2031 1245.16,221.2813 Q1245.8475,222.3438 1247.1912,222.3438 Q1247.8162,222.3438 1248.41,222.0781 Q1249.0037,221.7969 1249.6287,221.2188 L1249.6287,223.9375 Z " fill="#000000"/><text fill="#000000" font-family="sans-serif" font-size="14" lengthAdjust="spacing" textLength="158.9014" x="1260.66" y="223.1436">ControladorDashboard</text><line style="stroke:#181818;stroke-width:0.5;" x1="1232.66" x2="1421.5614" y1="234.2969" y2="234.2969"/><line style="stroke:#181818;stroke-width:0.5;" x1="1232.66" x2="1421.5614" y1="242.2969" y2="242.2969"/></g><!--class ControladorSincronizacion--><g class="entity" data-qualified-name="Controlador.ControladorSincronizacion" data-source-line="25" id="ent0017"><rect fill="#F1F1F1" height="48" rx="2.5" ry="2.5" style="stroke:#181818;stroke-width:0.5;" width="216.085" x="981.07" y="202.2969"/><ellipse cx="996.07" cy="218.2969" fill="#ADD1B2" rx="11" ry="11" style="stroke:#181818;stroke-width:1;"/><path d="M999.0388,223.9375 Q998.4606,224.2344 997.82,224.375 Q997.1794,224.5313 996.4763,224.5313 Q993.9763,224.5313 992.6481,222.8906 Q991.3356,221.2344 991.3356,218.1094 Q991.3356,214.9844 992.6481,213.3281 Q993.9763,211.6719 996.4763,211.6719 Q997.1794,211.6719 997.82,211.8281 Q998.4763,211.9844 999.0388,212.2813 L999.0388,215 Q998.4138,214.4219 997.82,214.1563 Q997.2263,213.875 996.6013,213.875 Q995.2575,213.875 994.57,214.9531 Q993.8825,216.0156 993.8825,218.1094 Q993.8825,220.2031 994.57,221.2813 Q995.2575,222.3438 996.6013,222.3438 Q997.2263,222.3438 997.82,222.0781 Q998.4138,221.7969 999.0388,221.2188 L999.0388,223.9375 Z " fill="#000000"/><text fill="#000000" font-family="sans-serif" font-size="14" lengthAdjust="spacing" textLength="184.085" x="1010.07" y="223.1436">ControladorSincronizacion</text><line style="stroke:#181818;stroke-width:0.5;" x1="982.07" x2="1196.155" y1="234.2969" y2="234.2969"/><line style="stroke:#181818;stroke-width:0.5;" x1="982.07" x2="1196.155" y1="242.2969" y2="242.2969"/></g><!--class ControladorInsights--><g class="entity" data-qualified-name="Controlador.ControladorInsights" data-source-line="26" id="ent0018"><rect fill="#F1F1F1" height="48" rx="2.5" ry="2.5" style="stroke:#181818;stroke-width:0.5;" width="169.4297" x="776.4" y="202.2969"/><ellipse cx="791.4" cy="218.2969" fill="#ADD1B2" rx="11" ry="11" style="stroke:#181818;stroke-width:1;"/><path d="M794.3688,223.9375 Q793.7906,224.2344 793.15,224.375 Q792.5094,224.5313 791.8063,224.5313 Q789.3063,224.5313 787.9781,222.8906 Q786.6656,221.2344 786.6656,218.1094 Q786.6656,214.9844 787.9781,213.3281 Q789.3063,211.6719 791.8063,211.6719 Q792.5094,211.6719 793.15,211.8281 Q793.8063,211.9844 794.3688,212.2813 L794.3688,215 Q793.7438,214.4219 793.15,214.1563 Q792.5563,213.875 791.9313,213.875 Q790.5875,213.875 789.9,214.9531 Q789.2125,216.0156 789.2125,218.1094 Q789.2125,220.2031 789.9,221.2813 Q790.5875,222.3438 791.9313,222.3438 Q792.5563,222.3438 793.15,222.0781 Q793.7438,221.7969 794.3688,221.2188 L794.3688,223.9375 Z " fill="#000000"/><text fill="#000000" font-family="sans-serif" font-size="14" lengthAdjust="spacing" textLength="137.4297" x="805.4" y="223.1436">ControladorInsights</text><line style="stroke:#181818;stroke-width:0.5;" x1="777.4" x2="944.8297" y1="234.2969" y2="234.2969"/><line style="stroke:#181818;stroke-width:0.5;" x1="777.4" x2="944.8297" y1="242.2969" y2="242.2969"/></g><!--link Organizacion to CredencialCloud--><g class="link" data-entity-1="ent0003" data-entity-2="ent0004" data-link-type="association" data-source-line="29" id="lnk19"><path codeLine="29" d="M340.29,245.1569 C404.68,263.6569 505.25,292.5469 573.55,312.1669" fill="none" id="Organizacion-CredencialCloud" style="stroke:#181818;stroke-width:1;"/><text fill="#000000" font-family="sans-serif" font-size="13" lengthAdjust="spacing" textLength="8.271" x="347.9579" y="243.5449">1</text><text fill="#000000" font-family="sans-serif" font-size="13" lengthAdjust="spacing" textLength="23.0356" x="546.8839" y="305.0453">0..*</text></g><!--link Organizacion to AgenteIA--><g class="link" data-entity-1="ent0003" data-entity-2="ent0005" data-link-type="association" data-source-line="30" id="lnk20"><path codeLine="30" d="M244.09,250.5569 C218.34,268.1669 183.11,292.2669 157.31,309.9069" fill="none" id="Organizacion-AgenteIA" style="stroke:#181818;stroke-width:1;"/><text fill="#000000" font-family="sans-serif" font-size="13" lengthAdjust="spacing" textLength="8.271" x="226.856" y="270.3815">1</text><text fill="#000000" font-family="sans-serif" font-size="13" lengthAdjust="spacing" textLength="23.0356" x="139.8476" y="299.2168">0..*</text></g><!--link Organizacion to DatoFacturacion--><g class="link" data-entity-1="ent0003" data-entity-2="ent0006" data-link-type="association" data-source-line="31" id="lnk21"><path codeLine="31" d="M215.87,239.4969 C133.92,258.2269 6,298.3169 58.11,358.2969 C91.41,396.6269 421.66,425.1169 572.12,436.2069" fill="none" id="Organizacion-DatoFacturacion" style="stroke:#181818;stroke-width:1;"/><text fill="#000000" font-family="sans-serif" font-size="13" lengthAdjust="spacing" textLength="8.271" x="199.8137" y="237.2666">1</text><text fill="#000000" font-family="sans-serif" font-size="13" lengthAdjust="spacing" textLength="23.0356" x="541.2403" y="448.4099">0..*</text></g><!--link Organizacion to RegistroUsoLLM--><g class="link" data-entity-1="ent0003" data-entity-2="ent0007" data-link-type="association" data-source-line="32" id="lnk22"><path codeLine="32" d="M278.11,250.5569 C278.11,268.2369 278.11,292.4269 278.11,310.0869" fill="none" id="Organizacion-RegistroUsoLLM" style="stroke:#181818;stroke-width:1;"/><text fill="#000000" font-family="sans-serif" font-size="13" lengthAdjust="spacing" textLength="8.271" x="269.1684" y="270.3815">1</text><text fill="#000000" font-family="sans-serif" font-size="13" lengthAdjust="spacing" textLength="23.0356" x="252.1668" y="299.0451">0..*</text></g><!--link Organizacion to RegistroAuditoria--><g class="link" data-entity-1="ent0003" data-entity-2="ent0008" data-link-type="association" data-source-line="33" id="lnk23"><path codeLine="33" d="M318.49,250.5569 C349.06,268.1669 390.88,292.2669 421.51,309.9069" fill="none" id="Organizacion-RegistroAuditoria" style="stroke:#181818;stroke-width:1;"/><text fill="#000000" font-family="sans-serif" font-size="13" lengthAdjust="spacing" textLength="8.271" x="319.391" y="270.3815">1</text><text fill="#000000" font-family="sans-serif" font-size="13" lengthAdjust="spacing" textLength="23.0356" x="385.8141" y="299.2168">0..*</text></g><!--link AgenteIA to DatoFacturacion--><g class="link" data-entity-1="ent0005" data-entity-2="ent0006" data-link-type="association" data-source-line="35" id="lnk24"><path codeLine="35" d="M171.47,353.3669 C177.04,355.1669 182.67,356.8569 188.11,358.2969 C321.46,393.7269 480.68,418.8169 571.93,431.5969" fill="none" id="AgenteIA-DatoFacturacion" style="stroke:#181818;stroke-width:1;"/><text fill="#000000" font-family="sans-serif" font-size="13" lengthAdjust="spacing" textLength="24.8066" x="173.3128" y="352.6883">0..1</text><text fill="#000000" font-family="sans-serif" font-size="13" lengthAdjust="spacing" textLength="23.0356" x="541.3005" y="427.0487">0..*</text></g><!--link DashboardCostes to ControladorDashboard--><g class="link" data-entity-1="ent0010" data-entity-2="ent0016" data-link-type="dependency" data-source-line="37" id="lnk25"><path codeLine="37" d="M1192.31,127.6269 C1221.79,148.9869 1260.331,176.9168 1289.871,198.3168" fill="none" id="DashboardCostes-to-ControladorDashboard" style="stroke:#181818;stroke-width:1;"/><polygon fill="#181818" points="1294.73,201.8369,1289.7883,193.3175,1290.6809,198.9035,1285.0949,199.7961,1294.73,201.8369" style="stroke:#181818;stroke-width:1;"/></g><!--link DashboardCostes to ControladorSincronizacion--><g class="link" data-entity-1="ent0010" data-entity-2="ent0017" data-link-type="dependency" data-source-line="38" id="lnk26"><path codeLine="38" d="M1146.42,127.6269 C1133.85,149.0569 1118.357,175.4623 1105.797,196.8623" fill="none" id="DashboardCostes-to-ControladorSincronizacion" style="stroke:#181818;stroke-width:1;"/><polygon fill="#181818" points="1102.76,202.0369,1110.7653,196.2997,1105.2909,197.7247,1103.8658,192.2503,1102.76,202.0369" style="stroke:#181818;stroke-width:1;"/></g><!--link VistaKPIs to DatoFacturacion--><g class="link" data-entity-1="ent0011" data-entity-2="ent0006" data-link-type="dependency" data-source-line="39" id="lnk27"><path codeLine="39" d="M1347.99,127.7569 C1359.36,136.4669 1373.17,145.6169 1387.11,151.2969 C1408.36,159.9569 1423.2,141.8569 1438.11,159.2969 C1471.33,198.1369 1470.15,234.4769 1438.11,274.2969 C1348.32,385.9069 905.2175,425.2805 726.0675,436.8405" fill="none" id="VistaKPIs-to-DatoFacturacion" style="stroke:#181818;stroke-width:1;"/><polygon fill="#181818" points="720.08,437.2269,729.3189,440.639,725.0696,436.9049,728.8037,432.6556,720.08,437.2269" style="stroke:#181818;stroke-width:1;"/></g><!--link VistaTendencia to DatoFacturacion--><g class="link" data-entity-1="ent0012" data-entity-2="ent0006" data-link-type="dependency" data-source-line="40" id="lnk28"><path codeLine="40" d="M1480.95,127.6069 C1489.63,161.9069 1500.71,227.0469 1476.11,274.2969 C1446.05,332.0369 1416.96,335.1469 1356.11,358.2969 C1240.99,402.0969 883.5094,427.5205 726.0394,436.8905" fill="none" id="VistaTendencia-to-DatoFacturacion" style="stroke:#181818;stroke-width:1;"/><polygon fill="#181818" points="720.05,437.2469,729.2717,440.7052,725.0412,436.9499,728.7965,432.7194,720.05,437.2469" style="stroke:#181818;stroke-width:1;"/></g><!--link TablaCostesAgente to AgenteIA--><g class="link" data-entity-1="ent0013" data-entity-2="ent0005" data-link-type="dependency" data-source-line="41" id="lnk29"><path codeLine="41" d="M753.29,127.6769 C669.78,163.2469 503.35,231.3669 357.11,274.2969 C283.42,295.9269 262.02,289.4469 188.11,310.2969 C182.58,311.8569 182.5391,311.7606 176.8591,313.6306" fill="none" id="TablaCostesAgente-to-AgenteIA" style="stroke:#181818;stroke-width:1;"/><polygon fill="#181818" points="171.16,315.5069,180.9595,316.4918,175.9092,313.9433,178.4578,308.8931,171.16,315.5069" style="stroke:#181818;stroke-width:1;"/></g><!--link VistaInsights to ControladorInsights--><g class="link" data-entity-1="ent0014" data-entity-2="ent0018" data-link-type="dependency" data-source-line="42" id="lnk30"><path codeLine="42" d="M962.82,127.6269 C940.5,149.0569 911.9482,176.4815 889.6582,197.8815" fill="none" id="VistaInsights-to-ControladorInsights" style="stroke:#181818;stroke-width:1;"/><polygon fill="#181818" points="885.33,202.0369,894.5925,198.6893,888.9368,198.5741,889.052,192.9184,885.33,202.0369" style="stroke:#181818;stroke-width:1;"/></g><!--link ControladorDashboard to DatoFacturacion--><g class="link" data-entity-1="ent0016" data-entity-2="ent0006" data-link-type="dependency" data-source-line="44" id="lnk31"><path codeLine="44" d="M1274.6,250.7569 C1255.99,258.6969 1234.78,267.3069 1215.11,274.2969 C1040.25,336.4269 835.3455,392.3417 725.9555,420.8917" fill="none" id="ControladorDashboard-to-DatoFacturacion" style="stroke:#181818;stroke-width:1;"/><polygon fill="#181818" points="720.15,422.4069,729.8684,424.0044,724.9879,421.1442,727.8482,416.2637,720.15,422.4069" style="stroke:#181818;stroke-width:1;"/></g><!--link ControladorSincronizacion to CredencialCloud--><g class="link" data-entity-1="ent0017" data-entity-2="ent0004" data-link-type="dependency" data-source-line="45" id="lnk32"><path codeLine="45" d="M1032.72,250.6969 C1011.2,258.9969 986.28,267.8669 963.11,274.2969 C881.37,296.9869 791.2334,312.6457 726.6534,322.3457" fill="none" id="ControladorSincronizacion-to-CredencialCloud" style="stroke:#181818;stroke-width:1;"/><polygon fill="#181818" points="720.72,323.2369,730.2143,325.8557,725.6645,322.4942,729.026,317.9444,720.72,323.2369" style="stroke:#181818;stroke-width:1;"/></g><!--link ControladorSincronizacion to RegistroAuditoria--><g class="link" data-entity-1="ent0017" data-entity-2="ent0008" data-link-type="dependency" data-source-line="46" id="lnk33"><path codeLine="46" d="M1036.12,250.6769 C1013.97,259.4969 987.7,268.7269 963.11,274.2969 C786,314.3869 735.27,280.6269 556.11,310.2969 C550.64,311.2069 550.899,311.0581 545.259,312.2081" fill="none" id="ControladorSincronizacion-to-RegistroAuditoria" style="stroke:#181818;stroke-width:1;"/><polygon fill="#181818" points="539.38,313.4069,548.9977,315.5281,544.2792,312.4079,547.3994,307.6894,539.38,313.4069" style="stroke:#181818;stroke-width:1;"/></g><!--link ControladorInsights to RegistroUsoLLM--><g class="link" data-entity-1="ent0018" data-entity-2="ent0007" data-link-type="dependency" data-source-line="47" id="lnk34"><path codeLine="47" d="M808.23,250.6969 C786.31,259.4569 760.39,268.6469 736.11,274.2969 C576.05,311.5369 529.97,281.8669 368.11,310.2969 C362.39,311.2969 362.3636,311.2048 356.4636,312.4848" fill="none" id="ControladorInsights-to-RegistroUsoLLM" style="stroke:#181818;stroke-width:1;"/><polygon fill="#181818" points="350.6,313.7569,360.2435,315.7578,355.4863,312.6968,358.5473,307.9397,350.6,313.7569" style="stroke:#181818;stroke-width:1;"/></g><?plantuml-src ZPB1JiCm38RlUGghHwHDumMGgawJ9ZODiS7TIwmkMeYd93qmnBjJjP2rQIbS_tonV_ktFsjxGOTl80rwduVWzB4Aj9Piz_fAi10-8XUKPonf7zuDWICPq9Q6X0Wwr49H5o0FYW0j6ksrXnbiMLM6OQNjxkA5-Au0MQsJuGm-1BITOUTAjFgAKhEDOk58aPKQJM6uKb7FIxAroJmAImoyGXagro_mJANsmV6BvyrcEv3pIkd0JgFux9XxhT-mwss9_dHaTAfW7yX7lG4VdzQ9SY3Rkexo0Oy6sy-jzVw7jVMwF0NVSr6mhHqQLEowNZfoj3NskDTMEXvkz4PqktQt3zbz1hCPP8lv_2uRP321nbWcc3If2JG9xn_aBK_nuwL19Xs89DuQVHXVynzWil9u7GsNTkrVoYWok9g6YalkdKxg9OOhnYOPRVVh96tjv0ocwM4W8zvwP1lo5m00?></g></svg>